G04 EAGLE Gerber RS-274X export*
G75*
%MOMM*%
%FSLAX34Y34*%
%LPD*%
%INBottom Copper*%
%IPPOS*%
%AMOC8*
5,1,8,0,0,1.08239X$1,22.5*%
G01*
%ADD10P,1.429621X8X22.500000*%
%ADD11P,1.429621X8X202.500000*%
%ADD12P,1.732040X8X202.500000*%
%ADD13C,1.600200*%
%ADD14C,1.320800*%
%ADD15R,1.320800X1.320800*%
%ADD16C,1.320800*%
%ADD17C,1.208000*%
%ADD18P,1.539592X8X22.500000*%
%ADD19C,1.524000*%
%ADD20C,0.609600*%
%ADD21C,0.756400*%
%ADD22C,0.406400*%

G36*
X344698Y10164D02*
X344698Y10164D01*
X344717Y10162D01*
X344819Y10184D01*
X344921Y10200D01*
X344938Y10210D01*
X344958Y10214D01*
X345047Y10267D01*
X345138Y10316D01*
X345152Y10330D01*
X345169Y10340D01*
X345236Y10419D01*
X345308Y10494D01*
X345316Y10512D01*
X345329Y10527D01*
X345368Y10623D01*
X345411Y10717D01*
X345413Y10737D01*
X345421Y10755D01*
X345439Y10922D01*
X345439Y856449D01*
X345428Y856520D01*
X345426Y856591D01*
X345408Y856640D01*
X345400Y856692D01*
X345366Y856755D01*
X345341Y856822D01*
X345309Y856863D01*
X345284Y856909D01*
X345232Y856958D01*
X345188Y857014D01*
X345144Y857043D01*
X345106Y857078D01*
X345041Y857109D01*
X344981Y857147D01*
X344930Y857160D01*
X344883Y857182D01*
X344812Y857190D01*
X344742Y857207D01*
X344690Y857203D01*
X344639Y857209D01*
X344568Y857194D01*
X344497Y857188D01*
X344449Y857168D01*
X344398Y857157D01*
X344337Y857120D01*
X344271Y857092D01*
X344215Y857047D01*
X344187Y857031D01*
X344172Y857013D01*
X344140Y856987D01*
X343000Y855847D01*
X339639Y854455D01*
X334518Y854455D01*
X334498Y854452D01*
X334479Y854454D01*
X334377Y854432D01*
X334275Y854416D01*
X334258Y854406D01*
X334238Y854402D01*
X334149Y854349D01*
X334058Y854300D01*
X334044Y854286D01*
X334027Y854276D01*
X333960Y854197D01*
X333888Y854122D01*
X333880Y854104D01*
X333867Y854089D01*
X333828Y853993D01*
X333785Y853899D01*
X333783Y853879D01*
X333775Y853861D01*
X333757Y853694D01*
X333757Y804977D01*
X314930Y786150D01*
X314877Y786076D01*
X314817Y786006D01*
X314805Y785976D01*
X314786Y785950D01*
X314759Y785863D01*
X314725Y785778D01*
X314721Y785737D01*
X314714Y785715D01*
X314715Y785683D01*
X314707Y785611D01*
X314707Y690063D01*
X314721Y689973D01*
X314729Y689882D01*
X314741Y689853D01*
X314746Y689821D01*
X314789Y689740D01*
X314825Y689656D01*
X314851Y689624D01*
X314862Y689603D01*
X314885Y689581D01*
X314930Y689525D01*
X316457Y687998D01*
X316457Y683602D01*
X313348Y680493D01*
X308952Y680493D01*
X305843Y683602D01*
X305843Y687998D01*
X307370Y689525D01*
X307423Y689599D01*
X307483Y689669D01*
X307495Y689699D01*
X307514Y689725D01*
X307541Y689812D01*
X307575Y689897D01*
X307579Y689938D01*
X307586Y689960D01*
X307585Y689992D01*
X307593Y690063D01*
X307593Y788873D01*
X326420Y807700D01*
X326473Y807774D01*
X326533Y807844D01*
X326545Y807874D01*
X326564Y807900D01*
X326591Y807987D01*
X326625Y808072D01*
X326629Y808113D01*
X326636Y808135D01*
X326635Y808167D01*
X326643Y808239D01*
X326643Y853694D01*
X326640Y853714D01*
X326642Y853733D01*
X326620Y853835D01*
X326604Y853937D01*
X326594Y853954D01*
X326590Y853974D01*
X326537Y854063D01*
X326488Y854154D01*
X326474Y854168D01*
X326464Y854185D01*
X326385Y854252D01*
X326310Y854324D01*
X326292Y854332D01*
X326277Y854345D01*
X326181Y854384D01*
X326087Y854427D01*
X326067Y854429D01*
X326049Y854437D01*
X325882Y854455D01*
X320761Y854455D01*
X317400Y855847D01*
X314827Y858420D01*
X313435Y861781D01*
X313435Y865419D01*
X314827Y868780D01*
X317400Y871353D01*
X320761Y872745D01*
X339639Y872745D01*
X343000Y871353D01*
X344140Y870213D01*
X344198Y870171D01*
X344250Y870122D01*
X344297Y870100D01*
X344339Y870069D01*
X344408Y870048D01*
X344473Y870018D01*
X344525Y870012D01*
X344575Y869997D01*
X344646Y869999D01*
X344717Y869991D01*
X344768Y870002D01*
X344820Y870003D01*
X344888Y870028D01*
X344958Y870043D01*
X345003Y870070D01*
X345051Y870088D01*
X345107Y870133D01*
X345169Y870169D01*
X345203Y870209D01*
X345243Y870241D01*
X345282Y870302D01*
X345329Y870356D01*
X345348Y870405D01*
X345376Y870448D01*
X345394Y870518D01*
X345421Y870584D01*
X345429Y870656D01*
X345437Y870687D01*
X345435Y870710D01*
X345439Y870751D01*
X345439Y881849D01*
X345428Y881920D01*
X345426Y881991D01*
X345408Y882040D01*
X345400Y882092D01*
X345366Y882155D01*
X345341Y882222D01*
X345309Y882263D01*
X345284Y882309D01*
X345232Y882358D01*
X345188Y882414D01*
X345144Y882443D01*
X345106Y882478D01*
X345041Y882509D01*
X344981Y882547D01*
X344930Y882560D01*
X344883Y882582D01*
X344812Y882590D01*
X344742Y882607D01*
X344690Y882603D01*
X344639Y882609D01*
X344568Y882594D01*
X344497Y882588D01*
X344449Y882568D01*
X344398Y882557D01*
X344337Y882520D01*
X344271Y882492D01*
X344215Y882447D01*
X344187Y882431D01*
X344172Y882413D01*
X344140Y882387D01*
X343000Y881247D01*
X339639Y879855D01*
X320761Y879855D01*
X317400Y881247D01*
X314827Y883820D01*
X314350Y884973D01*
X314288Y885073D01*
X314228Y885173D01*
X314223Y885177D01*
X314220Y885182D01*
X314130Y885257D01*
X314041Y885333D01*
X314035Y885335D01*
X314031Y885339D01*
X313922Y885381D01*
X313813Y885425D01*
X313806Y885426D01*
X313801Y885427D01*
X313783Y885428D01*
X313646Y885443D01*
X300239Y885443D01*
X300148Y885429D01*
X300058Y885421D01*
X300028Y885409D01*
X299996Y885404D01*
X299915Y885361D01*
X299831Y885325D01*
X299799Y885299D01*
X299778Y885288D01*
X299756Y885265D01*
X299700Y885220D01*
X289530Y875050D01*
X289477Y874976D01*
X289417Y874906D01*
X289405Y874876D01*
X289386Y874850D01*
X289359Y874763D01*
X289325Y874678D01*
X289321Y874637D01*
X289314Y874615D01*
X289315Y874583D01*
X289307Y874511D01*
X289307Y719339D01*
X289321Y719248D01*
X289329Y719158D01*
X289341Y719128D01*
X289346Y719096D01*
X289389Y719015D01*
X289425Y718931D01*
X289451Y718899D01*
X289462Y718878D01*
X289485Y718856D01*
X289530Y718800D01*
X302007Y706323D01*
X302007Y620827D01*
X289530Y608350D01*
X289477Y608276D01*
X289417Y608206D01*
X289405Y608176D01*
X289386Y608150D01*
X289359Y608063D01*
X289325Y607978D01*
X289321Y607937D01*
X289314Y607915D01*
X289315Y607883D01*
X289307Y607811D01*
X289307Y575763D01*
X289310Y575746D01*
X289308Y575730D01*
X289322Y575663D01*
X289329Y575582D01*
X289341Y575553D01*
X289346Y575521D01*
X289358Y575499D01*
X289360Y575490D01*
X289385Y575447D01*
X289389Y575440D01*
X289425Y575356D01*
X289451Y575324D01*
X289462Y575303D01*
X289484Y575282D01*
X289486Y575279D01*
X289489Y575276D01*
X289530Y575225D01*
X291057Y573698D01*
X291057Y569302D01*
X287948Y566193D01*
X283552Y566193D01*
X280443Y569302D01*
X280443Y573698D01*
X281970Y575225D01*
X282023Y575299D01*
X282042Y575321D01*
X282062Y575341D01*
X282064Y575346D01*
X282083Y575369D01*
X282095Y575399D01*
X282114Y575425D01*
X282140Y575511D01*
X282165Y575564D01*
X282166Y575576D01*
X282175Y575597D01*
X282179Y575638D01*
X282186Y575660D01*
X282185Y575692D01*
X282193Y575763D01*
X282193Y611073D01*
X294670Y623550D01*
X294723Y623624D01*
X294783Y623694D01*
X294795Y623724D01*
X294814Y623750D01*
X294841Y623837D01*
X294875Y623922D01*
X294879Y623963D01*
X294886Y623985D01*
X294885Y624017D01*
X294893Y624089D01*
X294893Y703061D01*
X294879Y703152D01*
X294871Y703242D01*
X294859Y703272D01*
X294854Y703304D01*
X294811Y703385D01*
X294775Y703469D01*
X294749Y703501D01*
X294738Y703522D01*
X294715Y703544D01*
X294670Y703600D01*
X282193Y716077D01*
X282193Y877773D01*
X296977Y892557D01*
X313646Y892557D01*
X313761Y892576D01*
X313877Y892593D01*
X313883Y892595D01*
X313889Y892596D01*
X313992Y892651D01*
X314097Y892704D01*
X314101Y892709D01*
X314107Y892712D01*
X314186Y892796D01*
X314269Y892880D01*
X314272Y892886D01*
X314276Y892890D01*
X314284Y892907D01*
X314350Y893027D01*
X314827Y894180D01*
X317400Y896753D01*
X320761Y898145D01*
X339639Y898145D01*
X343000Y896753D01*
X344140Y895613D01*
X344198Y895571D01*
X344250Y895522D01*
X344297Y895500D01*
X344339Y895469D01*
X344408Y895448D01*
X344473Y895418D01*
X344525Y895412D01*
X344575Y895397D01*
X344646Y895399D01*
X344717Y895391D01*
X344768Y895402D01*
X344820Y895403D01*
X344888Y895428D01*
X344958Y895443D01*
X345003Y895470D01*
X345051Y895488D01*
X345107Y895533D01*
X345169Y895569D01*
X345203Y895609D01*
X345243Y895641D01*
X345282Y895702D01*
X345329Y895756D01*
X345348Y895805D01*
X345376Y895848D01*
X345394Y895918D01*
X345421Y895984D01*
X345429Y896056D01*
X345437Y896087D01*
X345435Y896110D01*
X345439Y896151D01*
X345439Y907249D01*
X345428Y907320D01*
X345426Y907391D01*
X345408Y907440D01*
X345400Y907492D01*
X345366Y907555D01*
X345341Y907622D01*
X345309Y907663D01*
X345284Y907709D01*
X345232Y907758D01*
X345188Y907814D01*
X345144Y907843D01*
X345106Y907878D01*
X345041Y907909D01*
X344981Y907947D01*
X344930Y907960D01*
X344883Y907982D01*
X344812Y907990D01*
X344742Y908007D01*
X344690Y908003D01*
X344639Y908009D01*
X344568Y907994D01*
X344497Y907988D01*
X344449Y907968D01*
X344398Y907957D01*
X344337Y907920D01*
X344271Y907892D01*
X344215Y907847D01*
X344187Y907831D01*
X344172Y907813D01*
X344140Y907787D01*
X343000Y906647D01*
X339639Y905255D01*
X320761Y905255D01*
X317400Y906647D01*
X314827Y909220D01*
X313435Y912581D01*
X313435Y916219D01*
X314827Y919580D01*
X317400Y922153D01*
X320761Y923545D01*
X339639Y923545D01*
X343000Y922153D01*
X344140Y921013D01*
X344198Y920971D01*
X344250Y920922D01*
X344297Y920900D01*
X344339Y920869D01*
X344408Y920848D01*
X344473Y920818D01*
X344525Y920812D01*
X344575Y920797D01*
X344646Y920799D01*
X344717Y920791D01*
X344768Y920802D01*
X344820Y920803D01*
X344888Y920828D01*
X344958Y920843D01*
X345003Y920870D01*
X345051Y920888D01*
X345107Y920933D01*
X345169Y920969D01*
X345203Y921009D01*
X345243Y921041D01*
X345282Y921102D01*
X345329Y921156D01*
X345348Y921205D01*
X345376Y921248D01*
X345394Y921318D01*
X345421Y921384D01*
X345429Y921456D01*
X345437Y921487D01*
X345435Y921510D01*
X345439Y921551D01*
X345439Y932649D01*
X345428Y932720D01*
X345426Y932791D01*
X345408Y932840D01*
X345400Y932892D01*
X345366Y932955D01*
X345341Y933022D01*
X345309Y933063D01*
X345284Y933109D01*
X345232Y933158D01*
X345188Y933214D01*
X345144Y933243D01*
X345106Y933278D01*
X345041Y933309D01*
X344981Y933347D01*
X344930Y933360D01*
X344883Y933382D01*
X344812Y933390D01*
X344742Y933407D01*
X344690Y933403D01*
X344639Y933409D01*
X344568Y933394D01*
X344497Y933388D01*
X344449Y933368D01*
X344398Y933357D01*
X344337Y933320D01*
X344271Y933292D01*
X344215Y933247D01*
X344187Y933231D01*
X344172Y933213D01*
X344140Y933187D01*
X343000Y932047D01*
X339639Y930655D01*
X320761Y930655D01*
X317400Y932047D01*
X314827Y934620D01*
X314350Y935773D01*
X314288Y935873D01*
X314228Y935973D01*
X314223Y935977D01*
X314220Y935982D01*
X314130Y936057D01*
X314041Y936133D01*
X314035Y936135D01*
X314031Y936139D01*
X313922Y936181D01*
X313813Y936225D01*
X313806Y936226D01*
X313801Y936227D01*
X313783Y936228D01*
X313646Y936243D01*
X293889Y936243D01*
X293798Y936229D01*
X293708Y936221D01*
X293678Y936209D01*
X293646Y936204D01*
X293565Y936161D01*
X293481Y936125D01*
X293449Y936099D01*
X293428Y936088D01*
X293406Y936065D01*
X293350Y936020D01*
X276830Y919500D01*
X276777Y919426D01*
X276717Y919356D01*
X276705Y919326D01*
X276686Y919300D01*
X276659Y919213D01*
X276625Y919128D01*
X276621Y919087D01*
X276614Y919065D01*
X276615Y919033D01*
X276607Y918961D01*
X276607Y712989D01*
X276621Y712898D01*
X276629Y712808D01*
X276641Y712778D01*
X276646Y712746D01*
X276689Y712665D01*
X276725Y712581D01*
X276751Y712549D01*
X276762Y712528D01*
X276785Y712506D01*
X276830Y712450D01*
X289307Y699973D01*
X289307Y627177D01*
X257780Y595650D01*
X257727Y595576D01*
X257667Y595506D01*
X257655Y595476D01*
X257636Y595450D01*
X257609Y595363D01*
X257575Y595278D01*
X257571Y595237D01*
X257564Y595215D01*
X257565Y595183D01*
X257557Y595111D01*
X257557Y588390D01*
X257568Y588320D01*
X257570Y588248D01*
X257588Y588199D01*
X257596Y588148D01*
X257630Y588084D01*
X257655Y588017D01*
X257687Y587976D01*
X257712Y587930D01*
X257764Y587881D01*
X257808Y587825D01*
X257852Y587797D01*
X257890Y587761D01*
X257955Y587731D01*
X258015Y587692D01*
X258066Y587679D01*
X258113Y587657D01*
X258184Y587649D01*
X258254Y587632D01*
X258306Y587636D01*
X258357Y587630D01*
X258428Y587645D01*
X258499Y587651D01*
X258547Y587671D01*
X258598Y587682D01*
X258659Y587719D01*
X258725Y587747D01*
X258781Y587792D01*
X258809Y587809D01*
X258824Y587826D01*
X258856Y587852D01*
X263333Y592329D01*
X270067Y592329D01*
X274829Y587567D01*
X274829Y580833D01*
X270067Y576071D01*
X263333Y576071D01*
X258856Y580548D01*
X258798Y580590D01*
X258746Y580639D01*
X258699Y580661D01*
X258657Y580692D01*
X258588Y580713D01*
X258523Y580743D01*
X258471Y580749D01*
X258421Y580764D01*
X258350Y580762D01*
X258279Y580770D01*
X258228Y580759D01*
X258176Y580758D01*
X258108Y580733D01*
X258038Y580718D01*
X257993Y580691D01*
X257945Y580673D01*
X257889Y580628D01*
X257827Y580591D01*
X257793Y580552D01*
X257753Y580519D01*
X257714Y580459D01*
X257667Y580405D01*
X257648Y580356D01*
X257620Y580312D01*
X257602Y580243D01*
X257575Y580176D01*
X257567Y580105D01*
X257559Y580074D01*
X257561Y580051D01*
X257557Y580010D01*
X257557Y567054D01*
X257571Y566964D01*
X257579Y566873D01*
X257591Y566844D01*
X257596Y566812D01*
X257639Y566731D01*
X257675Y566647D01*
X257701Y566615D01*
X257712Y566594D01*
X257735Y566572D01*
X257780Y566516D01*
X262129Y562167D01*
X262129Y555433D01*
X257367Y550671D01*
X250633Y550671D01*
X246156Y555148D01*
X246098Y555190D01*
X246046Y555239D01*
X245999Y555261D01*
X245957Y555292D01*
X245888Y555313D01*
X245823Y555343D01*
X245771Y555349D01*
X245721Y555364D01*
X245650Y555362D01*
X245579Y555370D01*
X245528Y555359D01*
X245476Y555358D01*
X245408Y555333D01*
X245338Y555318D01*
X245293Y555291D01*
X245245Y555273D01*
X245189Y555228D01*
X245127Y555191D01*
X245093Y555152D01*
X245053Y555119D01*
X245014Y555059D01*
X244967Y555005D01*
X244948Y554956D01*
X244920Y554912D01*
X244902Y554843D01*
X244875Y554776D01*
X244867Y554705D01*
X244859Y554674D01*
X244861Y554651D01*
X244857Y554610D01*
X244857Y537590D01*
X244868Y537520D01*
X244870Y537448D01*
X244888Y537399D01*
X244896Y537348D01*
X244930Y537284D01*
X244955Y537217D01*
X244987Y537176D01*
X245012Y537130D01*
X245064Y537081D01*
X245108Y537025D01*
X245152Y536997D01*
X245190Y536961D01*
X245255Y536931D01*
X245315Y536892D01*
X245366Y536879D01*
X245413Y536857D01*
X245484Y536849D01*
X245554Y536832D01*
X245606Y536836D01*
X245657Y536830D01*
X245728Y536845D01*
X245799Y536851D01*
X245847Y536871D01*
X245898Y536882D01*
X245959Y536919D01*
X246025Y536947D01*
X246081Y536992D01*
X246109Y537009D01*
X246124Y537026D01*
X246156Y537052D01*
X250633Y541529D01*
X257367Y541529D01*
X262129Y536767D01*
X262129Y530033D01*
X257367Y525271D01*
X250633Y525271D01*
X246156Y529748D01*
X246098Y529790D01*
X246046Y529839D01*
X245999Y529861D01*
X245957Y529892D01*
X245888Y529913D01*
X245823Y529943D01*
X245771Y529949D01*
X245721Y529964D01*
X245650Y529962D01*
X245579Y529970D01*
X245528Y529959D01*
X245476Y529958D01*
X245408Y529933D01*
X245338Y529918D01*
X245293Y529891D01*
X245245Y529873D01*
X245189Y529828D01*
X245127Y529791D01*
X245093Y529752D01*
X245053Y529719D01*
X245014Y529659D01*
X244967Y529605D01*
X244948Y529556D01*
X244920Y529512D01*
X244902Y529443D01*
X244875Y529376D01*
X244867Y529305D01*
X244859Y529274D01*
X244861Y529251D01*
X244857Y529210D01*
X244857Y500177D01*
X242550Y497870D01*
X238730Y494050D01*
X238677Y493976D01*
X238617Y493906D01*
X238605Y493876D01*
X238586Y493850D01*
X238559Y493763D01*
X238525Y493678D01*
X238521Y493637D01*
X238514Y493615D01*
X238515Y493583D01*
X238507Y493511D01*
X238507Y471689D01*
X238521Y471598D01*
X238529Y471508D01*
X238541Y471478D01*
X238546Y471446D01*
X238589Y471365D01*
X238625Y471281D01*
X238651Y471249D01*
X238662Y471228D01*
X238685Y471206D01*
X238730Y471150D01*
X244857Y465023D01*
X244857Y397890D01*
X244868Y397820D01*
X244870Y397748D01*
X244888Y397699D01*
X244896Y397648D01*
X244930Y397584D01*
X244955Y397517D01*
X244987Y397476D01*
X245012Y397430D01*
X245064Y397381D01*
X245108Y397325D01*
X245152Y397297D01*
X245190Y397261D01*
X245255Y397231D01*
X245315Y397192D01*
X245366Y397179D01*
X245413Y397157D01*
X245484Y397149D01*
X245554Y397132D01*
X245606Y397136D01*
X245657Y397130D01*
X245728Y397145D01*
X245799Y397151D01*
X245847Y397171D01*
X245898Y397182D01*
X245959Y397219D01*
X246025Y397247D01*
X246081Y397292D01*
X246109Y397309D01*
X246124Y397326D01*
X246156Y397352D01*
X250633Y401829D01*
X257367Y401829D01*
X262129Y397067D01*
X262129Y390333D01*
X257367Y385571D01*
X250633Y385571D01*
X246156Y390048D01*
X246098Y390090D01*
X246046Y390139D01*
X245999Y390161D01*
X245957Y390192D01*
X245888Y390213D01*
X245823Y390243D01*
X245771Y390249D01*
X245721Y390264D01*
X245650Y390262D01*
X245579Y390270D01*
X245528Y390259D01*
X245476Y390258D01*
X245408Y390233D01*
X245338Y390218D01*
X245293Y390191D01*
X245245Y390173D01*
X245189Y390128D01*
X245127Y390091D01*
X245093Y390052D01*
X245053Y390019D01*
X245014Y389959D01*
X244967Y389905D01*
X244948Y389856D01*
X244920Y389812D01*
X244902Y389743D01*
X244875Y389676D01*
X244867Y389605D01*
X244859Y389574D01*
X244861Y389551D01*
X244857Y389510D01*
X244857Y270890D01*
X244868Y270820D01*
X244870Y270748D01*
X244888Y270699D01*
X244896Y270648D01*
X244930Y270584D01*
X244955Y270517D01*
X244987Y270476D01*
X245012Y270430D01*
X245064Y270381D01*
X245108Y270325D01*
X245152Y270297D01*
X245190Y270261D01*
X245255Y270231D01*
X245315Y270192D01*
X245366Y270179D01*
X245413Y270157D01*
X245484Y270149D01*
X245554Y270132D01*
X245606Y270136D01*
X245657Y270130D01*
X245728Y270145D01*
X245799Y270151D01*
X245847Y270171D01*
X245898Y270182D01*
X245959Y270219D01*
X246025Y270247D01*
X246081Y270292D01*
X246109Y270309D01*
X246124Y270326D01*
X246156Y270352D01*
X250633Y274829D01*
X257367Y274829D01*
X262129Y270067D01*
X262129Y263333D01*
X257367Y258571D01*
X250633Y258571D01*
X246156Y263048D01*
X246098Y263090D01*
X246046Y263139D01*
X245999Y263161D01*
X245957Y263192D01*
X245888Y263213D01*
X245823Y263243D01*
X245771Y263249D01*
X245721Y263264D01*
X245650Y263262D01*
X245579Y263270D01*
X245528Y263259D01*
X245476Y263258D01*
X245408Y263233D01*
X245338Y263218D01*
X245293Y263191D01*
X245245Y263173D01*
X245189Y263128D01*
X245127Y263091D01*
X245093Y263052D01*
X245053Y263019D01*
X245014Y262959D01*
X244967Y262905D01*
X244948Y262856D01*
X244920Y262812D01*
X244902Y262743D01*
X244875Y262676D01*
X244867Y262605D01*
X244859Y262574D01*
X244861Y262551D01*
X244857Y262510D01*
X244857Y251913D01*
X244871Y251823D01*
X244879Y251732D01*
X244891Y251703D01*
X244896Y251671D01*
X244939Y251590D01*
X244975Y251506D01*
X245001Y251474D01*
X245012Y251453D01*
X245035Y251431D01*
X245080Y251375D01*
X246607Y249848D01*
X246607Y245452D01*
X243498Y242343D01*
X239102Y242343D01*
X235993Y245452D01*
X235993Y249848D01*
X237520Y251375D01*
X237573Y251449D01*
X237633Y251519D01*
X237645Y251549D01*
X237664Y251575D01*
X237691Y251662D01*
X237725Y251747D01*
X237729Y251788D01*
X237736Y251810D01*
X237735Y251842D01*
X237743Y251913D01*
X237743Y461761D01*
X237729Y461852D01*
X237721Y461942D01*
X237709Y461972D01*
X237704Y462004D01*
X237661Y462085D01*
X237625Y462169D01*
X237599Y462201D01*
X237588Y462222D01*
X237565Y462244D01*
X237520Y462300D01*
X231393Y468427D01*
X231393Y496773D01*
X237520Y502900D01*
X237573Y502974D01*
X237633Y503044D01*
X237645Y503074D01*
X237664Y503100D01*
X237691Y503187D01*
X237709Y503232D01*
X237715Y503246D01*
X237715Y503249D01*
X237725Y503272D01*
X237729Y503313D01*
X237736Y503335D01*
X237735Y503367D01*
X237743Y503439D01*
X237743Y687273D01*
X250220Y699750D01*
X250273Y699824D01*
X250333Y699894D01*
X250345Y699924D01*
X250364Y699950D01*
X250391Y700037D01*
X250425Y700122D01*
X250429Y700163D01*
X250436Y700185D01*
X250435Y700217D01*
X250443Y700289D01*
X250443Y728346D01*
X250429Y728436D01*
X250421Y728527D01*
X250409Y728556D01*
X250404Y728588D01*
X250361Y728669D01*
X250325Y728753D01*
X250299Y728785D01*
X250288Y728806D01*
X250265Y728828D01*
X250220Y728884D01*
X246284Y732820D01*
X246210Y732873D01*
X246141Y732933D01*
X246110Y732945D01*
X246084Y732964D01*
X245997Y732991D01*
X245912Y733025D01*
X245871Y733029D01*
X245849Y733036D01*
X245817Y733035D01*
X245746Y733043D01*
X229163Y733043D01*
X229049Y733025D01*
X228932Y733007D01*
X228927Y733005D01*
X228921Y733004D01*
X228818Y732949D01*
X228713Y732896D01*
X228709Y732891D01*
X228703Y732888D01*
X228623Y732804D01*
X228541Y732720D01*
X228537Y732714D01*
X228534Y732710D01*
X228526Y732693D01*
X228460Y732573D01*
X228353Y732315D01*
X226225Y730187D01*
X223445Y729035D01*
X208355Y729035D01*
X205575Y730187D01*
X203447Y732315D01*
X202295Y735095D01*
X202295Y738105D01*
X203447Y740885D01*
X205575Y743013D01*
X208355Y744165D01*
X223445Y744165D01*
X226225Y743013D01*
X228353Y740885D01*
X228460Y740627D01*
X228521Y740528D01*
X228582Y740427D01*
X228586Y740423D01*
X228590Y740418D01*
X228679Y740344D01*
X228769Y740267D01*
X228774Y740265D01*
X228779Y740261D01*
X228887Y740219D01*
X228997Y740175D01*
X229004Y740174D01*
X229009Y740173D01*
X229027Y740172D01*
X229163Y740157D01*
X245746Y740157D01*
X245836Y740171D01*
X245927Y740179D01*
X245956Y740191D01*
X245988Y740196D01*
X246069Y740239D01*
X246153Y740275D01*
X246185Y740301D01*
X246206Y740312D01*
X246228Y740335D01*
X246284Y740380D01*
X250633Y744729D01*
X257367Y744729D01*
X262129Y739967D01*
X262129Y733233D01*
X257780Y728884D01*
X257727Y728810D01*
X257667Y728741D01*
X257655Y728710D01*
X257636Y728684D01*
X257609Y728597D01*
X257575Y728512D01*
X257571Y728471D01*
X257564Y728449D01*
X257565Y728417D01*
X257557Y728346D01*
X257557Y697027D01*
X245080Y684550D01*
X245027Y684476D01*
X244967Y684406D01*
X244955Y684376D01*
X244936Y684350D01*
X244909Y684263D01*
X244875Y684178D01*
X244871Y684137D01*
X244864Y684115D01*
X244865Y684083D01*
X244857Y684011D01*
X244857Y664590D01*
X244868Y664520D01*
X244870Y664448D01*
X244888Y664399D01*
X244896Y664348D01*
X244930Y664284D01*
X244955Y664217D01*
X244987Y664176D01*
X245012Y664130D01*
X245064Y664081D01*
X245108Y664025D01*
X245152Y663997D01*
X245190Y663961D01*
X245255Y663931D01*
X245315Y663892D01*
X245366Y663879D01*
X245413Y663857D01*
X245484Y663849D01*
X245554Y663832D01*
X245606Y663836D01*
X245657Y663830D01*
X245728Y663845D01*
X245799Y663851D01*
X245847Y663871D01*
X245898Y663882D01*
X245959Y663919D01*
X246025Y663947D01*
X246081Y663992D01*
X246109Y664009D01*
X246124Y664026D01*
X246156Y664052D01*
X250633Y668529D01*
X257367Y668529D01*
X262129Y663767D01*
X262129Y657033D01*
X257367Y652271D01*
X250633Y652271D01*
X246156Y656748D01*
X246098Y656790D01*
X246046Y656839D01*
X245999Y656861D01*
X245957Y656892D01*
X245888Y656913D01*
X245823Y656943D01*
X245771Y656949D01*
X245721Y656964D01*
X245650Y656962D01*
X245579Y656970D01*
X245528Y656959D01*
X245476Y656958D01*
X245408Y656933D01*
X245338Y656918D01*
X245293Y656891D01*
X245245Y656873D01*
X245189Y656828D01*
X245127Y656791D01*
X245093Y656752D01*
X245053Y656719D01*
X245014Y656659D01*
X244967Y656605D01*
X244948Y656556D01*
X244920Y656512D01*
X244902Y656443D01*
X244875Y656376D01*
X244867Y656305D01*
X244859Y656274D01*
X244861Y656251D01*
X244857Y656210D01*
X244857Y639190D01*
X244868Y639120D01*
X244870Y639048D01*
X244888Y638999D01*
X244896Y638948D01*
X244930Y638884D01*
X244955Y638817D01*
X244987Y638776D01*
X245012Y638730D01*
X245064Y638681D01*
X245108Y638625D01*
X245152Y638597D01*
X245190Y638561D01*
X245255Y638531D01*
X245315Y638492D01*
X245366Y638479D01*
X245413Y638457D01*
X245484Y638449D01*
X245554Y638432D01*
X245606Y638436D01*
X245657Y638430D01*
X245728Y638445D01*
X245799Y638451D01*
X245847Y638471D01*
X245898Y638482D01*
X245959Y638519D01*
X246025Y638547D01*
X246081Y638592D01*
X246109Y638609D01*
X246124Y638626D01*
X246156Y638652D01*
X250633Y643129D01*
X256783Y643129D01*
X256874Y643143D01*
X256964Y643151D01*
X256994Y643163D01*
X257026Y643168D01*
X257107Y643211D01*
X257191Y643247D01*
X257223Y643273D01*
X257244Y643284D01*
X257266Y643307D01*
X257322Y643352D01*
X269270Y655300D01*
X269323Y655374D01*
X269383Y655444D01*
X269395Y655474D01*
X269414Y655500D01*
X269441Y655587D01*
X269475Y655672D01*
X269479Y655713D01*
X269486Y655735D01*
X269485Y655767D01*
X269493Y655839D01*
X269493Y681537D01*
X269479Y681627D01*
X269471Y681718D01*
X269459Y681747D01*
X269454Y681779D01*
X269411Y681860D01*
X269375Y681944D01*
X269349Y681976D01*
X269338Y681997D01*
X269315Y682019D01*
X269270Y682075D01*
X267743Y683602D01*
X267743Y687998D01*
X270852Y691107D01*
X275248Y691107D01*
X278357Y687998D01*
X278357Y683602D01*
X276830Y682075D01*
X276777Y682001D01*
X276717Y681931D01*
X276705Y681901D01*
X276686Y681875D01*
X276659Y681788D01*
X276625Y681703D01*
X276621Y681662D01*
X276614Y681640D01*
X276615Y681608D01*
X276607Y681537D01*
X276607Y652577D01*
X262352Y638322D01*
X262299Y638248D01*
X262239Y638178D01*
X262227Y638148D01*
X262208Y638122D01*
X262181Y638035D01*
X262147Y637950D01*
X262143Y637909D01*
X262136Y637887D01*
X262137Y637855D01*
X262129Y637783D01*
X262129Y631633D01*
X257367Y626871D01*
X250633Y626871D01*
X246156Y631348D01*
X246098Y631390D01*
X246046Y631439D01*
X245999Y631461D01*
X245957Y631492D01*
X245888Y631513D01*
X245823Y631543D01*
X245771Y631549D01*
X245721Y631564D01*
X245650Y631562D01*
X245579Y631570D01*
X245528Y631559D01*
X245476Y631558D01*
X245408Y631533D01*
X245338Y631518D01*
X245293Y631491D01*
X245245Y631473D01*
X245189Y631428D01*
X245127Y631391D01*
X245093Y631352D01*
X245053Y631319D01*
X245014Y631259D01*
X244967Y631205D01*
X244948Y631156D01*
X244920Y631112D01*
X244902Y631043D01*
X244875Y630976D01*
X244867Y630905D01*
X244859Y630874D01*
X244861Y630851D01*
X244857Y630810D01*
X244857Y562990D01*
X244868Y562920D01*
X244870Y562848D01*
X244888Y562799D01*
X244896Y562748D01*
X244930Y562684D01*
X244955Y562617D01*
X244987Y562576D01*
X245012Y562530D01*
X245064Y562481D01*
X245108Y562425D01*
X245152Y562397D01*
X245190Y562361D01*
X245255Y562331D01*
X245315Y562292D01*
X245366Y562279D01*
X245413Y562257D01*
X245484Y562249D01*
X245554Y562232D01*
X245606Y562236D01*
X245657Y562230D01*
X245728Y562245D01*
X245799Y562251D01*
X245847Y562271D01*
X245898Y562282D01*
X245959Y562319D01*
X246025Y562347D01*
X246081Y562392D01*
X246109Y562409D01*
X246124Y562426D01*
X246156Y562452D01*
X250220Y566516D01*
X250273Y566590D01*
X250333Y566659D01*
X250345Y566690D01*
X250364Y566716D01*
X250391Y566803D01*
X250425Y566888D01*
X250429Y566929D01*
X250436Y566951D01*
X250435Y566983D01*
X250443Y567054D01*
X250443Y598373D01*
X281970Y629900D01*
X282023Y629974D01*
X282083Y630044D01*
X282095Y630074D01*
X282114Y630100D01*
X282141Y630187D01*
X282175Y630272D01*
X282179Y630313D01*
X282186Y630335D01*
X282185Y630367D01*
X282193Y630439D01*
X282193Y696711D01*
X282179Y696802D01*
X282171Y696892D01*
X282159Y696922D01*
X282154Y696954D01*
X282111Y697035D01*
X282075Y697119D01*
X282049Y697151D01*
X282038Y697172D01*
X282015Y697194D01*
X281970Y697250D01*
X269493Y709727D01*
X269493Y922223D01*
X271800Y924530D01*
X290627Y943357D01*
X313646Y943357D01*
X313761Y943376D01*
X313877Y943393D01*
X313883Y943395D01*
X313889Y943396D01*
X313992Y943451D01*
X314097Y943504D01*
X314101Y943509D01*
X314107Y943512D01*
X314186Y943596D01*
X314269Y943680D01*
X314272Y943686D01*
X314276Y943690D01*
X314284Y943707D01*
X314350Y943827D01*
X314827Y944980D01*
X317400Y947553D01*
X320761Y948945D01*
X339639Y948945D01*
X343000Y947553D01*
X344140Y946413D01*
X344198Y946371D01*
X344250Y946322D01*
X344297Y946300D01*
X344339Y946269D01*
X344408Y946248D01*
X344473Y946218D01*
X344525Y946212D01*
X344575Y946197D01*
X344646Y946199D01*
X344717Y946191D01*
X344768Y946202D01*
X344820Y946203D01*
X344888Y946228D01*
X344958Y946243D01*
X345003Y946270D01*
X345051Y946288D01*
X345107Y946333D01*
X345169Y946369D01*
X345203Y946409D01*
X345243Y946441D01*
X345282Y946502D01*
X345329Y946556D01*
X345348Y946605D01*
X345376Y946648D01*
X345394Y946718D01*
X345421Y946784D01*
X345429Y946856D01*
X345437Y946887D01*
X345435Y946910D01*
X345439Y946951D01*
X345439Y958049D01*
X345428Y958120D01*
X345426Y958191D01*
X345408Y958240D01*
X345400Y958292D01*
X345366Y958355D01*
X345341Y958422D01*
X345309Y958463D01*
X345284Y958509D01*
X345232Y958558D01*
X345188Y958614D01*
X345144Y958643D01*
X345106Y958678D01*
X345041Y958709D01*
X344981Y958747D01*
X344930Y958760D01*
X344883Y958782D01*
X344812Y958790D01*
X344742Y958807D01*
X344690Y958803D01*
X344639Y958809D01*
X344568Y958794D01*
X344497Y958788D01*
X344449Y958768D01*
X344398Y958757D01*
X344337Y958720D01*
X344271Y958692D01*
X344215Y958647D01*
X344187Y958631D01*
X344172Y958613D01*
X344140Y958587D01*
X343000Y957447D01*
X339639Y956055D01*
X320761Y956055D01*
X317400Y957447D01*
X314827Y960020D01*
X314771Y960157D01*
X314709Y960256D01*
X314649Y960357D01*
X314644Y960361D01*
X314641Y960366D01*
X314551Y960441D01*
X314462Y960517D01*
X314456Y960519D01*
X314451Y960523D01*
X314343Y960565D01*
X314234Y960609D01*
X314226Y960610D01*
X314222Y960611D01*
X314203Y960612D01*
X314067Y960627D01*
X205409Y960627D01*
X205319Y960613D01*
X205228Y960605D01*
X205199Y960593D01*
X205167Y960588D01*
X205086Y960545D01*
X205002Y960509D01*
X204970Y960483D01*
X204949Y960472D01*
X204927Y960449D01*
X204871Y960404D01*
X169896Y925429D01*
X169843Y925355D01*
X169783Y925285D01*
X169771Y925255D01*
X169752Y925229D01*
X169725Y925142D01*
X169691Y925057D01*
X169687Y925016D01*
X169680Y924994D01*
X169681Y924962D01*
X169673Y924891D01*
X169673Y574747D01*
X169687Y574657D01*
X169695Y574566D01*
X169707Y574537D01*
X169712Y574505D01*
X169755Y574424D01*
X169791Y574340D01*
X169817Y574308D01*
X169828Y574287D01*
X169851Y574265D01*
X169896Y574209D01*
X170407Y573698D01*
X170407Y569302D01*
X169896Y568791D01*
X169843Y568717D01*
X169783Y568647D01*
X169771Y568617D01*
X169752Y568591D01*
X169725Y568504D01*
X169691Y568419D01*
X169687Y568378D01*
X169680Y568356D01*
X169681Y568324D01*
X169673Y568253D01*
X169673Y125106D01*
X131796Y87229D01*
X131743Y87155D01*
X131683Y87085D01*
X131671Y87055D01*
X131652Y87029D01*
X131625Y86942D01*
X131591Y86857D01*
X131587Y86816D01*
X131580Y86794D01*
X131581Y86762D01*
X131573Y86691D01*
X131573Y71457D01*
X131587Y71367D01*
X131595Y71276D01*
X131607Y71246D01*
X131612Y71214D01*
X131655Y71133D01*
X131691Y71049D01*
X131717Y71017D01*
X131728Y70997D01*
X131751Y70974D01*
X131796Y70918D01*
X135637Y67077D01*
X135637Y59923D01*
X131796Y56082D01*
X131743Y56008D01*
X131683Y55938D01*
X131671Y55908D01*
X131652Y55882D01*
X131625Y55795D01*
X131591Y55710D01*
X131587Y55669D01*
X131580Y55647D01*
X131581Y55615D01*
X131573Y55543D01*
X131573Y46057D01*
X131587Y45967D01*
X131595Y45876D01*
X131607Y45846D01*
X131612Y45814D01*
X131655Y45733D01*
X131691Y45649D01*
X131717Y45617D01*
X131728Y45597D01*
X131751Y45574D01*
X131796Y45518D01*
X135637Y41677D01*
X135637Y34523D01*
X130577Y29463D01*
X123423Y29463D01*
X118363Y34523D01*
X118363Y41677D01*
X121614Y44928D01*
X121655Y44986D01*
X121705Y45038D01*
X121727Y45085D01*
X121757Y45127D01*
X121778Y45196D01*
X121808Y45261D01*
X121814Y45313D01*
X121829Y45363D01*
X121828Y45434D01*
X121836Y45505D01*
X121824Y45556D01*
X121823Y45608D01*
X121798Y45676D01*
X121783Y45746D01*
X121757Y45791D01*
X121739Y45839D01*
X121694Y45895D01*
X121657Y45957D01*
X121618Y45991D01*
X121585Y46031D01*
X121525Y46070D01*
X121470Y46117D01*
X121422Y46136D01*
X121378Y46164D01*
X121309Y46182D01*
X121242Y46209D01*
X121171Y46217D01*
X121140Y46225D01*
X121116Y46223D01*
X121075Y46227D01*
X59725Y46227D01*
X59610Y46208D01*
X59494Y46191D01*
X59489Y46189D01*
X59482Y46188D01*
X59380Y46133D01*
X59275Y46080D01*
X59271Y46075D01*
X59265Y46072D01*
X59185Y45988D01*
X59103Y45904D01*
X59099Y45898D01*
X59096Y45894D01*
X59088Y45877D01*
X59022Y45757D01*
X58876Y45404D01*
X56196Y42724D01*
X52695Y41274D01*
X48905Y41274D01*
X45404Y42724D01*
X42724Y45404D01*
X41274Y48905D01*
X41274Y52695D01*
X42724Y56196D01*
X45404Y58876D01*
X48905Y60326D01*
X52695Y60326D01*
X56196Y58876D01*
X58876Y56196D01*
X59022Y55843D01*
X59084Y55743D01*
X59143Y55643D01*
X59148Y55639D01*
X59151Y55634D01*
X59242Y55559D01*
X59330Y55483D01*
X59336Y55481D01*
X59341Y55477D01*
X59449Y55435D01*
X59558Y55391D01*
X59566Y55390D01*
X59571Y55389D01*
X59589Y55388D01*
X59725Y55373D01*
X121075Y55373D01*
X121146Y55384D01*
X121218Y55386D01*
X121267Y55404D01*
X121318Y55412D01*
X121381Y55446D01*
X121449Y55471D01*
X121489Y55503D01*
X121535Y55528D01*
X121585Y55580D01*
X121641Y55624D01*
X121669Y55668D01*
X121705Y55706D01*
X121735Y55771D01*
X121774Y55831D01*
X121786Y55882D01*
X121808Y55929D01*
X121816Y56000D01*
X121834Y56070D01*
X121830Y56122D01*
X121836Y56173D01*
X121820Y56244D01*
X121815Y56315D01*
X121794Y56363D01*
X121783Y56414D01*
X121746Y56475D01*
X121718Y56541D01*
X121674Y56597D01*
X121657Y56625D01*
X121639Y56640D01*
X121614Y56672D01*
X118363Y59923D01*
X118363Y67077D01*
X122204Y70918D01*
X122257Y70992D01*
X122317Y71062D01*
X122329Y71092D01*
X122348Y71118D01*
X122375Y71205D01*
X122409Y71290D01*
X122413Y71331D01*
X122420Y71353D01*
X122419Y71385D01*
X122427Y71457D01*
X122427Y90794D01*
X160304Y128671D01*
X160357Y128745D01*
X160417Y128815D01*
X160429Y128845D01*
X160448Y128871D01*
X160475Y128958D01*
X160509Y129043D01*
X160513Y129084D01*
X160520Y129106D01*
X160519Y129138D01*
X160527Y129209D01*
X160527Y388366D01*
X160524Y388386D01*
X160526Y388405D01*
X160504Y388507D01*
X160488Y388609D01*
X160478Y388626D01*
X160474Y388646D01*
X160421Y388735D01*
X160372Y388826D01*
X160358Y388840D01*
X160348Y388857D01*
X160269Y388924D01*
X160194Y388996D01*
X160176Y389004D01*
X160161Y389017D01*
X160065Y389056D01*
X159971Y389099D01*
X159951Y389101D01*
X159933Y389109D01*
X159766Y389127D01*
X153542Y389127D01*
X153452Y389113D01*
X153361Y389105D01*
X153332Y389093D01*
X153300Y389088D01*
X153219Y389045D01*
X153135Y389009D01*
X153103Y388983D01*
X153082Y388972D01*
X153060Y388949D01*
X153004Y388904D01*
X150909Y386809D01*
X147921Y385571D01*
X131479Y385571D01*
X128491Y386809D01*
X126205Y389095D01*
X124967Y392083D01*
X124967Y395317D01*
X126205Y398305D01*
X128491Y400591D01*
X131479Y401829D01*
X147921Y401829D01*
X150909Y400591D01*
X153004Y398496D01*
X153078Y398443D01*
X153147Y398383D01*
X153178Y398371D01*
X153204Y398352D01*
X153291Y398325D01*
X153376Y398291D01*
X153417Y398287D01*
X153439Y398280D01*
X153471Y398281D01*
X153542Y398273D01*
X159766Y398273D01*
X159786Y398276D01*
X159805Y398274D01*
X159907Y398296D01*
X160009Y398312D01*
X160026Y398322D01*
X160046Y398326D01*
X160135Y398379D01*
X160226Y398428D01*
X160240Y398442D01*
X160257Y398452D01*
X160324Y398531D01*
X160396Y398606D01*
X160404Y398624D01*
X160417Y398639D01*
X160456Y398735D01*
X160499Y398829D01*
X160501Y398849D01*
X160509Y398867D01*
X160527Y399034D01*
X160527Y568253D01*
X160513Y568343D01*
X160505Y568434D01*
X160493Y568463D01*
X160488Y568495D01*
X160445Y568576D01*
X160409Y568660D01*
X160383Y568692D01*
X160372Y568713D01*
X160349Y568735D01*
X160304Y568791D01*
X159793Y569302D01*
X159793Y573698D01*
X160304Y574209D01*
X160357Y574283D01*
X160417Y574353D01*
X160429Y574383D01*
X160448Y574409D01*
X160475Y574496D01*
X160509Y574581D01*
X160513Y574622D01*
X160520Y574644D01*
X160519Y574676D01*
X160527Y574747D01*
X160527Y731266D01*
X160524Y731286D01*
X160526Y731305D01*
X160504Y731407D01*
X160488Y731509D01*
X160478Y731526D01*
X160474Y731546D01*
X160421Y731635D01*
X160372Y731726D01*
X160358Y731740D01*
X160348Y731757D01*
X160269Y731824D01*
X160194Y731896D01*
X160176Y731904D01*
X160161Y731917D01*
X160065Y731956D01*
X159971Y731999D01*
X159951Y732001D01*
X159933Y732009D01*
X159766Y732027D01*
X152181Y732027D01*
X152091Y732013D01*
X152000Y732005D01*
X151970Y731993D01*
X151938Y731988D01*
X151857Y731945D01*
X151773Y731909D01*
X151741Y731883D01*
X151721Y731872D01*
X151698Y731849D01*
X151642Y731804D01*
X150025Y730187D01*
X147245Y729035D01*
X132155Y729035D01*
X129375Y730187D01*
X127758Y731804D01*
X127684Y731857D01*
X127614Y731917D01*
X127584Y731929D01*
X127558Y731948D01*
X127471Y731975D01*
X127386Y732009D01*
X127345Y732013D01*
X127323Y732020D01*
X127291Y732019D01*
X127219Y732027D01*
X96138Y732027D01*
X96048Y732013D01*
X95957Y732005D01*
X95928Y731993D01*
X95896Y731988D01*
X95815Y731945D01*
X95731Y731909D01*
X95699Y731883D01*
X95678Y731872D01*
X95656Y731849D01*
X95600Y731804D01*
X92267Y728471D01*
X85533Y728471D01*
X81056Y732948D01*
X80998Y732990D01*
X80946Y733039D01*
X80899Y733061D01*
X80857Y733092D01*
X80788Y733113D01*
X80723Y733143D01*
X80671Y733149D01*
X80621Y733164D01*
X80550Y733162D01*
X80479Y733170D01*
X80428Y733159D01*
X80376Y733158D01*
X80308Y733133D01*
X80238Y733118D01*
X80193Y733091D01*
X80145Y733073D01*
X80089Y733028D01*
X80027Y732991D01*
X79993Y732952D01*
X79953Y732919D01*
X79914Y732859D01*
X79867Y732805D01*
X79848Y732756D01*
X79820Y732712D01*
X79802Y732643D01*
X79775Y732576D01*
X79767Y732505D01*
X79759Y732474D01*
X79761Y732451D01*
X79757Y732410D01*
X79757Y664663D01*
X79771Y664573D01*
X79779Y664482D01*
X79791Y664453D01*
X79796Y664421D01*
X79839Y664340D01*
X79875Y664256D01*
X79901Y664224D01*
X79912Y664203D01*
X79935Y664181D01*
X79980Y664125D01*
X81507Y662598D01*
X81507Y658202D01*
X78398Y655093D01*
X74002Y655093D01*
X70893Y658202D01*
X70893Y662598D01*
X72420Y664125D01*
X72473Y664199D01*
X72533Y664269D01*
X72545Y664299D01*
X72564Y664325D01*
X72591Y664412D01*
X72625Y664497D01*
X72629Y664538D01*
X72636Y664560D01*
X72635Y664592D01*
X72643Y664663D01*
X72643Y910137D01*
X72629Y910227D01*
X72621Y910318D01*
X72609Y910347D01*
X72604Y910379D01*
X72561Y910460D01*
X72525Y910544D01*
X72499Y910576D01*
X72488Y910597D01*
X72465Y910619D01*
X72420Y910675D01*
X70893Y912202D01*
X70893Y916598D01*
X74002Y919707D01*
X78398Y919707D01*
X81507Y916598D01*
X81507Y912202D01*
X79980Y910675D01*
X79927Y910601D01*
X79867Y910531D01*
X79855Y910501D01*
X79836Y910475D01*
X79809Y910388D01*
X79775Y910303D01*
X79771Y910262D01*
X79764Y910240D01*
X79765Y910208D01*
X79757Y910137D01*
X79757Y740790D01*
X79768Y740720D01*
X79770Y740648D01*
X79788Y740599D01*
X79796Y740548D01*
X79830Y740484D01*
X79855Y740417D01*
X79887Y740376D01*
X79912Y740330D01*
X79964Y740281D01*
X80008Y740225D01*
X80052Y740197D01*
X80090Y740161D01*
X80155Y740131D01*
X80215Y740092D01*
X80266Y740079D01*
X80313Y740057D01*
X80384Y740049D01*
X80454Y740032D01*
X80506Y740036D01*
X80557Y740030D01*
X80628Y740045D01*
X80699Y740051D01*
X80747Y740071D01*
X80798Y740082D01*
X80859Y740119D01*
X80925Y740147D01*
X80981Y740192D01*
X81009Y740209D01*
X81024Y740226D01*
X81056Y740252D01*
X85533Y744729D01*
X92267Y744729D01*
X95600Y741396D01*
X95674Y741343D01*
X95743Y741283D01*
X95774Y741271D01*
X95800Y741252D01*
X95887Y741225D01*
X95972Y741191D01*
X96013Y741187D01*
X96035Y741180D01*
X96067Y741181D01*
X96138Y741173D01*
X127219Y741173D01*
X127309Y741187D01*
X127400Y741195D01*
X127430Y741207D01*
X127462Y741212D01*
X127543Y741255D01*
X127627Y741291D01*
X127659Y741317D01*
X127679Y741328D01*
X127702Y741351D01*
X127758Y741396D01*
X129375Y743013D01*
X132155Y744165D01*
X147245Y744165D01*
X150025Y743013D01*
X151642Y741396D01*
X151716Y741343D01*
X151786Y741283D01*
X151816Y741271D01*
X151842Y741252D01*
X151929Y741225D01*
X152014Y741191D01*
X152055Y741187D01*
X152077Y741180D01*
X152109Y741181D01*
X152181Y741173D01*
X159766Y741173D01*
X159786Y741176D01*
X159805Y741174D01*
X159907Y741196D01*
X160009Y741212D01*
X160026Y741222D01*
X160046Y741226D01*
X160135Y741279D01*
X160226Y741328D01*
X160240Y741342D01*
X160257Y741352D01*
X160324Y741431D01*
X160396Y741506D01*
X160404Y741524D01*
X160417Y741539D01*
X160456Y741635D01*
X160499Y741729D01*
X160501Y741749D01*
X160509Y741767D01*
X160527Y741934D01*
X160527Y928994D01*
X201306Y969773D01*
X314067Y969773D01*
X314182Y969792D01*
X314298Y969809D01*
X314304Y969811D01*
X314310Y969812D01*
X314413Y969867D01*
X314517Y969920D01*
X314522Y969925D01*
X314527Y969928D01*
X314608Y970013D01*
X314690Y970096D01*
X314693Y970102D01*
X314697Y970106D01*
X314705Y970123D01*
X314771Y970243D01*
X314827Y970380D01*
X317400Y972953D01*
X320761Y974345D01*
X339639Y974345D01*
X343000Y972953D01*
X344140Y971813D01*
X344198Y971771D01*
X344250Y971722D01*
X344297Y971700D01*
X344339Y971669D01*
X344408Y971648D01*
X344473Y971618D01*
X344525Y971612D01*
X344575Y971597D01*
X344646Y971599D01*
X344717Y971591D01*
X344768Y971602D01*
X344820Y971603D01*
X344888Y971628D01*
X344958Y971643D01*
X345003Y971670D01*
X345051Y971688D01*
X345107Y971733D01*
X345169Y971769D01*
X345203Y971809D01*
X345243Y971841D01*
X345282Y971902D01*
X345329Y971956D01*
X345348Y972005D01*
X345376Y972048D01*
X345394Y972118D01*
X345421Y972184D01*
X345429Y972256D01*
X345437Y972287D01*
X345435Y972310D01*
X345439Y972351D01*
X345439Y979675D01*
X345436Y979695D01*
X345438Y979715D01*
X345416Y979816D01*
X345400Y979918D01*
X345390Y979935D01*
X345386Y979955D01*
X345333Y980044D01*
X345284Y980135D01*
X345270Y980149D01*
X345260Y980166D01*
X345181Y980233D01*
X345106Y980304D01*
X345088Y980313D01*
X345073Y980326D01*
X344977Y980364D01*
X344883Y980408D01*
X344863Y980410D01*
X344845Y980418D01*
X344678Y980436D01*
X10922Y980342D01*
X10902Y980339D01*
X10883Y980341D01*
X10781Y980319D01*
X10679Y980303D01*
X10662Y980293D01*
X10642Y980289D01*
X10553Y980236D01*
X10462Y980187D01*
X10448Y980173D01*
X10431Y980163D01*
X10364Y980084D01*
X10292Y980009D01*
X10284Y979991D01*
X10271Y979976D01*
X10232Y979880D01*
X10189Y979786D01*
X10187Y979766D01*
X10179Y979748D01*
X10161Y979581D01*
X10161Y268868D01*
X10163Y268856D01*
X10161Y268844D01*
X10182Y268735D01*
X10200Y268625D01*
X10206Y268614D01*
X10208Y268603D01*
X10264Y268506D01*
X10316Y268408D01*
X10324Y268399D01*
X10330Y268389D01*
X10413Y268315D01*
X10494Y268238D01*
X10505Y268233D01*
X10514Y268225D01*
X10616Y268181D01*
X10717Y268135D01*
X10729Y268133D01*
X10740Y268128D01*
X10851Y268120D01*
X10961Y268107D01*
X10973Y268110D01*
X10985Y268109D01*
X11093Y268136D01*
X11202Y268160D01*
X11212Y268166D01*
X11224Y268169D01*
X11369Y268252D01*
X12455Y269040D01*
X13880Y269766D01*
X15401Y270261D01*
X16980Y270511D01*
X23877Y270511D01*
X23877Y261112D01*
X23880Y261092D01*
X23878Y261073D01*
X23900Y260971D01*
X23917Y260869D01*
X23926Y260852D01*
X23930Y260832D01*
X23983Y260743D01*
X24032Y260652D01*
X24046Y260638D01*
X24056Y260621D01*
X24135Y260554D01*
X24210Y260483D01*
X24228Y260474D01*
X24243Y260461D01*
X24339Y260423D01*
X24433Y260379D01*
X24453Y260377D01*
X24471Y260369D01*
X24638Y260351D01*
X25401Y260351D01*
X25401Y260349D01*
X24638Y260349D01*
X24618Y260346D01*
X24599Y260348D01*
X24497Y260326D01*
X24395Y260309D01*
X24378Y260300D01*
X24358Y260296D01*
X24269Y260243D01*
X24178Y260194D01*
X24164Y260180D01*
X24147Y260170D01*
X24080Y260091D01*
X24009Y260016D01*
X24000Y259998D01*
X23987Y259983D01*
X23948Y259887D01*
X23905Y259793D01*
X23903Y259773D01*
X23895Y259755D01*
X23877Y259588D01*
X23877Y250189D01*
X16980Y250189D01*
X15401Y250439D01*
X13880Y250934D01*
X12455Y251660D01*
X11369Y252448D01*
X11359Y252454D01*
X11350Y252462D01*
X11249Y252509D01*
X11150Y252559D01*
X11138Y252560D01*
X11127Y252565D01*
X11016Y252578D01*
X10906Y252593D01*
X10894Y252591D01*
X10883Y252593D01*
X10774Y252569D01*
X10664Y252549D01*
X10654Y252543D01*
X10642Y252540D01*
X10546Y252483D01*
X10449Y252429D01*
X10441Y252420D01*
X10431Y252414D01*
X10359Y252329D01*
X10284Y252247D01*
X10279Y252236D01*
X10271Y252227D01*
X10229Y252124D01*
X10185Y252022D01*
X10184Y252010D01*
X10179Y251999D01*
X10161Y251832D01*
X10161Y242101D01*
X10172Y242030D01*
X10174Y241959D01*
X10192Y241910D01*
X10200Y241858D01*
X10234Y241795D01*
X10259Y241728D01*
X10291Y241687D01*
X10316Y241641D01*
X10368Y241592D01*
X10412Y241536D01*
X10456Y241507D01*
X10494Y241472D01*
X10559Y241441D01*
X10619Y241403D01*
X10670Y241390D01*
X10717Y241368D01*
X10788Y241360D01*
X10858Y241343D01*
X10910Y241347D01*
X10961Y241341D01*
X11032Y241356D01*
X11103Y241362D01*
X11151Y241382D01*
X11202Y241393D01*
X11263Y241430D01*
X11329Y241458D01*
X11385Y241503D01*
X11413Y241519D01*
X11428Y241537D01*
X11460Y241563D01*
X12600Y242703D01*
X15961Y244095D01*
X34839Y244095D01*
X38200Y242703D01*
X40773Y240130D01*
X42165Y236769D01*
X42165Y233131D01*
X40773Y229770D01*
X38200Y227197D01*
X34839Y225805D01*
X15961Y225805D01*
X12600Y227197D01*
X11460Y228337D01*
X11402Y228379D01*
X11350Y228428D01*
X11303Y228450D01*
X11261Y228481D01*
X11192Y228502D01*
X11127Y228532D01*
X11075Y228538D01*
X11025Y228553D01*
X10954Y228551D01*
X10883Y228559D01*
X10832Y228548D01*
X10780Y228547D01*
X10712Y228522D01*
X10642Y228507D01*
X10597Y228480D01*
X10549Y228462D01*
X10493Y228417D01*
X10431Y228381D01*
X10397Y228341D01*
X10357Y228309D01*
X10318Y228248D01*
X10271Y228194D01*
X10252Y228145D01*
X10224Y228102D01*
X10206Y228032D01*
X10179Y227966D01*
X10171Y227894D01*
X10163Y227863D01*
X10165Y227840D01*
X10161Y227799D01*
X10161Y216701D01*
X10172Y216630D01*
X10174Y216559D01*
X10192Y216510D01*
X10200Y216458D01*
X10234Y216395D01*
X10259Y216328D01*
X10291Y216287D01*
X10316Y216241D01*
X10368Y216192D01*
X10412Y216136D01*
X10456Y216107D01*
X10494Y216072D01*
X10559Y216041D01*
X10619Y216003D01*
X10670Y215990D01*
X10717Y215968D01*
X10788Y215960D01*
X10858Y215943D01*
X10910Y215947D01*
X10961Y215941D01*
X11032Y215956D01*
X11103Y215962D01*
X11151Y215982D01*
X11202Y215993D01*
X11263Y216030D01*
X11329Y216058D01*
X11385Y216103D01*
X11413Y216119D01*
X11428Y216137D01*
X11460Y216163D01*
X12600Y217303D01*
X15961Y218695D01*
X34839Y218695D01*
X38200Y217303D01*
X40773Y214730D01*
X42165Y211369D01*
X42165Y207731D01*
X40773Y204370D01*
X38200Y201797D01*
X34839Y200405D01*
X15961Y200405D01*
X12600Y201797D01*
X11460Y202937D01*
X11402Y202979D01*
X11350Y203028D01*
X11303Y203050D01*
X11261Y203081D01*
X11192Y203102D01*
X11127Y203132D01*
X11075Y203138D01*
X11025Y203153D01*
X10954Y203151D01*
X10883Y203159D01*
X10832Y203148D01*
X10780Y203147D01*
X10712Y203122D01*
X10642Y203107D01*
X10597Y203080D01*
X10549Y203062D01*
X10493Y203017D01*
X10431Y202981D01*
X10397Y202941D01*
X10357Y202909D01*
X10318Y202848D01*
X10271Y202794D01*
X10252Y202745D01*
X10224Y202702D01*
X10206Y202632D01*
X10179Y202566D01*
X10171Y202494D01*
X10163Y202463D01*
X10165Y202440D01*
X10161Y202399D01*
X10161Y191301D01*
X10172Y191230D01*
X10174Y191159D01*
X10192Y191110D01*
X10200Y191058D01*
X10234Y190995D01*
X10259Y190928D01*
X10291Y190887D01*
X10316Y190841D01*
X10368Y190792D01*
X10412Y190736D01*
X10456Y190707D01*
X10494Y190672D01*
X10559Y190641D01*
X10619Y190603D01*
X10670Y190590D01*
X10717Y190568D01*
X10788Y190560D01*
X10858Y190543D01*
X10910Y190547D01*
X10961Y190541D01*
X11032Y190556D01*
X11103Y190562D01*
X11151Y190582D01*
X11202Y190593D01*
X11263Y190630D01*
X11329Y190658D01*
X11385Y190703D01*
X11413Y190719D01*
X11428Y190737D01*
X11460Y190763D01*
X12600Y191903D01*
X15961Y193295D01*
X34839Y193295D01*
X38200Y191903D01*
X40773Y189330D01*
X42165Y185969D01*
X42165Y182331D01*
X40773Y178970D01*
X38200Y176397D01*
X34839Y175005D01*
X15961Y175005D01*
X12600Y176397D01*
X11460Y177537D01*
X11402Y177579D01*
X11350Y177628D01*
X11303Y177650D01*
X11261Y177681D01*
X11192Y177702D01*
X11127Y177732D01*
X11075Y177738D01*
X11025Y177753D01*
X10954Y177751D01*
X10883Y177759D01*
X10832Y177748D01*
X10780Y177747D01*
X10712Y177722D01*
X10642Y177707D01*
X10597Y177680D01*
X10549Y177662D01*
X10493Y177617D01*
X10431Y177581D01*
X10397Y177541D01*
X10357Y177509D01*
X10318Y177448D01*
X10271Y177394D01*
X10252Y177345D01*
X10224Y177302D01*
X10206Y177232D01*
X10179Y177166D01*
X10171Y177094D01*
X10163Y177063D01*
X10165Y177040D01*
X10161Y176999D01*
X10161Y165901D01*
X10172Y165830D01*
X10174Y165759D01*
X10192Y165710D01*
X10200Y165658D01*
X10234Y165595D01*
X10259Y165528D01*
X10291Y165487D01*
X10316Y165441D01*
X10368Y165392D01*
X10412Y165336D01*
X10456Y165307D01*
X10494Y165272D01*
X10559Y165241D01*
X10619Y165203D01*
X10670Y165190D01*
X10717Y165168D01*
X10788Y165160D01*
X10858Y165143D01*
X10910Y165147D01*
X10961Y165141D01*
X11032Y165156D01*
X11103Y165162D01*
X11151Y165182D01*
X11202Y165193D01*
X11263Y165230D01*
X11329Y165258D01*
X11385Y165303D01*
X11413Y165319D01*
X11428Y165337D01*
X11460Y165363D01*
X12600Y166503D01*
X15961Y167895D01*
X34839Y167895D01*
X38200Y166503D01*
X40773Y163930D01*
X41250Y162777D01*
X41312Y162677D01*
X41372Y162577D01*
X41377Y162573D01*
X41380Y162568D01*
X41470Y162493D01*
X41559Y162417D01*
X41565Y162415D01*
X41569Y162411D01*
X41678Y162369D01*
X41787Y162325D01*
X41794Y162324D01*
X41799Y162323D01*
X41817Y162322D01*
X41954Y162307D01*
X49011Y162307D01*
X49102Y162321D01*
X49192Y162329D01*
X49222Y162341D01*
X49254Y162346D01*
X49335Y162389D01*
X49419Y162425D01*
X49451Y162451D01*
X49472Y162462D01*
X49494Y162485D01*
X49550Y162530D01*
X59720Y172700D01*
X59773Y172774D01*
X59833Y172844D01*
X59845Y172874D01*
X59864Y172900D01*
X59891Y172987D01*
X59925Y173072D01*
X59929Y173113D01*
X59936Y173135D01*
X59935Y173167D01*
X59943Y173239D01*
X59943Y449061D01*
X59929Y449152D01*
X59921Y449242D01*
X59909Y449272D01*
X59904Y449304D01*
X59861Y449385D01*
X59825Y449469D01*
X59799Y449501D01*
X59788Y449522D01*
X59765Y449544D01*
X59720Y449600D01*
X47243Y462077D01*
X47243Y578573D01*
X47232Y578644D01*
X47230Y578715D01*
X47212Y578764D01*
X47204Y578816D01*
X47170Y578879D01*
X47145Y578946D01*
X47113Y578987D01*
X47088Y579033D01*
X47036Y579082D01*
X46992Y579138D01*
X46948Y579167D01*
X46910Y579202D01*
X46845Y579233D01*
X46785Y579271D01*
X46734Y579284D01*
X46687Y579306D01*
X46616Y579314D01*
X46546Y579331D01*
X46494Y579327D01*
X46443Y579333D01*
X46372Y579318D01*
X46301Y579312D01*
X46253Y579292D01*
X46202Y579281D01*
X46141Y579244D01*
X46075Y579216D01*
X46019Y579171D01*
X45991Y579155D01*
X45976Y579137D01*
X45944Y579111D01*
X41888Y575055D01*
X39623Y575055D01*
X39623Y583438D01*
X39620Y583458D01*
X39622Y583477D01*
X39600Y583579D01*
X39583Y583681D01*
X39574Y583698D01*
X39570Y583718D01*
X39517Y583807D01*
X39468Y583898D01*
X39454Y583912D01*
X39444Y583929D01*
X39365Y583996D01*
X39290Y584067D01*
X39272Y584076D01*
X39257Y584089D01*
X39161Y584127D01*
X39067Y584171D01*
X39047Y584173D01*
X39029Y584181D01*
X38862Y584199D01*
X38099Y584199D01*
X38099Y584201D01*
X38862Y584201D01*
X38882Y584204D01*
X38901Y584202D01*
X39003Y584224D01*
X39105Y584241D01*
X39122Y584250D01*
X39142Y584254D01*
X39231Y584307D01*
X39322Y584356D01*
X39336Y584370D01*
X39353Y584380D01*
X39420Y584459D01*
X39491Y584534D01*
X39500Y584552D01*
X39513Y584567D01*
X39552Y584663D01*
X39595Y584757D01*
X39597Y584777D01*
X39605Y584795D01*
X39623Y584962D01*
X39623Y593345D01*
X41888Y593345D01*
X45944Y589289D01*
X46002Y589247D01*
X46054Y589198D01*
X46101Y589176D01*
X46143Y589145D01*
X46212Y589124D01*
X46277Y589094D01*
X46329Y589088D01*
X46379Y589073D01*
X46450Y589075D01*
X46521Y589067D01*
X46572Y589078D01*
X46624Y589079D01*
X46692Y589104D01*
X46762Y589119D01*
X46807Y589146D01*
X46855Y589164D01*
X46911Y589209D01*
X46973Y589245D01*
X47007Y589285D01*
X47047Y589317D01*
X47086Y589378D01*
X47133Y589432D01*
X47152Y589481D01*
X47180Y589524D01*
X47198Y589594D01*
X47225Y589660D01*
X47233Y589732D01*
X47241Y589763D01*
X47239Y589786D01*
X47243Y589827D01*
X47243Y655523D01*
X49550Y657830D01*
X59720Y668000D01*
X59773Y668074D01*
X59833Y668144D01*
X59845Y668174D01*
X59864Y668200D01*
X59891Y668287D01*
X59925Y668372D01*
X59929Y668413D01*
X59936Y668435D01*
X59935Y668467D01*
X59943Y668539D01*
X59943Y859337D01*
X59929Y859427D01*
X59921Y859518D01*
X59909Y859547D01*
X59904Y859579D01*
X59861Y859660D01*
X59825Y859744D01*
X59799Y859776D01*
X59788Y859797D01*
X59765Y859819D01*
X59720Y859875D01*
X58193Y861402D01*
X58193Y865798D01*
X61302Y868907D01*
X65698Y868907D01*
X68807Y865798D01*
X68807Y861402D01*
X67280Y859875D01*
X67227Y859801D01*
X67167Y859731D01*
X67155Y859701D01*
X67136Y859675D01*
X67109Y859588D01*
X67075Y859503D01*
X67071Y859462D01*
X67064Y859440D01*
X67065Y859408D01*
X67057Y859337D01*
X67057Y665277D01*
X54580Y652800D01*
X54527Y652726D01*
X54467Y652656D01*
X54455Y652626D01*
X54436Y652600D01*
X54409Y652513D01*
X54375Y652428D01*
X54371Y652387D01*
X54364Y652365D01*
X54365Y652333D01*
X54357Y652261D01*
X54357Y465339D01*
X54371Y465248D01*
X54379Y465158D01*
X54391Y465128D01*
X54396Y465096D01*
X54439Y465015D01*
X54475Y464931D01*
X54501Y464899D01*
X54512Y464878D01*
X54535Y464856D01*
X54580Y464800D01*
X67057Y452323D01*
X67057Y169977D01*
X52273Y155193D01*
X41954Y155193D01*
X41839Y155174D01*
X41723Y155157D01*
X41717Y155155D01*
X41711Y155154D01*
X41608Y155099D01*
X41503Y155046D01*
X41499Y155041D01*
X41493Y155038D01*
X41414Y154954D01*
X41331Y154870D01*
X41328Y154864D01*
X41324Y154860D01*
X41316Y154843D01*
X41250Y154723D01*
X40773Y153570D01*
X38200Y150997D01*
X34839Y149605D01*
X15961Y149605D01*
X12600Y150997D01*
X11460Y152137D01*
X11402Y152179D01*
X11350Y152228D01*
X11303Y152250D01*
X11261Y152281D01*
X11192Y152302D01*
X11127Y152332D01*
X11075Y152338D01*
X11025Y152353D01*
X10954Y152351D01*
X10883Y152359D01*
X10832Y152348D01*
X10780Y152347D01*
X10712Y152322D01*
X10642Y152307D01*
X10597Y152280D01*
X10549Y152262D01*
X10493Y152217D01*
X10431Y152181D01*
X10397Y152141D01*
X10357Y152109D01*
X10318Y152048D01*
X10271Y151994D01*
X10252Y151945D01*
X10224Y151902D01*
X10206Y151832D01*
X10179Y151766D01*
X10171Y151694D01*
X10163Y151663D01*
X10165Y151640D01*
X10161Y151599D01*
X10161Y10922D01*
X10164Y10902D01*
X10162Y10883D01*
X10184Y10781D01*
X10200Y10679D01*
X10210Y10662D01*
X10214Y10642D01*
X10267Y10553D01*
X10316Y10462D01*
X10330Y10448D01*
X10340Y10431D01*
X10419Y10364D01*
X10494Y10292D01*
X10512Y10284D01*
X10527Y10271D01*
X10623Y10232D01*
X10717Y10189D01*
X10737Y10187D01*
X10755Y10179D01*
X10922Y10161D01*
X344678Y10161D01*
X344698Y10164D01*
G37*
%LPC*%
G36*
X225023Y29463D02*
X225023Y29463D01*
X219963Y34523D01*
X219963Y41677D01*
X223804Y45518D01*
X223857Y45592D01*
X223917Y45662D01*
X223929Y45692D01*
X223948Y45718D01*
X223975Y45805D01*
X224009Y45890D01*
X224013Y45931D01*
X224020Y45953D01*
X224019Y45985D01*
X224027Y46057D01*
X224027Y55543D01*
X224013Y55633D01*
X224005Y55724D01*
X223993Y55754D01*
X223988Y55786D01*
X223945Y55867D01*
X223909Y55951D01*
X223883Y55983D01*
X223872Y56003D01*
X223849Y56026D01*
X223804Y56082D01*
X219963Y59923D01*
X219963Y67077D01*
X223804Y70918D01*
X223857Y70992D01*
X223917Y71062D01*
X223929Y71092D01*
X223948Y71118D01*
X223975Y71205D01*
X224009Y71290D01*
X224013Y71331D01*
X224020Y71353D01*
X224019Y71385D01*
X224027Y71457D01*
X224027Y86691D01*
X224013Y86781D01*
X224005Y86872D01*
X223993Y86901D01*
X223988Y86933D01*
X223945Y87014D01*
X223909Y87098D01*
X223883Y87130D01*
X223872Y87151D01*
X223849Y87173D01*
X223804Y87229D01*
X185927Y125106D01*
X185927Y403153D01*
X185913Y403243D01*
X185905Y403334D01*
X185893Y403363D01*
X185888Y403395D01*
X185845Y403476D01*
X185809Y403560D01*
X185783Y403592D01*
X185772Y403613D01*
X185749Y403635D01*
X185704Y403691D01*
X185193Y404202D01*
X185193Y408598D01*
X185704Y409109D01*
X185757Y409183D01*
X185817Y409253D01*
X185829Y409283D01*
X185848Y409309D01*
X185875Y409396D01*
X185909Y409481D01*
X185913Y409522D01*
X185920Y409544D01*
X185919Y409576D01*
X185927Y409647D01*
X185927Y593653D01*
X185913Y593743D01*
X185905Y593834D01*
X185893Y593863D01*
X185888Y593895D01*
X185845Y593976D01*
X185809Y594060D01*
X185783Y594092D01*
X185772Y594113D01*
X185749Y594135D01*
X185704Y594191D01*
X185193Y594702D01*
X185193Y599098D01*
X185704Y599609D01*
X185749Y599671D01*
X185778Y599701D01*
X185783Y599713D01*
X185817Y599753D01*
X185829Y599783D01*
X185848Y599809D01*
X185875Y599896D01*
X185909Y599981D01*
X185913Y600022D01*
X185920Y600044D01*
X185919Y600076D01*
X185927Y600147D01*
X185927Y801994D01*
X201306Y817373D01*
X203419Y817373D01*
X203509Y817387D01*
X203600Y817395D01*
X203630Y817407D01*
X203662Y817412D01*
X203743Y817455D01*
X203827Y817491D01*
X203859Y817517D01*
X203879Y817528D01*
X203902Y817551D01*
X203958Y817596D01*
X205575Y819213D01*
X208355Y820365D01*
X223445Y820365D01*
X226225Y819213D01*
X227842Y817596D01*
X227916Y817543D01*
X227986Y817483D01*
X228016Y817471D01*
X228042Y817452D01*
X228129Y817425D01*
X228214Y817391D01*
X228255Y817387D01*
X228277Y817380D01*
X228309Y817381D01*
X228381Y817373D01*
X246762Y817373D01*
X246852Y817387D01*
X246943Y817395D01*
X246972Y817407D01*
X247004Y817412D01*
X247085Y817455D01*
X247169Y817491D01*
X247201Y817517D01*
X247222Y817528D01*
X247244Y817551D01*
X247300Y817596D01*
X250633Y820929D01*
X257367Y820929D01*
X262129Y816167D01*
X262129Y809433D01*
X257367Y804671D01*
X250633Y804671D01*
X247300Y808004D01*
X247226Y808057D01*
X247157Y808117D01*
X247126Y808129D01*
X247100Y808148D01*
X247013Y808175D01*
X246928Y808209D01*
X246887Y808213D01*
X246865Y808220D01*
X246833Y808219D01*
X246762Y808227D01*
X228381Y808227D01*
X228291Y808213D01*
X228200Y808205D01*
X228170Y808193D01*
X228138Y808188D01*
X228057Y808145D01*
X227973Y808109D01*
X227941Y808083D01*
X227921Y808072D01*
X227898Y808049D01*
X227842Y808004D01*
X226225Y806387D01*
X223445Y805235D01*
X208355Y805235D01*
X205575Y806387D01*
X204953Y807009D01*
X204936Y807021D01*
X204924Y807036D01*
X204837Y807093D01*
X204753Y807153D01*
X204734Y807159D01*
X204717Y807169D01*
X204617Y807195D01*
X204518Y807225D01*
X204498Y807225D01*
X204479Y807229D01*
X204376Y807221D01*
X204272Y807219D01*
X204253Y807212D01*
X204233Y807210D01*
X204139Y807170D01*
X204041Y807134D01*
X204025Y807122D01*
X204007Y807114D01*
X203876Y807009D01*
X195296Y798429D01*
X195243Y798355D01*
X195183Y798285D01*
X195171Y798255D01*
X195152Y798229D01*
X195125Y798142D01*
X195091Y798057D01*
X195087Y798016D01*
X195080Y797994D01*
X195081Y797962D01*
X195073Y797891D01*
X195073Y600147D01*
X195087Y600057D01*
X195095Y599966D01*
X195107Y599937D01*
X195112Y599905D01*
X195155Y599824D01*
X195191Y599740D01*
X195217Y599708D01*
X195228Y599687D01*
X195251Y599665D01*
X195264Y599648D01*
X195270Y599639D01*
X195276Y599633D01*
X195296Y599609D01*
X195807Y599098D01*
X195807Y594702D01*
X195296Y594191D01*
X195243Y594117D01*
X195183Y594047D01*
X195171Y594017D01*
X195152Y593991D01*
X195125Y593904D01*
X195091Y593819D01*
X195087Y593778D01*
X195080Y593756D01*
X195081Y593724D01*
X195073Y593653D01*
X195073Y409647D01*
X195087Y409557D01*
X195095Y409466D01*
X195107Y409437D01*
X195112Y409405D01*
X195155Y409324D01*
X195191Y409240D01*
X195217Y409208D01*
X195228Y409187D01*
X195251Y409165D01*
X195296Y409109D01*
X195807Y408598D01*
X195807Y404202D01*
X195296Y403691D01*
X195243Y403617D01*
X195183Y403547D01*
X195171Y403517D01*
X195152Y403491D01*
X195125Y403404D01*
X195091Y403319D01*
X195087Y403278D01*
X195080Y403256D01*
X195081Y403224D01*
X195073Y403153D01*
X195073Y129209D01*
X195087Y129119D01*
X195095Y129028D01*
X195107Y128999D01*
X195112Y128967D01*
X195155Y128886D01*
X195191Y128802D01*
X195217Y128770D01*
X195228Y128749D01*
X195251Y128727D01*
X195296Y128671D01*
X233173Y90794D01*
X233173Y71457D01*
X233187Y71367D01*
X233195Y71276D01*
X233207Y71246D01*
X233212Y71214D01*
X233255Y71133D01*
X233291Y71049D01*
X233317Y71017D01*
X233328Y70997D01*
X233351Y70974D01*
X233396Y70918D01*
X237237Y67077D01*
X237237Y59923D01*
X233986Y56672D01*
X233945Y56614D01*
X233895Y56562D01*
X233873Y56515D01*
X233843Y56473D01*
X233822Y56404D01*
X233792Y56339D01*
X233786Y56287D01*
X233771Y56237D01*
X233772Y56166D01*
X233764Y56095D01*
X233776Y56044D01*
X233777Y55992D01*
X233802Y55924D01*
X233817Y55854D01*
X233843Y55809D01*
X233861Y55761D01*
X233906Y55705D01*
X233943Y55643D01*
X233982Y55609D01*
X234015Y55569D01*
X234075Y55530D01*
X234130Y55483D01*
X234178Y55464D01*
X234222Y55436D01*
X234291Y55418D01*
X234358Y55391D01*
X234429Y55383D01*
X234460Y55375D01*
X234484Y55377D01*
X234525Y55373D01*
X295586Y55373D01*
X295676Y55387D01*
X295767Y55395D01*
X295797Y55407D01*
X295829Y55412D01*
X295909Y55455D01*
X295993Y55491D01*
X296025Y55517D01*
X296046Y55528D01*
X296068Y55551D01*
X296124Y55596D01*
X300854Y60326D01*
X308746Y60326D01*
X314326Y54746D01*
X314326Y46854D01*
X308746Y41274D01*
X300854Y41274D01*
X296124Y46004D01*
X296050Y46057D01*
X295981Y46117D01*
X295951Y46129D01*
X295925Y46148D01*
X295838Y46175D01*
X295753Y46209D01*
X295712Y46213D01*
X295689Y46220D01*
X295657Y46219D01*
X295586Y46227D01*
X234525Y46227D01*
X234454Y46216D01*
X234382Y46214D01*
X234333Y46196D01*
X234282Y46188D01*
X234219Y46154D01*
X234151Y46129D01*
X234111Y46097D01*
X234065Y46072D01*
X234015Y46020D01*
X233959Y45976D01*
X233931Y45932D01*
X233895Y45894D01*
X233865Y45829D01*
X233826Y45769D01*
X233813Y45718D01*
X233792Y45671D01*
X233784Y45600D01*
X233766Y45530D01*
X233770Y45478D01*
X233764Y45427D01*
X233780Y45356D01*
X233785Y45285D01*
X233806Y45237D01*
X233817Y45186D01*
X233854Y45125D01*
X233882Y45059D01*
X233926Y45003D01*
X233943Y44975D01*
X233961Y44960D01*
X233986Y44928D01*
X237237Y41677D01*
X237237Y34523D01*
X232177Y29463D01*
X225023Y29463D01*
G37*
%LPD*%
%LPC*%
G36*
X112102Y350293D02*
X112102Y350293D01*
X108993Y353402D01*
X108993Y357798D01*
X110520Y359325D01*
X110573Y359399D01*
X110633Y359469D01*
X110645Y359499D01*
X110664Y359525D01*
X110691Y359612D01*
X110725Y359697D01*
X110729Y359738D01*
X110736Y359760D01*
X110735Y359792D01*
X110743Y359863D01*
X110743Y364110D01*
X110732Y364180D01*
X110730Y364252D01*
X110712Y364301D01*
X110704Y364352D01*
X110670Y364416D01*
X110645Y364483D01*
X110613Y364524D01*
X110588Y364570D01*
X110536Y364619D01*
X110492Y364675D01*
X110448Y364703D01*
X110410Y364739D01*
X110345Y364769D01*
X110285Y364808D01*
X110234Y364821D01*
X110187Y364843D01*
X110116Y364851D01*
X110046Y364868D01*
X109994Y364864D01*
X109943Y364870D01*
X109872Y364855D01*
X109801Y364849D01*
X109753Y364829D01*
X109702Y364818D01*
X109641Y364781D01*
X109575Y364753D01*
X109519Y364708D01*
X109491Y364691D01*
X109476Y364674D01*
X109444Y364648D01*
X104967Y360171D01*
X98233Y360171D01*
X93884Y364520D01*
X93810Y364573D01*
X93741Y364633D01*
X93710Y364645D01*
X93684Y364664D01*
X93597Y364691D01*
X93512Y364725D01*
X93471Y364729D01*
X93449Y364736D01*
X93417Y364735D01*
X93346Y364743D01*
X87427Y364743D01*
X72643Y379527D01*
X72643Y455411D01*
X72629Y455502D01*
X72621Y455592D01*
X72609Y455622D01*
X72604Y455654D01*
X72561Y455735D01*
X72525Y455819D01*
X72499Y455851D01*
X72488Y455872D01*
X72465Y455894D01*
X72420Y455950D01*
X59943Y468427D01*
X59943Y611687D01*
X59929Y611777D01*
X59921Y611868D01*
X59909Y611897D01*
X59904Y611929D01*
X59861Y612010D01*
X59825Y612094D01*
X59799Y612126D01*
X59788Y612147D01*
X59765Y612169D01*
X59720Y612225D01*
X58193Y613752D01*
X58193Y618148D01*
X61302Y621257D01*
X65698Y621257D01*
X68807Y618148D01*
X68807Y613752D01*
X67280Y612225D01*
X67227Y612151D01*
X67167Y612081D01*
X67155Y612051D01*
X67136Y612025D01*
X67109Y611938D01*
X67075Y611853D01*
X67071Y611812D01*
X67064Y611790D01*
X67065Y611758D01*
X67057Y611687D01*
X67057Y471689D01*
X67071Y471598D01*
X67079Y471508D01*
X67091Y471478D01*
X67096Y471446D01*
X67139Y471365D01*
X67175Y471281D01*
X67201Y471249D01*
X67212Y471228D01*
X67235Y471206D01*
X67280Y471150D01*
X79757Y458673D01*
X79757Y382789D01*
X79771Y382698D01*
X79779Y382608D01*
X79791Y382578D01*
X79796Y382546D01*
X79839Y382465D01*
X79875Y382381D01*
X79901Y382349D01*
X79912Y382328D01*
X79935Y382306D01*
X79980Y382250D01*
X90150Y372080D01*
X90224Y372027D01*
X90294Y371967D01*
X90324Y371955D01*
X90350Y371936D01*
X90437Y371909D01*
X90522Y371875D01*
X90563Y371871D01*
X90585Y371864D01*
X90617Y371865D01*
X90689Y371857D01*
X93346Y371857D01*
X93436Y371871D01*
X93527Y371879D01*
X93556Y371891D01*
X93588Y371896D01*
X93669Y371939D01*
X93753Y371975D01*
X93785Y372001D01*
X93806Y372012D01*
X93828Y372035D01*
X93884Y372080D01*
X98233Y376429D01*
X104967Y376429D01*
X109444Y371952D01*
X109502Y371910D01*
X109554Y371861D01*
X109601Y371839D01*
X109643Y371808D01*
X109712Y371787D01*
X109777Y371757D01*
X109829Y371751D01*
X109879Y371736D01*
X109950Y371738D01*
X110021Y371730D01*
X110072Y371741D01*
X110124Y371742D01*
X110192Y371767D01*
X110262Y371782D01*
X110307Y371809D01*
X110355Y371827D01*
X110411Y371872D01*
X110473Y371909D01*
X110507Y371948D01*
X110547Y371981D01*
X110586Y372041D01*
X110633Y372095D01*
X110652Y372144D01*
X110680Y372188D01*
X110698Y372257D01*
X110725Y372324D01*
X110733Y372395D01*
X110741Y372426D01*
X110739Y372449D01*
X110743Y372490D01*
X110743Y414910D01*
X110732Y414980D01*
X110730Y415052D01*
X110712Y415101D01*
X110704Y415152D01*
X110670Y415216D01*
X110645Y415283D01*
X110613Y415324D01*
X110588Y415370D01*
X110536Y415419D01*
X110492Y415475D01*
X110448Y415503D01*
X110410Y415539D01*
X110345Y415569D01*
X110285Y415608D01*
X110234Y415621D01*
X110187Y415643D01*
X110116Y415651D01*
X110046Y415668D01*
X109994Y415664D01*
X109943Y415670D01*
X109872Y415655D01*
X109801Y415649D01*
X109753Y415629D01*
X109702Y415618D01*
X109641Y415581D01*
X109575Y415553D01*
X109519Y415508D01*
X109491Y415491D01*
X109476Y415474D01*
X109444Y415448D01*
X104967Y410971D01*
X98233Y410971D01*
X93471Y415733D01*
X93471Y422467D01*
X98233Y427229D01*
X104967Y427229D01*
X109444Y422752D01*
X109502Y422710D01*
X109554Y422661D01*
X109601Y422639D01*
X109643Y422608D01*
X109712Y422587D01*
X109777Y422557D01*
X109829Y422551D01*
X109879Y422536D01*
X109950Y422538D01*
X110021Y422530D01*
X110072Y422541D01*
X110124Y422542D01*
X110192Y422567D01*
X110262Y422582D01*
X110307Y422609D01*
X110355Y422627D01*
X110411Y422672D01*
X110473Y422709D01*
X110507Y422748D01*
X110547Y422781D01*
X110586Y422841D01*
X110633Y422895D01*
X110652Y422944D01*
X110680Y422988D01*
X110698Y423057D01*
X110725Y423124D01*
X110733Y423195D01*
X110741Y423226D01*
X110739Y423249D01*
X110743Y423290D01*
X110743Y588761D01*
X110729Y588852D01*
X110721Y588942D01*
X110709Y588972D01*
X110704Y589004D01*
X110661Y589085D01*
X110625Y589169D01*
X110599Y589201D01*
X110588Y589222D01*
X110565Y589244D01*
X110520Y589300D01*
X85343Y614477D01*
X85343Y674573D01*
X93248Y682478D01*
X93301Y682552D01*
X93361Y682622D01*
X93373Y682652D01*
X93392Y682678D01*
X93419Y682765D01*
X93453Y682850D01*
X93457Y682891D01*
X93464Y682913D01*
X93463Y682945D01*
X93471Y683017D01*
X93471Y689167D01*
X97820Y693516D01*
X97873Y693590D01*
X97933Y693659D01*
X97945Y693690D01*
X97964Y693716D01*
X97991Y693803D01*
X98025Y693888D01*
X98029Y693929D01*
X98036Y693951D01*
X98035Y693983D01*
X98043Y694054D01*
X98043Y702310D01*
X98040Y702330D01*
X98042Y702349D01*
X98020Y702451D01*
X98004Y702553D01*
X97994Y702570D01*
X97990Y702590D01*
X97937Y702679D01*
X97888Y702770D01*
X97874Y702784D01*
X97864Y702801D01*
X97785Y702868D01*
X97710Y702940D01*
X97692Y702948D01*
X97677Y702961D01*
X97581Y703000D01*
X97487Y703043D01*
X97467Y703045D01*
X97449Y703053D01*
X97282Y703071D01*
X94364Y703071D01*
X93471Y703964D01*
X93471Y718436D01*
X94364Y719329D01*
X108836Y719329D01*
X109729Y718436D01*
X109729Y703964D01*
X108836Y703071D01*
X105918Y703071D01*
X105898Y703068D01*
X105879Y703070D01*
X105777Y703048D01*
X105675Y703032D01*
X105658Y703022D01*
X105638Y703018D01*
X105549Y702965D01*
X105458Y702916D01*
X105444Y702902D01*
X105427Y702892D01*
X105360Y702813D01*
X105288Y702738D01*
X105280Y702720D01*
X105267Y702705D01*
X105228Y702609D01*
X105185Y702515D01*
X105183Y702495D01*
X105175Y702477D01*
X105157Y702310D01*
X105157Y694054D01*
X105171Y693964D01*
X105179Y693873D01*
X105191Y693844D01*
X105196Y693812D01*
X105239Y693731D01*
X105275Y693647D01*
X105301Y693615D01*
X105312Y693594D01*
X105335Y693572D01*
X105380Y693516D01*
X109729Y689167D01*
X109729Y682433D01*
X104967Y677671D01*
X98817Y677671D01*
X98726Y677657D01*
X98636Y677649D01*
X98606Y677637D01*
X98574Y677632D01*
X98493Y677589D01*
X98409Y677553D01*
X98377Y677527D01*
X98356Y677516D01*
X98334Y677493D01*
X98278Y677448D01*
X92680Y671850D01*
X92627Y671776D01*
X92567Y671706D01*
X92555Y671676D01*
X92536Y671650D01*
X92509Y671563D01*
X92475Y671478D01*
X92471Y671437D01*
X92464Y671415D01*
X92465Y671383D01*
X92457Y671311D01*
X92457Y664590D01*
X92468Y664520D01*
X92470Y664448D01*
X92488Y664399D01*
X92496Y664348D01*
X92530Y664284D01*
X92555Y664217D01*
X92587Y664176D01*
X92612Y664130D01*
X92664Y664081D01*
X92708Y664025D01*
X92752Y663997D01*
X92790Y663961D01*
X92855Y663931D01*
X92915Y663892D01*
X92966Y663879D01*
X93013Y663857D01*
X93084Y663849D01*
X93154Y663832D01*
X93206Y663836D01*
X93257Y663830D01*
X93328Y663845D01*
X93399Y663851D01*
X93447Y663871D01*
X93498Y663882D01*
X93559Y663919D01*
X93625Y663947D01*
X93681Y663992D01*
X93709Y664009D01*
X93724Y664026D01*
X93756Y664052D01*
X98233Y668529D01*
X104967Y668529D01*
X109316Y664180D01*
X109390Y664127D01*
X109459Y664067D01*
X109490Y664055D01*
X109516Y664036D01*
X109603Y664009D01*
X109688Y663975D01*
X109729Y663971D01*
X109751Y663964D01*
X109783Y663965D01*
X109854Y663957D01*
X125262Y663957D01*
X125377Y663976D01*
X125493Y663993D01*
X125499Y663995D01*
X125505Y663996D01*
X125607Y664051D01*
X125712Y664104D01*
X125717Y664109D01*
X125722Y664112D01*
X125802Y664196D01*
X125885Y664280D01*
X125888Y664286D01*
X125892Y664290D01*
X125899Y664307D01*
X125965Y664427D01*
X126205Y665005D01*
X128491Y667291D01*
X131479Y668529D01*
X147921Y668529D01*
X150909Y667291D01*
X153195Y665005D01*
X154433Y662017D01*
X154433Y658783D01*
X153195Y655795D01*
X150909Y653509D01*
X147921Y652271D01*
X131479Y652271D01*
X128491Y653509D01*
X126205Y655795D01*
X125965Y656373D01*
X125904Y656473D01*
X125844Y656573D01*
X125839Y656577D01*
X125836Y656582D01*
X125746Y656657D01*
X125657Y656733D01*
X125651Y656735D01*
X125646Y656739D01*
X125538Y656781D01*
X125429Y656825D01*
X125421Y656826D01*
X125417Y656827D01*
X125398Y656828D01*
X125262Y656843D01*
X109854Y656843D01*
X109764Y656829D01*
X109673Y656821D01*
X109644Y656809D01*
X109612Y656804D01*
X109531Y656761D01*
X109447Y656725D01*
X109415Y656699D01*
X109394Y656688D01*
X109372Y656665D01*
X109316Y656620D01*
X105380Y652684D01*
X105327Y652610D01*
X105267Y652541D01*
X105255Y652510D01*
X105236Y652484D01*
X105209Y652397D01*
X105175Y652312D01*
X105171Y652271D01*
X105164Y652249D01*
X105165Y652217D01*
X105157Y652146D01*
X105157Y643254D01*
X105171Y643164D01*
X105179Y643073D01*
X105191Y643044D01*
X105196Y643012D01*
X105239Y642931D01*
X105275Y642847D01*
X105301Y642815D01*
X105312Y642794D01*
X105335Y642772D01*
X105380Y642716D01*
X109729Y638367D01*
X109729Y631633D01*
X104967Y626871D01*
X98233Y626871D01*
X93756Y631348D01*
X93698Y631390D01*
X93646Y631439D01*
X93599Y631461D01*
X93557Y631492D01*
X93488Y631513D01*
X93423Y631543D01*
X93371Y631549D01*
X93321Y631564D01*
X93250Y631562D01*
X93179Y631570D01*
X93128Y631559D01*
X93076Y631558D01*
X93008Y631533D01*
X92938Y631518D01*
X92893Y631491D01*
X92845Y631473D01*
X92789Y631428D01*
X92727Y631391D01*
X92693Y631352D01*
X92653Y631319D01*
X92614Y631259D01*
X92567Y631205D01*
X92548Y631156D01*
X92520Y631112D01*
X92502Y631043D01*
X92475Y630976D01*
X92467Y630905D01*
X92459Y630874D01*
X92461Y630851D01*
X92457Y630810D01*
X92457Y617739D01*
X92471Y617648D01*
X92479Y617558D01*
X92491Y617528D01*
X92496Y617496D01*
X92539Y617415D01*
X92575Y617331D01*
X92601Y617299D01*
X92612Y617278D01*
X92635Y617256D01*
X92680Y617200D01*
X117857Y592023D01*
X117857Y359863D01*
X117871Y359773D01*
X117879Y359682D01*
X117891Y359653D01*
X117896Y359621D01*
X117939Y359540D01*
X117975Y359456D01*
X118001Y359424D01*
X118012Y359403D01*
X118035Y359381D01*
X118080Y359325D01*
X119607Y357798D01*
X119607Y353402D01*
X116498Y350293D01*
X112102Y350293D01*
G37*
%LPD*%
%LPC*%
G36*
X296252Y324893D02*
X296252Y324893D01*
X293143Y328002D01*
X293143Y332398D01*
X294670Y333925D01*
X294714Y333986D01*
X294751Y334025D01*
X294758Y334039D01*
X294783Y334069D01*
X294795Y334099D01*
X294814Y334125D01*
X294841Y334212D01*
X294875Y334297D01*
X294879Y334338D01*
X294886Y334360D01*
X294885Y334392D01*
X294893Y334463D01*
X294893Y604723D01*
X307370Y617200D01*
X307423Y617274D01*
X307483Y617344D01*
X307495Y617374D01*
X307514Y617400D01*
X307541Y617487D01*
X307575Y617572D01*
X307579Y617613D01*
X307586Y617635D01*
X307585Y617667D01*
X307593Y617739D01*
X307593Y642823D01*
X309900Y645130D01*
X321848Y657078D01*
X321901Y657152D01*
X321961Y657222D01*
X321973Y657252D01*
X321992Y657278D01*
X322019Y657365D01*
X322053Y657450D01*
X322057Y657491D01*
X322064Y657513D01*
X322063Y657545D01*
X322071Y657617D01*
X322071Y663767D01*
X326833Y668529D01*
X333567Y668529D01*
X338329Y663767D01*
X338329Y657033D01*
X333567Y652271D01*
X327417Y652271D01*
X327326Y652257D01*
X327236Y652249D01*
X327206Y652237D01*
X327174Y652232D01*
X327093Y652189D01*
X327009Y652153D01*
X326977Y652127D01*
X326956Y652116D01*
X326934Y652093D01*
X326878Y652048D01*
X314930Y640100D01*
X314877Y640026D01*
X314817Y639956D01*
X314805Y639926D01*
X314786Y639900D01*
X314759Y639813D01*
X314725Y639728D01*
X314721Y639687D01*
X314714Y639665D01*
X314715Y639633D01*
X314707Y639561D01*
X314707Y614477D01*
X302230Y602000D01*
X302177Y601926D01*
X302117Y601856D01*
X302105Y601826D01*
X302086Y601800D01*
X302059Y601713D01*
X302025Y601628D01*
X302021Y601587D01*
X302014Y601565D01*
X302015Y601533D01*
X302007Y601461D01*
X302007Y334463D01*
X302021Y334373D01*
X302029Y334282D01*
X302041Y334253D01*
X302046Y334221D01*
X302069Y334178D01*
X302070Y334173D01*
X302081Y334155D01*
X302089Y334140D01*
X302125Y334056D01*
X302151Y334024D01*
X302162Y334003D01*
X302185Y333981D01*
X302186Y333980D01*
X302196Y333962D01*
X302208Y333953D01*
X302230Y333925D01*
X303757Y332398D01*
X303757Y328002D01*
X300648Y324893D01*
X296252Y324893D01*
G37*
%LPD*%
%LPC*%
G36*
X175602Y470943D02*
X175602Y470943D01*
X172493Y474052D01*
X172493Y478448D01*
X174020Y479975D01*
X174073Y480049D01*
X174133Y480119D01*
X174145Y480149D01*
X174164Y480175D01*
X174191Y480262D01*
X174225Y480347D01*
X174229Y480388D01*
X174236Y480410D01*
X174235Y480442D01*
X174243Y480513D01*
X174243Y783137D01*
X174229Y783227D01*
X174221Y783318D01*
X174209Y783347D01*
X174204Y783379D01*
X174161Y783460D01*
X174125Y783544D01*
X174099Y783576D01*
X174088Y783597D01*
X174065Y783619D01*
X174020Y783675D01*
X172493Y785202D01*
X172493Y789598D01*
X175602Y792707D01*
X179998Y792707D01*
X183107Y789598D01*
X183107Y785202D01*
X181580Y783675D01*
X181527Y783601D01*
X181467Y783531D01*
X181455Y783501D01*
X181436Y783475D01*
X181409Y783388D01*
X181375Y783303D01*
X181371Y783262D01*
X181364Y783240D01*
X181365Y783208D01*
X181357Y783137D01*
X181357Y480513D01*
X181371Y480423D01*
X181379Y480332D01*
X181391Y480303D01*
X181396Y480271D01*
X181439Y480190D01*
X181475Y480106D01*
X181501Y480074D01*
X181512Y480053D01*
X181535Y480031D01*
X181580Y479975D01*
X183107Y478448D01*
X183107Y474052D01*
X179998Y470943D01*
X175602Y470943D01*
G37*
%LPD*%
%LPC*%
G36*
X263256Y456437D02*
X263256Y456437D01*
X256602Y458220D01*
X250636Y461665D01*
X245765Y466536D01*
X242320Y472502D01*
X240537Y479156D01*
X240537Y486044D01*
X242320Y492698D01*
X245765Y498664D01*
X250636Y503535D01*
X256602Y506980D01*
X263256Y508763D01*
X270144Y508763D01*
X276798Y506980D01*
X282764Y503535D01*
X287635Y498664D01*
X291080Y492698D01*
X292863Y486044D01*
X292863Y479156D01*
X291080Y472502D01*
X287635Y466536D01*
X282764Y461665D01*
X276798Y458220D01*
X270144Y456437D01*
X263256Y456437D01*
G37*
%LPD*%
%LPC*%
G36*
X131479Y436371D02*
X131479Y436371D01*
X128491Y437609D01*
X126205Y439895D01*
X124967Y442883D01*
X124967Y446117D01*
X126205Y449105D01*
X128491Y451391D01*
X131479Y452629D01*
X135382Y452629D01*
X135402Y452632D01*
X135421Y452630D01*
X135523Y452652D01*
X135625Y452668D01*
X135642Y452678D01*
X135662Y452682D01*
X135751Y452735D01*
X135842Y452784D01*
X135856Y452798D01*
X135873Y452808D01*
X135940Y452887D01*
X136012Y452962D01*
X136020Y452980D01*
X136033Y452995D01*
X136072Y453091D01*
X136115Y453185D01*
X136117Y453205D01*
X136125Y453223D01*
X136143Y453390D01*
X136143Y499110D01*
X136140Y499130D01*
X136142Y499149D01*
X136120Y499251D01*
X136104Y499353D01*
X136094Y499370D01*
X136090Y499390D01*
X136037Y499479D01*
X135988Y499570D01*
X135974Y499584D01*
X135964Y499601D01*
X135885Y499668D01*
X135810Y499740D01*
X135792Y499748D01*
X135777Y499761D01*
X135681Y499800D01*
X135587Y499843D01*
X135567Y499845D01*
X135549Y499853D01*
X135382Y499871D01*
X131479Y499871D01*
X128491Y501109D01*
X126205Y503395D01*
X124967Y506383D01*
X124967Y509617D01*
X126205Y512605D01*
X128491Y514891D01*
X131479Y516129D01*
X135382Y516129D01*
X135402Y516132D01*
X135421Y516130D01*
X135523Y516152D01*
X135625Y516168D01*
X135642Y516178D01*
X135662Y516182D01*
X135751Y516235D01*
X135842Y516284D01*
X135856Y516298D01*
X135873Y516308D01*
X135940Y516387D01*
X136012Y516462D01*
X136020Y516480D01*
X136033Y516495D01*
X136072Y516591D01*
X136115Y516685D01*
X136117Y516705D01*
X136125Y516723D01*
X136143Y516890D01*
X136143Y524510D01*
X136140Y524530D01*
X136142Y524549D01*
X136120Y524651D01*
X136104Y524753D01*
X136094Y524770D01*
X136090Y524790D01*
X136037Y524879D01*
X135988Y524970D01*
X135974Y524984D01*
X135964Y525001D01*
X135885Y525068D01*
X135810Y525140D01*
X135792Y525148D01*
X135777Y525161D01*
X135681Y525200D01*
X135587Y525243D01*
X135567Y525245D01*
X135549Y525253D01*
X135382Y525271D01*
X131479Y525271D01*
X128491Y526509D01*
X126205Y528795D01*
X124967Y531783D01*
X124967Y535017D01*
X126205Y538005D01*
X128491Y540291D01*
X131479Y541529D01*
X147921Y541529D01*
X150909Y540291D01*
X153195Y538005D01*
X154433Y535017D01*
X154433Y531783D01*
X153195Y528795D01*
X150909Y526509D01*
X147921Y525271D01*
X144018Y525271D01*
X143998Y525268D01*
X143979Y525270D01*
X143877Y525248D01*
X143775Y525232D01*
X143758Y525222D01*
X143738Y525218D01*
X143649Y525165D01*
X143558Y525116D01*
X143544Y525102D01*
X143527Y525092D01*
X143460Y525013D01*
X143388Y524938D01*
X143380Y524920D01*
X143367Y524905D01*
X143328Y524809D01*
X143285Y524715D01*
X143283Y524695D01*
X143275Y524677D01*
X143257Y524510D01*
X143257Y516890D01*
X143260Y516870D01*
X143258Y516851D01*
X143280Y516749D01*
X143296Y516647D01*
X143306Y516630D01*
X143310Y516610D01*
X143363Y516521D01*
X143412Y516430D01*
X143426Y516416D01*
X143436Y516399D01*
X143515Y516332D01*
X143590Y516260D01*
X143608Y516252D01*
X143623Y516239D01*
X143719Y516200D01*
X143813Y516157D01*
X143833Y516155D01*
X143851Y516147D01*
X144018Y516129D01*
X147921Y516129D01*
X150909Y514891D01*
X153195Y512605D01*
X154433Y509617D01*
X154433Y506383D01*
X153195Y503395D01*
X150909Y501109D01*
X147921Y499871D01*
X144018Y499871D01*
X143998Y499868D01*
X143979Y499870D01*
X143877Y499848D01*
X143775Y499832D01*
X143758Y499822D01*
X143738Y499818D01*
X143649Y499765D01*
X143558Y499716D01*
X143544Y499702D01*
X143527Y499692D01*
X143460Y499613D01*
X143388Y499538D01*
X143380Y499520D01*
X143367Y499505D01*
X143328Y499409D01*
X143285Y499315D01*
X143283Y499295D01*
X143275Y499277D01*
X143257Y499110D01*
X143257Y453390D01*
X143260Y453370D01*
X143258Y453351D01*
X143280Y453249D01*
X143296Y453147D01*
X143306Y453130D01*
X143310Y453110D01*
X143363Y453021D01*
X143412Y452930D01*
X143426Y452916D01*
X143436Y452899D01*
X143515Y452832D01*
X143590Y452760D01*
X143608Y452752D01*
X143623Y452739D01*
X143719Y452700D01*
X143813Y452657D01*
X143833Y452655D01*
X143851Y452647D01*
X144018Y452629D01*
X147921Y452629D01*
X150909Y451391D01*
X153195Y449105D01*
X154433Y446117D01*
X154433Y442883D01*
X153195Y439895D01*
X150909Y437609D01*
X147921Y436371D01*
X131479Y436371D01*
G37*
%LPD*%
%LPC*%
G36*
X175602Y229643D02*
X175602Y229643D01*
X172493Y232752D01*
X172493Y237148D01*
X174020Y238675D01*
X174073Y238749D01*
X174133Y238819D01*
X174145Y238849D01*
X174164Y238875D01*
X174191Y238962D01*
X174225Y239047D01*
X174229Y239088D01*
X174236Y239110D01*
X174235Y239142D01*
X174243Y239213D01*
X174243Y440237D01*
X174229Y440327D01*
X174221Y440418D01*
X174209Y440447D01*
X174204Y440479D01*
X174161Y440560D01*
X174125Y440644D01*
X174099Y440676D01*
X174088Y440697D01*
X174065Y440719D01*
X174020Y440775D01*
X172493Y442302D01*
X172493Y446698D01*
X175602Y449807D01*
X179998Y449807D01*
X183107Y446698D01*
X183107Y442302D01*
X181580Y440775D01*
X181533Y440710D01*
X181519Y440695D01*
X181516Y440688D01*
X181467Y440631D01*
X181455Y440601D01*
X181436Y440575D01*
X181409Y440488D01*
X181375Y440403D01*
X181371Y440362D01*
X181364Y440340D01*
X181365Y440308D01*
X181357Y440237D01*
X181357Y239213D01*
X181371Y239123D01*
X181379Y239032D01*
X181391Y239003D01*
X181396Y238971D01*
X181439Y238890D01*
X181475Y238806D01*
X181501Y238774D01*
X181512Y238753D01*
X181535Y238731D01*
X181580Y238675D01*
X183107Y237148D01*
X183107Y232752D01*
X179998Y229643D01*
X175602Y229643D01*
G37*
%LPD*%
%LPC*%
G36*
X23783Y703071D02*
X23783Y703071D01*
X20795Y704309D01*
X18509Y706595D01*
X17271Y709583D01*
X17271Y712817D01*
X18509Y715805D01*
X20795Y718091D01*
X23783Y719329D01*
X27017Y719329D01*
X30005Y718091D01*
X32291Y715805D01*
X32531Y715227D01*
X32592Y715127D01*
X32652Y715027D01*
X32657Y715023D01*
X32660Y715018D01*
X32750Y714943D01*
X32839Y714867D01*
X32845Y714865D01*
X32850Y714861D01*
X32958Y714819D01*
X33067Y714775D01*
X33075Y714774D01*
X33079Y714773D01*
X33098Y714772D01*
X33234Y714757D01*
X36311Y714757D01*
X36402Y714771D01*
X36492Y714779D01*
X36522Y714791D01*
X36554Y714796D01*
X36635Y714839D01*
X36719Y714875D01*
X36751Y714901D01*
X36772Y714912D01*
X36794Y714935D01*
X36850Y714980D01*
X47020Y725150D01*
X47073Y725224D01*
X47133Y725294D01*
X47145Y725324D01*
X47164Y725350D01*
X47191Y725437D01*
X47225Y725522D01*
X47229Y725563D01*
X47236Y725585D01*
X47235Y725617D01*
X47243Y725689D01*
X47243Y730973D01*
X47232Y731044D01*
X47230Y731115D01*
X47212Y731164D01*
X47204Y731216D01*
X47170Y731279D01*
X47145Y731346D01*
X47113Y731387D01*
X47088Y731433D01*
X47036Y731482D01*
X46992Y731538D01*
X46948Y731567D01*
X46910Y731602D01*
X46845Y731633D01*
X46785Y731671D01*
X46734Y731684D01*
X46687Y731706D01*
X46616Y731714D01*
X46546Y731731D01*
X46494Y731727D01*
X46443Y731733D01*
X46372Y731718D01*
X46301Y731712D01*
X46253Y731692D01*
X46202Y731681D01*
X46141Y731644D01*
X46075Y731616D01*
X46019Y731571D01*
X45991Y731555D01*
X45976Y731537D01*
X45944Y731511D01*
X41888Y727455D01*
X39623Y727455D01*
X39623Y735838D01*
X39620Y735858D01*
X39622Y735877D01*
X39600Y735979D01*
X39583Y736081D01*
X39574Y736098D01*
X39570Y736118D01*
X39517Y736207D01*
X39468Y736298D01*
X39454Y736312D01*
X39444Y736329D01*
X39365Y736396D01*
X39290Y736467D01*
X39272Y736476D01*
X39257Y736489D01*
X39161Y736527D01*
X39067Y736571D01*
X39047Y736573D01*
X39029Y736581D01*
X38862Y736599D01*
X38099Y736599D01*
X38099Y736601D01*
X38862Y736601D01*
X38882Y736604D01*
X38901Y736602D01*
X39003Y736624D01*
X39105Y736641D01*
X39122Y736650D01*
X39142Y736654D01*
X39231Y736707D01*
X39322Y736756D01*
X39336Y736770D01*
X39353Y736780D01*
X39420Y736859D01*
X39491Y736934D01*
X39500Y736952D01*
X39513Y736967D01*
X39552Y737063D01*
X39595Y737157D01*
X39597Y737177D01*
X39605Y737195D01*
X39623Y737362D01*
X39623Y745745D01*
X41888Y745745D01*
X45944Y741689D01*
X46002Y741647D01*
X46054Y741598D01*
X46101Y741576D01*
X46143Y741545D01*
X46212Y741524D01*
X46277Y741494D01*
X46329Y741488D01*
X46379Y741473D01*
X46450Y741475D01*
X46521Y741467D01*
X46572Y741478D01*
X46624Y741479D01*
X46692Y741504D01*
X46762Y741519D01*
X46807Y741546D01*
X46855Y741564D01*
X46911Y741609D01*
X46973Y741645D01*
X47007Y741685D01*
X47047Y741717D01*
X47086Y741778D01*
X47133Y741832D01*
X47152Y741881D01*
X47180Y741924D01*
X47198Y741994D01*
X47225Y742060D01*
X47233Y742132D01*
X47241Y742163D01*
X47239Y742186D01*
X47243Y742227D01*
X47243Y795837D01*
X47229Y795927D01*
X47221Y796018D01*
X47209Y796047D01*
X47204Y796079D01*
X47161Y796160D01*
X47125Y796244D01*
X47099Y796276D01*
X47088Y796297D01*
X47065Y796319D01*
X47020Y796375D01*
X45493Y797902D01*
X45493Y800061D01*
X45479Y800152D01*
X45471Y800242D01*
X45459Y800272D01*
X45454Y800304D01*
X45411Y800385D01*
X45375Y800469D01*
X45349Y800501D01*
X45338Y800522D01*
X45315Y800544D01*
X45270Y800600D01*
X36850Y809020D01*
X36776Y809073D01*
X36706Y809133D01*
X36676Y809145D01*
X36650Y809164D01*
X36563Y809191D01*
X36478Y809225D01*
X36437Y809229D01*
X36415Y809236D01*
X36383Y809235D01*
X36311Y809243D01*
X33654Y809243D01*
X33564Y809229D01*
X33473Y809221D01*
X33444Y809209D01*
X33412Y809204D01*
X33331Y809161D01*
X33247Y809125D01*
X33215Y809099D01*
X33194Y809088D01*
X33172Y809065D01*
X33116Y809020D01*
X28767Y804671D01*
X22033Y804671D01*
X17271Y809433D01*
X17271Y816167D01*
X22033Y820929D01*
X28767Y820929D01*
X33116Y816580D01*
X33190Y816527D01*
X33259Y816467D01*
X33290Y816455D01*
X33316Y816436D01*
X33403Y816409D01*
X33488Y816375D01*
X33529Y816371D01*
X33551Y816364D01*
X33583Y816365D01*
X33654Y816357D01*
X39573Y816357D01*
X50300Y805630D01*
X50374Y805577D01*
X50444Y805517D01*
X50474Y805505D01*
X50500Y805486D01*
X50587Y805459D01*
X50672Y805425D01*
X50713Y805421D01*
X50735Y805414D01*
X50767Y805415D01*
X50839Y805407D01*
X52998Y805407D01*
X56107Y802298D01*
X56107Y797902D01*
X54580Y796375D01*
X54527Y796301D01*
X54467Y796231D01*
X54455Y796201D01*
X54436Y796175D01*
X54409Y796088D01*
X54375Y796003D01*
X54371Y795962D01*
X54364Y795940D01*
X54365Y795908D01*
X54357Y795837D01*
X54357Y722427D01*
X39573Y707643D01*
X33234Y707643D01*
X33119Y707624D01*
X33003Y707607D01*
X32997Y707605D01*
X32991Y707604D01*
X32889Y707549D01*
X32784Y707496D01*
X32779Y707491D01*
X32774Y707488D01*
X32694Y707404D01*
X32611Y707320D01*
X32608Y707314D01*
X32604Y707310D01*
X32597Y707293D01*
X32531Y707173D01*
X32291Y706595D01*
X30005Y704309D01*
X27017Y703071D01*
X23783Y703071D01*
G37*
%LPD*%
%LPC*%
G36*
X48602Y324893D02*
X48602Y324893D01*
X45493Y328002D01*
X45493Y332398D01*
X47020Y333925D01*
X47064Y333986D01*
X47101Y334025D01*
X47108Y334039D01*
X47133Y334069D01*
X47145Y334099D01*
X47164Y334125D01*
X47191Y334212D01*
X47225Y334297D01*
X47229Y334338D01*
X47236Y334360D01*
X47235Y334392D01*
X47243Y334463D01*
X47243Y391911D01*
X47229Y392002D01*
X47221Y392092D01*
X47209Y392122D01*
X47204Y392154D01*
X47161Y392235D01*
X47125Y392319D01*
X47099Y392351D01*
X47088Y392372D01*
X47065Y392394D01*
X47020Y392450D01*
X28722Y410748D01*
X28648Y410801D01*
X28578Y410861D01*
X28548Y410873D01*
X28522Y410892D01*
X28435Y410919D01*
X28350Y410953D01*
X28309Y410957D01*
X28287Y410964D01*
X28255Y410963D01*
X28183Y410971D01*
X22033Y410971D01*
X17271Y415733D01*
X17271Y422467D01*
X21620Y426816D01*
X21667Y426881D01*
X21683Y426898D01*
X21686Y426905D01*
X21733Y426959D01*
X21745Y426990D01*
X21764Y427016D01*
X21791Y427103D01*
X21825Y427188D01*
X21829Y427229D01*
X21836Y427251D01*
X21835Y427283D01*
X21843Y427354D01*
X21843Y471987D01*
X21829Y472077D01*
X21821Y472168D01*
X21809Y472197D01*
X21804Y472229D01*
X21761Y472310D01*
X21725Y472394D01*
X21699Y472426D01*
X21688Y472447D01*
X21665Y472469D01*
X21620Y472525D01*
X20093Y474052D01*
X20093Y478448D01*
X23202Y481557D01*
X27598Y481557D01*
X30707Y478448D01*
X30707Y474052D01*
X29180Y472525D01*
X29127Y472451D01*
X29067Y472381D01*
X29055Y472351D01*
X29036Y472325D01*
X29009Y472238D01*
X28975Y472153D01*
X28971Y472112D01*
X28964Y472090D01*
X28965Y472058D01*
X28957Y471987D01*
X28957Y427354D01*
X28971Y427264D01*
X28979Y427173D01*
X28991Y427144D01*
X28996Y427112D01*
X29039Y427031D01*
X29075Y426947D01*
X29101Y426915D01*
X29112Y426894D01*
X29135Y426872D01*
X29180Y426816D01*
X33529Y422467D01*
X33529Y416317D01*
X33543Y416226D01*
X33551Y416136D01*
X33563Y416106D01*
X33568Y416074D01*
X33611Y415993D01*
X33647Y415909D01*
X33673Y415877D01*
X33684Y415856D01*
X33707Y415834D01*
X33752Y415778D01*
X54357Y395173D01*
X54357Y334463D01*
X54371Y334373D01*
X54379Y334282D01*
X54391Y334253D01*
X54396Y334221D01*
X54419Y334178D01*
X54420Y334173D01*
X54431Y334155D01*
X54439Y334140D01*
X54475Y334056D01*
X54501Y334024D01*
X54512Y334003D01*
X54535Y333981D01*
X54536Y333980D01*
X54546Y333962D01*
X54558Y333953D01*
X54580Y333925D01*
X56107Y332398D01*
X56107Y328002D01*
X52998Y324893D01*
X48602Y324893D01*
G37*
%LPD*%
%LPC*%
G36*
X283552Y286793D02*
X283552Y286793D01*
X280443Y289902D01*
X280443Y294298D01*
X281970Y295825D01*
X282023Y295899D01*
X282083Y295969D01*
X282095Y295999D01*
X282114Y296025D01*
X282141Y296112D01*
X282175Y296197D01*
X282179Y296238D01*
X282186Y296260D01*
X282185Y296292D01*
X282193Y296363D01*
X282193Y421187D01*
X282179Y421277D01*
X282171Y421368D01*
X282159Y421397D01*
X282154Y421429D01*
X282111Y421510D01*
X282075Y421594D01*
X282049Y421626D01*
X282038Y421647D01*
X282015Y421669D01*
X281970Y421725D01*
X280443Y423252D01*
X280443Y427648D01*
X283552Y430757D01*
X287948Y430757D01*
X291057Y427648D01*
X291057Y423252D01*
X289530Y421725D01*
X289477Y421651D01*
X289417Y421581D01*
X289405Y421551D01*
X289386Y421525D01*
X289359Y421438D01*
X289325Y421353D01*
X289321Y421312D01*
X289314Y421290D01*
X289315Y421258D01*
X289307Y421187D01*
X289307Y296363D01*
X289308Y296355D01*
X289308Y296351D01*
X289312Y296333D01*
X289321Y296273D01*
X289329Y296182D01*
X289341Y296153D01*
X289346Y296121D01*
X289389Y296040D01*
X289425Y295956D01*
X289451Y295924D01*
X289462Y295903D01*
X289485Y295881D01*
X289530Y295825D01*
X291057Y294298D01*
X291057Y289902D01*
X287948Y286793D01*
X283552Y286793D01*
G37*
%LPD*%
%LPC*%
G36*
X98233Y804671D02*
X98233Y804671D01*
X93471Y809433D01*
X93471Y816167D01*
X97820Y820516D01*
X97873Y820590D01*
X97933Y820659D01*
X97945Y820690D01*
X97964Y820716D01*
X97991Y820803D01*
X98025Y820888D01*
X98029Y820929D01*
X98036Y820951D01*
X98035Y820983D01*
X98043Y821054D01*
X98043Y829946D01*
X98029Y830036D01*
X98021Y830127D01*
X98009Y830156D01*
X98004Y830188D01*
X97961Y830269D01*
X97925Y830353D01*
X97899Y830385D01*
X97888Y830406D01*
X97865Y830428D01*
X97820Y830484D01*
X93471Y834833D01*
X93471Y841567D01*
X98233Y846329D01*
X104967Y846329D01*
X109729Y841567D01*
X109729Y834833D01*
X105380Y830484D01*
X105327Y830410D01*
X105267Y830341D01*
X105255Y830310D01*
X105236Y830284D01*
X105209Y830197D01*
X105175Y830112D01*
X105171Y830071D01*
X105164Y830049D01*
X105165Y830017D01*
X105157Y829946D01*
X105157Y821054D01*
X105171Y820964D01*
X105179Y820873D01*
X105191Y820844D01*
X105196Y820812D01*
X105239Y820731D01*
X105275Y820647D01*
X105301Y820615D01*
X105312Y820594D01*
X105335Y820572D01*
X105380Y820516D01*
X109316Y816580D01*
X109390Y816527D01*
X109459Y816467D01*
X109490Y816455D01*
X109516Y816436D01*
X109603Y816409D01*
X109688Y816375D01*
X109729Y816371D01*
X109751Y816364D01*
X109783Y816365D01*
X109854Y816357D01*
X126437Y816357D01*
X126551Y816375D01*
X126668Y816393D01*
X126673Y816395D01*
X126679Y816396D01*
X126782Y816451D01*
X126887Y816504D01*
X126891Y816509D01*
X126897Y816512D01*
X126977Y816596D01*
X127059Y816680D01*
X127063Y816686D01*
X127066Y816690D01*
X127074Y816707D01*
X127140Y816827D01*
X127247Y817085D01*
X129375Y819213D01*
X132155Y820365D01*
X147245Y820365D01*
X150025Y819213D01*
X152153Y817085D01*
X153305Y814305D01*
X153305Y811295D01*
X152153Y808515D01*
X150025Y806387D01*
X147245Y805235D01*
X132155Y805235D01*
X129375Y806387D01*
X127247Y808515D01*
X127140Y808773D01*
X127079Y808872D01*
X127018Y808973D01*
X127014Y808977D01*
X127010Y808982D01*
X126921Y809056D01*
X126831Y809133D01*
X126826Y809135D01*
X126821Y809139D01*
X126713Y809180D01*
X126603Y809225D01*
X126596Y809226D01*
X126591Y809227D01*
X126573Y809228D01*
X126437Y809243D01*
X109854Y809243D01*
X109764Y809229D01*
X109673Y809221D01*
X109644Y809209D01*
X109612Y809204D01*
X109531Y809161D01*
X109447Y809125D01*
X109415Y809099D01*
X109394Y809088D01*
X109372Y809065D01*
X109316Y809020D01*
X104967Y804671D01*
X98233Y804671D01*
G37*
%LPD*%
%LPC*%
G36*
X131479Y283971D02*
X131479Y283971D01*
X128491Y285209D01*
X126205Y287495D01*
X125965Y288073D01*
X125904Y288172D01*
X125844Y288273D01*
X125839Y288277D01*
X125836Y288282D01*
X125746Y288357D01*
X125657Y288433D01*
X125651Y288435D01*
X125646Y288439D01*
X125538Y288481D01*
X125429Y288525D01*
X125421Y288526D01*
X125417Y288527D01*
X125398Y288528D01*
X125262Y288543D01*
X112827Y288543D01*
X98043Y303327D01*
X98043Y309246D01*
X98029Y309336D01*
X98021Y309427D01*
X98009Y309456D01*
X98004Y309488D01*
X97961Y309569D01*
X97925Y309653D01*
X97899Y309685D01*
X97888Y309706D01*
X97865Y309728D01*
X97820Y309784D01*
X93471Y314133D01*
X93471Y320867D01*
X98233Y325629D01*
X104967Y325629D01*
X109729Y320867D01*
X109729Y314133D01*
X105380Y309784D01*
X105327Y309710D01*
X105267Y309641D01*
X105255Y309610D01*
X105236Y309584D01*
X105209Y309497D01*
X105175Y309412D01*
X105171Y309371D01*
X105164Y309349D01*
X105165Y309317D01*
X105157Y309246D01*
X105157Y306589D01*
X105171Y306498D01*
X105179Y306408D01*
X105191Y306378D01*
X105196Y306346D01*
X105239Y306265D01*
X105275Y306181D01*
X105301Y306149D01*
X105312Y306128D01*
X105335Y306106D01*
X105380Y306050D01*
X115550Y295880D01*
X115624Y295827D01*
X115694Y295767D01*
X115724Y295755D01*
X115750Y295736D01*
X115837Y295709D01*
X115922Y295675D01*
X115963Y295671D01*
X115985Y295664D01*
X116017Y295665D01*
X116089Y295657D01*
X125262Y295657D01*
X125377Y295676D01*
X125493Y295693D01*
X125499Y295695D01*
X125505Y295696D01*
X125607Y295751D01*
X125712Y295804D01*
X125717Y295809D01*
X125722Y295812D01*
X125802Y295896D01*
X125885Y295980D01*
X125888Y295986D01*
X125892Y295990D01*
X125899Y296007D01*
X125965Y296127D01*
X126205Y296705D01*
X128491Y298991D01*
X131479Y300229D01*
X147921Y300229D01*
X150909Y298991D01*
X153195Y296705D01*
X154433Y293717D01*
X154433Y290483D01*
X153195Y287495D01*
X150909Y285209D01*
X147921Y283971D01*
X131479Y283971D01*
G37*
%LPD*%
%LPC*%
G36*
X22033Y830071D02*
X22033Y830071D01*
X17271Y834833D01*
X17271Y841567D01*
X21620Y845916D01*
X21673Y845990D01*
X21733Y846059D01*
X21745Y846090D01*
X21764Y846116D01*
X21791Y846203D01*
X21825Y846288D01*
X21829Y846329D01*
X21836Y846351D01*
X21835Y846383D01*
X21843Y846454D01*
X21843Y854710D01*
X21840Y854730D01*
X21842Y854749D01*
X21820Y854851D01*
X21804Y854953D01*
X21794Y854970D01*
X21790Y854990D01*
X21737Y855079D01*
X21688Y855170D01*
X21674Y855184D01*
X21664Y855201D01*
X21585Y855268D01*
X21510Y855340D01*
X21492Y855348D01*
X21477Y855361D01*
X21381Y855400D01*
X21287Y855443D01*
X21267Y855445D01*
X21249Y855453D01*
X21082Y855471D01*
X18164Y855471D01*
X17271Y856364D01*
X17271Y870836D01*
X18164Y871729D01*
X21082Y871729D01*
X21102Y871732D01*
X21121Y871730D01*
X21223Y871752D01*
X21325Y871768D01*
X21342Y871778D01*
X21362Y871782D01*
X21451Y871835D01*
X21542Y871884D01*
X21556Y871898D01*
X21573Y871908D01*
X21640Y871987D01*
X21712Y872062D01*
X21720Y872080D01*
X21733Y872095D01*
X21772Y872191D01*
X21815Y872285D01*
X21817Y872305D01*
X21825Y872323D01*
X21843Y872490D01*
X21843Y880746D01*
X21829Y880836D01*
X21821Y880927D01*
X21809Y880956D01*
X21804Y880988D01*
X21761Y881069D01*
X21725Y881153D01*
X21699Y881185D01*
X21688Y881206D01*
X21665Y881228D01*
X21620Y881284D01*
X17271Y885633D01*
X17271Y892367D01*
X22033Y897129D01*
X28767Y897129D01*
X33529Y892367D01*
X33529Y885633D01*
X29180Y881284D01*
X29127Y881210D01*
X29067Y881141D01*
X29055Y881110D01*
X29036Y881084D01*
X29009Y880997D01*
X28975Y880912D01*
X28971Y880871D01*
X28964Y880849D01*
X28965Y880817D01*
X28957Y880746D01*
X28957Y872490D01*
X28960Y872470D01*
X28958Y872451D01*
X28980Y872349D01*
X28996Y872247D01*
X29006Y872230D01*
X29010Y872210D01*
X29063Y872121D01*
X29112Y872030D01*
X29126Y872016D01*
X29136Y871999D01*
X29215Y871932D01*
X29290Y871860D01*
X29308Y871852D01*
X29323Y871839D01*
X29419Y871800D01*
X29513Y871757D01*
X29533Y871755D01*
X29551Y871747D01*
X29718Y871729D01*
X32636Y871729D01*
X33529Y870836D01*
X33529Y856364D01*
X32636Y855471D01*
X29718Y855471D01*
X29698Y855468D01*
X29679Y855470D01*
X29577Y855448D01*
X29475Y855432D01*
X29458Y855422D01*
X29438Y855418D01*
X29349Y855365D01*
X29258Y855316D01*
X29244Y855302D01*
X29227Y855292D01*
X29160Y855213D01*
X29088Y855138D01*
X29080Y855120D01*
X29067Y855105D01*
X29028Y855009D01*
X28985Y854915D01*
X28983Y854895D01*
X28975Y854877D01*
X28957Y854710D01*
X28957Y846454D01*
X28971Y846364D01*
X28979Y846273D01*
X28991Y846244D01*
X28996Y846212D01*
X29039Y846131D01*
X29075Y846047D01*
X29101Y846015D01*
X29112Y845994D01*
X29135Y845972D01*
X29180Y845916D01*
X33529Y841567D01*
X33529Y834833D01*
X28767Y830071D01*
X22033Y830071D01*
G37*
%LPD*%
%LPC*%
G36*
X98233Y334771D02*
X98233Y334771D01*
X93471Y339533D01*
X93471Y346267D01*
X98233Y351029D01*
X104967Y351029D01*
X109316Y346680D01*
X109390Y346627D01*
X109459Y346567D01*
X109490Y346555D01*
X109516Y346536D01*
X109603Y346509D01*
X109688Y346475D01*
X109729Y346471D01*
X109751Y346464D01*
X109783Y346465D01*
X109854Y346457D01*
X125262Y346457D01*
X125377Y346476D01*
X125493Y346493D01*
X125499Y346495D01*
X125505Y346496D01*
X125607Y346551D01*
X125712Y346604D01*
X125717Y346609D01*
X125722Y346612D01*
X125802Y346696D01*
X125885Y346780D01*
X125888Y346786D01*
X125892Y346790D01*
X125899Y346807D01*
X125965Y346927D01*
X126205Y347505D01*
X128491Y349791D01*
X131479Y351029D01*
X147921Y351029D01*
X150909Y349791D01*
X153195Y347505D01*
X154433Y344517D01*
X154433Y341283D01*
X153195Y338295D01*
X150909Y336009D01*
X147921Y334771D01*
X131479Y334771D01*
X128491Y336009D01*
X126205Y338295D01*
X125965Y338873D01*
X125904Y338973D01*
X125844Y339073D01*
X125839Y339077D01*
X125836Y339082D01*
X125746Y339157D01*
X125657Y339233D01*
X125651Y339235D01*
X125646Y339239D01*
X125538Y339281D01*
X125429Y339325D01*
X125421Y339326D01*
X125417Y339327D01*
X125398Y339328D01*
X125262Y339343D01*
X109854Y339343D01*
X109764Y339329D01*
X109673Y339321D01*
X109644Y339309D01*
X109612Y339304D01*
X109531Y339261D01*
X109447Y339225D01*
X109415Y339199D01*
X109394Y339188D01*
X109372Y339165D01*
X109316Y339120D01*
X104967Y334771D01*
X98233Y334771D01*
G37*
%LPD*%
%LPC*%
G36*
X250633Y753871D02*
X250633Y753871D01*
X246284Y758220D01*
X246210Y758273D01*
X246141Y758333D01*
X246110Y758345D01*
X246084Y758364D01*
X245997Y758391D01*
X245912Y758425D01*
X245871Y758429D01*
X245849Y758436D01*
X245817Y758435D01*
X245746Y758443D01*
X229163Y758443D01*
X229049Y758425D01*
X228932Y758407D01*
X228927Y758405D01*
X228921Y758404D01*
X228818Y758349D01*
X228713Y758296D01*
X228709Y758291D01*
X228703Y758288D01*
X228623Y758204D01*
X228541Y758120D01*
X228537Y758114D01*
X228534Y758110D01*
X228526Y758093D01*
X228460Y757973D01*
X228353Y757715D01*
X226225Y755587D01*
X223445Y754435D01*
X208355Y754435D01*
X205575Y755587D01*
X203447Y757715D01*
X202295Y760495D01*
X202295Y763505D01*
X203447Y766285D01*
X205575Y768413D01*
X208355Y769565D01*
X223445Y769565D01*
X226225Y768413D01*
X228353Y766285D01*
X228460Y766027D01*
X228522Y765927D01*
X228582Y765827D01*
X228586Y765823D01*
X228590Y765818D01*
X228679Y765744D01*
X228769Y765667D01*
X228774Y765665D01*
X228779Y765661D01*
X228887Y765619D01*
X228997Y765575D01*
X229004Y765574D01*
X229009Y765573D01*
X229027Y765572D01*
X229163Y765557D01*
X245746Y765557D01*
X245836Y765571D01*
X245927Y765579D01*
X245956Y765591D01*
X245988Y765596D01*
X246069Y765639D01*
X246153Y765675D01*
X246185Y765701D01*
X246206Y765712D01*
X246228Y765735D01*
X246284Y765780D01*
X250633Y770129D01*
X257367Y770129D01*
X262129Y765367D01*
X262129Y758633D01*
X257367Y753871D01*
X250633Y753871D01*
G37*
%LPD*%
%LPC*%
G36*
X132155Y754435D02*
X132155Y754435D01*
X129375Y755587D01*
X127247Y757715D01*
X126095Y760495D01*
X126095Y763505D01*
X126111Y763544D01*
X126120Y763580D01*
X126126Y763593D01*
X126129Y763617D01*
X126138Y763657D01*
X126167Y763771D01*
X126166Y763777D01*
X126168Y763783D01*
X126157Y763900D01*
X126148Y764016D01*
X126145Y764022D01*
X126145Y764028D01*
X126096Y764136D01*
X126051Y764243D01*
X126047Y764248D01*
X126045Y764253D01*
X126032Y764267D01*
X125947Y764374D01*
X119400Y770920D01*
X117093Y773227D01*
X117093Y795837D01*
X117079Y795927D01*
X117071Y796018D01*
X117059Y796047D01*
X117054Y796079D01*
X117011Y796160D01*
X116975Y796244D01*
X116949Y796276D01*
X116938Y796297D01*
X116915Y796319D01*
X116870Y796375D01*
X115343Y797902D01*
X115343Y802298D01*
X118452Y805407D01*
X122848Y805407D01*
X125957Y802298D01*
X125957Y797902D01*
X124430Y796375D01*
X124377Y796301D01*
X124317Y796231D01*
X124305Y796201D01*
X124286Y796175D01*
X124259Y796088D01*
X124225Y796003D01*
X124221Y795962D01*
X124214Y795940D01*
X124215Y795908D01*
X124207Y795837D01*
X124207Y776489D01*
X124221Y776398D01*
X124229Y776308D01*
X124241Y776278D01*
X124246Y776246D01*
X124289Y776165D01*
X124325Y776081D01*
X124351Y776049D01*
X124362Y776028D01*
X124385Y776006D01*
X124430Y775950D01*
X130848Y769532D01*
X130942Y769464D01*
X131037Y769394D01*
X131043Y769392D01*
X131048Y769388D01*
X131159Y769354D01*
X131271Y769318D01*
X131277Y769318D01*
X131283Y769316D01*
X131400Y769319D01*
X131517Y769320D01*
X131524Y769322D01*
X131529Y769322D01*
X131546Y769329D01*
X131678Y769367D01*
X132155Y769565D01*
X147245Y769565D01*
X150025Y768413D01*
X152153Y766285D01*
X153305Y763505D01*
X153305Y760495D01*
X152153Y757715D01*
X150025Y755587D01*
X147245Y754435D01*
X132155Y754435D01*
G37*
%LPD*%
%LPC*%
G36*
X98233Y753871D02*
X98233Y753871D01*
X93471Y758633D01*
X93471Y765367D01*
X97820Y769716D01*
X97873Y769790D01*
X97933Y769859D01*
X97945Y769890D01*
X97964Y769916D01*
X97991Y770003D01*
X98025Y770088D01*
X98029Y770129D01*
X98036Y770151D01*
X98035Y770183D01*
X98043Y770254D01*
X98043Y779146D01*
X98029Y779236D01*
X98021Y779327D01*
X98009Y779356D01*
X98004Y779388D01*
X97961Y779469D01*
X97925Y779553D01*
X97899Y779585D01*
X97888Y779606D01*
X97865Y779628D01*
X97820Y779684D01*
X93471Y784033D01*
X93471Y790767D01*
X98233Y795529D01*
X104967Y795529D01*
X109729Y790767D01*
X109729Y784033D01*
X105380Y779684D01*
X105327Y779610D01*
X105267Y779541D01*
X105255Y779510D01*
X105236Y779484D01*
X105209Y779397D01*
X105175Y779312D01*
X105171Y779271D01*
X105164Y779249D01*
X105165Y779217D01*
X105157Y779146D01*
X105157Y770254D01*
X105171Y770164D01*
X105179Y770073D01*
X105191Y770044D01*
X105196Y770012D01*
X105239Y769931D01*
X105275Y769847D01*
X105301Y769815D01*
X105312Y769794D01*
X105335Y769772D01*
X105380Y769716D01*
X109729Y765367D01*
X109729Y758633D01*
X104967Y753871D01*
X98233Y753871D01*
G37*
%LPD*%
%LPC*%
G36*
X207679Y334771D02*
X207679Y334771D01*
X204691Y336009D01*
X202405Y338295D01*
X201167Y341283D01*
X201167Y344517D01*
X202405Y347505D01*
X204691Y349791D01*
X207679Y351029D01*
X224121Y351029D01*
X227109Y349791D01*
X229395Y347505D01*
X230633Y344517D01*
X230633Y341283D01*
X229395Y338295D01*
X227109Y336009D01*
X224121Y334771D01*
X207679Y334771D01*
G37*
%LPD*%
%LPC*%
G36*
X207679Y436371D02*
X207679Y436371D01*
X204691Y437609D01*
X202405Y439895D01*
X201167Y442883D01*
X201167Y446117D01*
X202405Y449105D01*
X204691Y451391D01*
X207679Y452629D01*
X224121Y452629D01*
X227109Y451391D01*
X229395Y449105D01*
X230633Y446117D01*
X230633Y442883D01*
X229395Y439895D01*
X227109Y437609D01*
X224121Y436371D01*
X207679Y436371D01*
G37*
%LPD*%
%LPC*%
G36*
X131479Y576071D02*
X131479Y576071D01*
X128491Y577309D01*
X126205Y579595D01*
X124967Y582583D01*
X124967Y585817D01*
X126205Y588805D01*
X128491Y591091D01*
X131479Y592329D01*
X147921Y592329D01*
X150909Y591091D01*
X153195Y588805D01*
X154433Y585817D01*
X154433Y582583D01*
X153195Y579595D01*
X150909Y577309D01*
X147921Y576071D01*
X131479Y576071D01*
G37*
%LPD*%
%LPC*%
G36*
X207679Y525271D02*
X207679Y525271D01*
X204691Y526509D01*
X202405Y528795D01*
X201167Y531783D01*
X201167Y535017D01*
X202405Y538005D01*
X204691Y540291D01*
X207679Y541529D01*
X224121Y541529D01*
X227109Y540291D01*
X229395Y538005D01*
X230633Y535017D01*
X230633Y531783D01*
X229395Y528795D01*
X227109Y526509D01*
X224121Y525271D01*
X207679Y525271D01*
G37*
%LPD*%
%LPC*%
G36*
X207679Y626871D02*
X207679Y626871D01*
X204691Y628109D01*
X202405Y630395D01*
X201167Y633383D01*
X201167Y636617D01*
X202405Y639605D01*
X204691Y641891D01*
X207679Y643129D01*
X224121Y643129D01*
X227109Y641891D01*
X229395Y639605D01*
X230633Y636617D01*
X230633Y633383D01*
X229395Y630395D01*
X227109Y628109D01*
X224121Y626871D01*
X207679Y626871D01*
G37*
%LPD*%
%LPC*%
G36*
X131479Y626871D02*
X131479Y626871D01*
X128491Y628109D01*
X126205Y630395D01*
X124967Y633383D01*
X124967Y636617D01*
X126205Y639605D01*
X128491Y641891D01*
X131479Y643129D01*
X147921Y643129D01*
X150909Y641891D01*
X153195Y639605D01*
X154433Y636617D01*
X154433Y633383D01*
X153195Y630395D01*
X150909Y628109D01*
X147921Y626871D01*
X131479Y626871D01*
G37*
%LPD*%
%LPC*%
G36*
X207679Y360171D02*
X207679Y360171D01*
X204691Y361409D01*
X202405Y363695D01*
X201167Y366683D01*
X201167Y369917D01*
X202405Y372905D01*
X204691Y375191D01*
X207679Y376429D01*
X224121Y376429D01*
X227109Y375191D01*
X229395Y372905D01*
X230633Y369917D01*
X230633Y366683D01*
X229395Y363695D01*
X227109Y361409D01*
X224121Y360171D01*
X207679Y360171D01*
G37*
%LPD*%
%LPC*%
G36*
X207679Y309371D02*
X207679Y309371D01*
X204691Y310609D01*
X202405Y312895D01*
X201167Y315883D01*
X201167Y319117D01*
X202405Y322105D01*
X204691Y324391D01*
X207679Y325629D01*
X224121Y325629D01*
X227109Y324391D01*
X229395Y322105D01*
X230633Y319117D01*
X230633Y315883D01*
X229395Y312895D01*
X227109Y310609D01*
X224121Y309371D01*
X207679Y309371D01*
G37*
%LPD*%
%LPC*%
G36*
X131479Y550671D02*
X131479Y550671D01*
X128491Y551909D01*
X126205Y554195D01*
X124967Y557183D01*
X124967Y560417D01*
X126205Y563405D01*
X128491Y565691D01*
X131479Y566929D01*
X147921Y566929D01*
X150909Y565691D01*
X153195Y563405D01*
X154433Y560417D01*
X154433Y557183D01*
X153195Y554195D01*
X150909Y551909D01*
X147921Y550671D01*
X131479Y550671D01*
G37*
%LPD*%
%LPC*%
G36*
X131479Y360171D02*
X131479Y360171D01*
X128491Y361409D01*
X126205Y363695D01*
X124967Y366683D01*
X124967Y369917D01*
X126205Y372905D01*
X128491Y375191D01*
X131479Y376429D01*
X147921Y376429D01*
X150909Y375191D01*
X153195Y372905D01*
X154433Y369917D01*
X154433Y366683D01*
X153195Y363695D01*
X150909Y361409D01*
X147921Y360171D01*
X131479Y360171D01*
G37*
%LPD*%
%LPC*%
G36*
X207679Y652271D02*
X207679Y652271D01*
X204691Y653509D01*
X202405Y655795D01*
X201167Y658783D01*
X201167Y662017D01*
X202405Y665005D01*
X204691Y667291D01*
X207679Y668529D01*
X224121Y668529D01*
X227109Y667291D01*
X229395Y665005D01*
X230633Y662017D01*
X230633Y658783D01*
X229395Y655795D01*
X227109Y653509D01*
X224121Y652271D01*
X207679Y652271D01*
G37*
%LPD*%
%LPC*%
G36*
X207679Y499871D02*
X207679Y499871D01*
X204691Y501109D01*
X202405Y503395D01*
X201167Y506383D01*
X201167Y509617D01*
X202405Y512605D01*
X204691Y514891D01*
X207679Y516129D01*
X224121Y516129D01*
X227109Y514891D01*
X229395Y512605D01*
X230633Y509617D01*
X230633Y506383D01*
X229395Y503395D01*
X227109Y501109D01*
X224121Y499871D01*
X207679Y499871D01*
G37*
%LPD*%
%LPC*%
G36*
X207679Y385571D02*
X207679Y385571D01*
X204691Y386809D01*
X202405Y389095D01*
X201167Y392083D01*
X201167Y395317D01*
X202405Y398305D01*
X204691Y400591D01*
X207679Y401829D01*
X224121Y401829D01*
X227109Y400591D01*
X229395Y398305D01*
X230633Y395317D01*
X230633Y392083D01*
X229395Y389095D01*
X227109Y386809D01*
X224121Y385571D01*
X207679Y385571D01*
G37*
%LPD*%
%LPC*%
G36*
X131479Y410971D02*
X131479Y410971D01*
X128491Y412209D01*
X126205Y414495D01*
X124967Y417483D01*
X124967Y420717D01*
X126205Y423705D01*
X128491Y425991D01*
X131479Y427229D01*
X147921Y427229D01*
X150909Y425991D01*
X153195Y423705D01*
X154433Y420717D01*
X154433Y417483D01*
X153195Y414495D01*
X150909Y412209D01*
X147921Y410971D01*
X131479Y410971D01*
G37*
%LPD*%
%LPC*%
G36*
X207679Y283971D02*
X207679Y283971D01*
X204691Y285209D01*
X202405Y287495D01*
X201167Y290483D01*
X201167Y293717D01*
X202405Y296705D01*
X204691Y298991D01*
X207679Y300229D01*
X224121Y300229D01*
X227109Y298991D01*
X229395Y296705D01*
X230633Y293717D01*
X230633Y290483D01*
X229395Y287495D01*
X227109Y285209D01*
X224121Y283971D01*
X207679Y283971D01*
G37*
%LPD*%
%LPC*%
G36*
X131479Y258571D02*
X131479Y258571D01*
X128491Y259809D01*
X126205Y262095D01*
X124967Y265083D01*
X124967Y268317D01*
X126205Y271305D01*
X128491Y273591D01*
X131479Y274829D01*
X147921Y274829D01*
X150909Y273591D01*
X153195Y271305D01*
X154433Y268317D01*
X154433Y265083D01*
X153195Y262095D01*
X150909Y259809D01*
X147921Y258571D01*
X131479Y258571D01*
G37*
%LPD*%
%LPC*%
G36*
X207679Y258571D02*
X207679Y258571D01*
X204691Y259809D01*
X202405Y262095D01*
X201167Y265083D01*
X201167Y268317D01*
X202405Y271305D01*
X204691Y273591D01*
X207679Y274829D01*
X224121Y274829D01*
X227109Y273591D01*
X229395Y271305D01*
X230633Y268317D01*
X230633Y265083D01*
X229395Y262095D01*
X227109Y259809D01*
X224121Y258571D01*
X207679Y258571D01*
G37*
%LPD*%
%LPC*%
G36*
X207679Y576071D02*
X207679Y576071D01*
X204691Y577309D01*
X202405Y579595D01*
X201167Y582583D01*
X201167Y585817D01*
X202405Y588805D01*
X204691Y591091D01*
X207679Y592329D01*
X224121Y592329D01*
X227109Y591091D01*
X229395Y588805D01*
X230633Y585817D01*
X230633Y582583D01*
X229395Y579595D01*
X227109Y577309D01*
X224121Y576071D01*
X207679Y576071D01*
G37*
%LPD*%
%LPC*%
G36*
X132155Y779835D02*
X132155Y779835D01*
X129375Y780987D01*
X127247Y783115D01*
X126095Y785895D01*
X126095Y788905D01*
X127247Y791685D01*
X129375Y793813D01*
X132155Y794965D01*
X147245Y794965D01*
X150025Y793813D01*
X152153Y791685D01*
X153305Y788905D01*
X153305Y785895D01*
X152153Y783115D01*
X150025Y780987D01*
X147245Y779835D01*
X132155Y779835D01*
G37*
%LPD*%
%LPC*%
G36*
X208355Y779835D02*
X208355Y779835D01*
X205575Y780987D01*
X203447Y783115D01*
X202295Y785895D01*
X202295Y788905D01*
X203447Y791685D01*
X205575Y793813D01*
X208355Y794965D01*
X223445Y794965D01*
X226225Y793813D01*
X228353Y791685D01*
X229505Y788905D01*
X229505Y785895D01*
X228353Y783115D01*
X226225Y780987D01*
X223445Y779835D01*
X208355Y779835D01*
G37*
%LPD*%
%LPC*%
G36*
X326833Y728471D02*
X326833Y728471D01*
X322071Y733233D01*
X322071Y739967D01*
X326833Y744729D01*
X333567Y744729D01*
X338329Y739967D01*
X338329Y733233D01*
X333567Y728471D01*
X326833Y728471D01*
G37*
%LPD*%
%LPC*%
G36*
X22033Y779271D02*
X22033Y779271D01*
X17271Y784033D01*
X17271Y790767D01*
X22033Y795529D01*
X28767Y795529D01*
X33529Y790767D01*
X33529Y784033D01*
X28767Y779271D01*
X22033Y779271D01*
G37*
%LPD*%
%LPC*%
G36*
X326833Y385571D02*
X326833Y385571D01*
X322071Y390333D01*
X322071Y397067D01*
X326833Y401829D01*
X333567Y401829D01*
X338329Y397067D01*
X338329Y390333D01*
X333567Y385571D01*
X326833Y385571D01*
G37*
%LPD*%
%LPC*%
G36*
X326833Y525271D02*
X326833Y525271D01*
X322071Y530033D01*
X322071Y536767D01*
X326833Y541529D01*
X333567Y541529D01*
X338329Y536767D01*
X338329Y530033D01*
X333567Y525271D01*
X326833Y525271D01*
G37*
%LPD*%
%LPC*%
G36*
X314133Y360171D02*
X314133Y360171D01*
X309371Y364933D01*
X309371Y371667D01*
X314133Y376429D01*
X320867Y376429D01*
X325629Y371667D01*
X325629Y364933D01*
X320867Y360171D01*
X314133Y360171D01*
G37*
%LPD*%
%LPC*%
G36*
X263333Y360171D02*
X263333Y360171D01*
X258571Y364933D01*
X258571Y371667D01*
X263333Y376429D01*
X270067Y376429D01*
X274829Y371667D01*
X274829Y364933D01*
X270067Y360171D01*
X263333Y360171D01*
G37*
%LPD*%
%LPC*%
G36*
X22033Y652271D02*
X22033Y652271D01*
X17271Y657033D01*
X17271Y663767D01*
X22033Y668529D01*
X28767Y668529D01*
X33529Y663767D01*
X33529Y657033D01*
X28767Y652271D01*
X22033Y652271D01*
G37*
%LPD*%
%LPC*%
G36*
X314133Y334771D02*
X314133Y334771D01*
X309371Y339533D01*
X309371Y346267D01*
X314133Y351029D01*
X320867Y351029D01*
X325629Y346267D01*
X325629Y339533D01*
X320867Y334771D01*
X314133Y334771D01*
G37*
%LPD*%
%LPC*%
G36*
X22033Y626871D02*
X22033Y626871D01*
X17271Y631633D01*
X17271Y638367D01*
X22033Y643129D01*
X28767Y643129D01*
X33529Y638367D01*
X33529Y631633D01*
X28767Y626871D01*
X22033Y626871D01*
G37*
%LPD*%
%LPC*%
G36*
X263333Y334771D02*
X263333Y334771D01*
X258571Y339533D01*
X258571Y346267D01*
X263333Y351029D01*
X270067Y351029D01*
X274829Y346267D01*
X274829Y339533D01*
X270067Y334771D01*
X263333Y334771D01*
G37*
%LPD*%
%LPC*%
G36*
X326833Y626871D02*
X326833Y626871D01*
X322071Y631633D01*
X322071Y638367D01*
X326833Y643129D01*
X333567Y643129D01*
X338329Y638367D01*
X338329Y631633D01*
X333567Y626871D01*
X326833Y626871D01*
G37*
%LPD*%
%LPC*%
G36*
X85533Y576071D02*
X85533Y576071D01*
X80771Y580833D01*
X80771Y587567D01*
X85533Y592329D01*
X92267Y592329D01*
X97029Y587567D01*
X97029Y580833D01*
X92267Y576071D01*
X85533Y576071D01*
G37*
%LPD*%
%LPC*%
G36*
X326833Y550671D02*
X326833Y550671D01*
X322071Y555433D01*
X322071Y562167D01*
X326833Y566929D01*
X333567Y566929D01*
X338329Y562167D01*
X338329Y555433D01*
X333567Y550671D01*
X326833Y550671D01*
G37*
%LPD*%
%LPC*%
G36*
X99983Y855471D02*
X99983Y855471D01*
X96995Y856709D01*
X94709Y858995D01*
X93471Y861983D01*
X93471Y865217D01*
X94709Y868205D01*
X96995Y870491D01*
X99983Y871729D01*
X103217Y871729D01*
X106205Y870491D01*
X108491Y868205D01*
X109729Y865217D01*
X109729Y861983D01*
X108491Y858995D01*
X106205Y856709D01*
X103217Y855471D01*
X99983Y855471D01*
G37*
%LPD*%
%LPC*%
G36*
X26923Y261873D02*
X26923Y261873D01*
X26923Y270511D01*
X33820Y270511D01*
X35399Y270261D01*
X36920Y269766D01*
X38345Y269040D01*
X39639Y268100D01*
X40770Y266969D01*
X41710Y265675D01*
X42436Y264250D01*
X42931Y262729D01*
X43066Y261873D01*
X26923Y261873D01*
G37*
%LPD*%
%LPC*%
G36*
X26923Y250189D02*
X26923Y250189D01*
X26923Y258827D01*
X43066Y258827D01*
X42931Y257971D01*
X42436Y256450D01*
X41710Y255025D01*
X40770Y253731D01*
X39639Y252600D01*
X38345Y251660D01*
X36920Y250934D01*
X35399Y250439D01*
X33820Y250189D01*
X26923Y250189D01*
G37*
%LPD*%
%LPC*%
G36*
X141223Y611123D02*
X141223Y611123D01*
X141223Y618745D01*
X147205Y618745D01*
X148971Y618393D01*
X150636Y617704D01*
X152134Y616703D01*
X153407Y615430D01*
X154408Y613932D01*
X155097Y612267D01*
X155325Y611123D01*
X141223Y611123D01*
G37*
%LPD*%
%LPC*%
G36*
X217423Y560323D02*
X217423Y560323D01*
X217423Y567945D01*
X223405Y567945D01*
X225171Y567593D01*
X226836Y566904D01*
X228334Y565903D01*
X229607Y564630D01*
X230608Y563132D01*
X231297Y561467D01*
X231525Y560323D01*
X217423Y560323D01*
G37*
%LPD*%
%LPC*%
G36*
X217423Y611123D02*
X217423Y611123D01*
X217423Y618745D01*
X223405Y618745D01*
X225171Y618393D01*
X226836Y617704D01*
X228334Y616703D01*
X229607Y615430D01*
X230608Y613932D01*
X231297Y612267D01*
X231525Y611123D01*
X217423Y611123D01*
G37*
%LPD*%
%LPC*%
G36*
X141223Y319023D02*
X141223Y319023D01*
X141223Y326645D01*
X147205Y326645D01*
X148971Y326293D01*
X150636Y325604D01*
X152134Y324603D01*
X153407Y323330D01*
X154408Y321832D01*
X155097Y320167D01*
X155325Y319023D01*
X141223Y319023D01*
G37*
%LPD*%
%LPC*%
G36*
X217423Y420623D02*
X217423Y420623D01*
X217423Y428245D01*
X223405Y428245D01*
X225171Y427893D01*
X226836Y427204D01*
X228334Y426203D01*
X229607Y424930D01*
X230608Y423432D01*
X231297Y421767D01*
X231525Y420623D01*
X217423Y420623D01*
G37*
%LPD*%
%LPC*%
G36*
X200275Y420623D02*
X200275Y420623D01*
X200503Y421767D01*
X201192Y423432D01*
X202193Y424930D01*
X203466Y426203D01*
X204964Y427204D01*
X206629Y427893D01*
X208395Y428245D01*
X214377Y428245D01*
X214377Y420623D01*
X200275Y420623D01*
G37*
%LPD*%
%LPC*%
G36*
X124075Y319023D02*
X124075Y319023D01*
X124303Y320167D01*
X124992Y321832D01*
X125993Y323330D01*
X127266Y324603D01*
X128764Y325604D01*
X130429Y326293D01*
X132195Y326645D01*
X138177Y326645D01*
X138177Y319023D01*
X124075Y319023D01*
G37*
%LPD*%
%LPC*%
G36*
X200275Y611123D02*
X200275Y611123D01*
X200503Y612267D01*
X201192Y613932D01*
X202193Y615430D01*
X203466Y616703D01*
X204964Y617704D01*
X206629Y618393D01*
X208395Y618745D01*
X214377Y618745D01*
X214377Y611123D01*
X200275Y611123D01*
G37*
%LPD*%
%LPC*%
G36*
X124075Y611123D02*
X124075Y611123D01*
X124303Y612267D01*
X124992Y613932D01*
X125993Y615430D01*
X127266Y616703D01*
X128764Y617704D01*
X130429Y618393D01*
X132195Y618745D01*
X138177Y618745D01*
X138177Y611123D01*
X124075Y611123D01*
G37*
%LPD*%
%LPC*%
G36*
X200275Y560323D02*
X200275Y560323D01*
X200503Y561467D01*
X201192Y563132D01*
X202193Y564630D01*
X203466Y565903D01*
X204964Y566904D01*
X206629Y567593D01*
X208395Y567945D01*
X214377Y567945D01*
X214377Y560323D01*
X200275Y560323D01*
G37*
%LPD*%
%LPC*%
G36*
X217423Y409955D02*
X217423Y409955D01*
X217423Y417577D01*
X231525Y417577D01*
X231297Y416433D01*
X230608Y414768D01*
X229607Y413270D01*
X228334Y411997D01*
X226836Y410996D01*
X225171Y410307D01*
X223405Y409955D01*
X217423Y409955D01*
G37*
%LPD*%
%LPC*%
G36*
X141223Y308355D02*
X141223Y308355D01*
X141223Y315977D01*
X155325Y315977D01*
X155097Y314833D01*
X154408Y313168D01*
X153407Y311670D01*
X152134Y310397D01*
X150636Y309396D01*
X148971Y308707D01*
X147205Y308355D01*
X141223Y308355D01*
G37*
%LPD*%
%LPC*%
G36*
X217423Y549655D02*
X217423Y549655D01*
X217423Y557277D01*
X231525Y557277D01*
X231297Y556133D01*
X230608Y554468D01*
X229607Y552970D01*
X228334Y551697D01*
X226836Y550696D01*
X225171Y550007D01*
X223405Y549655D01*
X217423Y549655D01*
G37*
%LPD*%
%LPC*%
G36*
X217423Y600455D02*
X217423Y600455D01*
X217423Y608077D01*
X231525Y608077D01*
X231297Y606933D01*
X230608Y605268D01*
X229607Y603770D01*
X228334Y602497D01*
X226836Y601496D01*
X225171Y600807D01*
X223405Y600455D01*
X217423Y600455D01*
G37*
%LPD*%
%LPC*%
G36*
X141223Y600455D02*
X141223Y600455D01*
X141223Y608077D01*
X155325Y608077D01*
X155097Y606933D01*
X154408Y605268D01*
X153407Y603770D01*
X152134Y602497D01*
X150636Y601496D01*
X148971Y600807D01*
X147205Y600455D01*
X141223Y600455D01*
G37*
%LPD*%
%LPC*%
G36*
X132195Y600455D02*
X132195Y600455D01*
X130429Y600807D01*
X128764Y601496D01*
X127266Y602497D01*
X125993Y603770D01*
X124992Y605268D01*
X124303Y606933D01*
X124075Y608077D01*
X138177Y608077D01*
X138177Y600455D01*
X132195Y600455D01*
G37*
%LPD*%
%LPC*%
G36*
X208395Y600455D02*
X208395Y600455D01*
X206629Y600807D01*
X204964Y601496D01*
X203466Y602497D01*
X202193Y603770D01*
X201192Y605268D01*
X200503Y606933D01*
X200275Y608077D01*
X214377Y608077D01*
X214377Y600455D01*
X208395Y600455D01*
G37*
%LPD*%
%LPC*%
G36*
X132195Y308355D02*
X132195Y308355D01*
X130429Y308707D01*
X128764Y309396D01*
X127266Y310397D01*
X125993Y311670D01*
X124992Y313168D01*
X124303Y314833D01*
X124075Y315977D01*
X138177Y315977D01*
X138177Y308355D01*
X132195Y308355D01*
G37*
%LPD*%
%LPC*%
G36*
X208395Y549655D02*
X208395Y549655D01*
X206629Y550007D01*
X204964Y550696D01*
X203466Y551697D01*
X202193Y552970D01*
X201192Y554468D01*
X200503Y556133D01*
X200275Y557277D01*
X214377Y557277D01*
X214377Y549655D01*
X208395Y549655D01*
G37*
%LPD*%
%LPC*%
G36*
X208395Y409955D02*
X208395Y409955D01*
X206629Y410307D01*
X204964Y410996D01*
X203466Y411997D01*
X202193Y413270D01*
X201192Y414768D01*
X200503Y416433D01*
X200275Y417577D01*
X214377Y417577D01*
X214377Y409955D01*
X208395Y409955D01*
G37*
%LPD*%
%LPC*%
G36*
X26923Y52323D02*
X26923Y52323D01*
X26923Y61342D01*
X29767Y61342D01*
X35942Y55167D01*
X35942Y52323D01*
X26923Y52323D01*
G37*
%LPD*%
%LPC*%
G36*
X26923Y40258D02*
X26923Y40258D01*
X26923Y49277D01*
X35942Y49277D01*
X35942Y46433D01*
X29767Y40258D01*
X26923Y40258D01*
G37*
%LPD*%
%LPC*%
G36*
X14858Y52323D02*
X14858Y52323D01*
X14858Y55167D01*
X21033Y61342D01*
X23877Y61342D01*
X23877Y52323D01*
X14858Y52323D01*
G37*
%LPD*%
%LPC*%
G36*
X21033Y40258D02*
X21033Y40258D01*
X14858Y46433D01*
X14858Y49277D01*
X23877Y49277D01*
X23877Y40258D01*
X21033Y40258D01*
G37*
%LPD*%
%LPC*%
G36*
X331723Y52323D02*
X331723Y52323D01*
X331723Y61232D01*
X332668Y61082D01*
X334247Y60569D01*
X335725Y59816D01*
X337067Y58841D01*
X338241Y57667D01*
X339216Y56325D01*
X339969Y54847D01*
X340482Y53268D01*
X340632Y52323D01*
X331723Y52323D01*
G37*
%LPD*%
%LPC*%
G36*
X319768Y52323D02*
X319768Y52323D01*
X319918Y53268D01*
X320431Y54847D01*
X321184Y56325D01*
X322159Y57667D01*
X323333Y58841D01*
X324675Y59816D01*
X326153Y60569D01*
X327732Y61082D01*
X328677Y61232D01*
X328677Y52323D01*
X319768Y52323D01*
G37*
%LPD*%
%LPC*%
G36*
X331723Y49277D02*
X331723Y49277D01*
X340632Y49277D01*
X340482Y48332D01*
X339969Y46753D01*
X339216Y45275D01*
X338241Y43933D01*
X337067Y42759D01*
X335725Y41784D01*
X334247Y41031D01*
X332668Y40518D01*
X331723Y40368D01*
X331723Y49277D01*
G37*
%LPD*%
%LPC*%
G36*
X327732Y40518D02*
X327732Y40518D01*
X326153Y41031D01*
X324675Y41784D01*
X323333Y42759D01*
X322159Y43933D01*
X321184Y45275D01*
X320431Y46753D01*
X319918Y48332D01*
X319768Y49277D01*
X328677Y49277D01*
X328677Y40368D01*
X327732Y40518D01*
G37*
%LPD*%
%LPC*%
G36*
X153923Y39623D02*
X153923Y39623D01*
X153923Y47753D01*
X156398Y47753D01*
X162053Y42098D01*
X162053Y39623D01*
X153923Y39623D01*
G37*
%LPD*%
%LPC*%
G36*
X179323Y39623D02*
X179323Y39623D01*
X179323Y47753D01*
X181798Y47753D01*
X187453Y42098D01*
X187453Y39623D01*
X179323Y39623D01*
G37*
%LPD*%
%LPC*%
G36*
X204723Y65023D02*
X204723Y65023D01*
X204723Y73153D01*
X207198Y73153D01*
X212853Y67498D01*
X212853Y65023D01*
X204723Y65023D01*
G37*
%LPD*%
%LPC*%
G36*
X179323Y65023D02*
X179323Y65023D01*
X179323Y73153D01*
X181798Y73153D01*
X187453Y67498D01*
X187453Y65023D01*
X179323Y65023D01*
G37*
%LPD*%
%LPC*%
G36*
X204723Y39623D02*
X204723Y39623D01*
X204723Y47753D01*
X207198Y47753D01*
X212853Y42098D01*
X212853Y39623D01*
X204723Y39623D01*
G37*
%LPD*%
%LPC*%
G36*
X153923Y65023D02*
X153923Y65023D01*
X153923Y73153D01*
X156398Y73153D01*
X162053Y67498D01*
X162053Y65023D01*
X153923Y65023D01*
G37*
%LPD*%
%LPC*%
G36*
X142747Y39623D02*
X142747Y39623D01*
X142747Y42098D01*
X148402Y47753D01*
X150877Y47753D01*
X150877Y39623D01*
X142747Y39623D01*
G37*
%LPD*%
%LPC*%
G36*
X193547Y39623D02*
X193547Y39623D01*
X193547Y42098D01*
X199202Y47753D01*
X201677Y47753D01*
X201677Y39623D01*
X193547Y39623D01*
G37*
%LPD*%
%LPC*%
G36*
X193547Y65023D02*
X193547Y65023D01*
X193547Y67498D01*
X199202Y73153D01*
X201677Y73153D01*
X201677Y65023D01*
X193547Y65023D01*
G37*
%LPD*%
%LPC*%
G36*
X142747Y65023D02*
X142747Y65023D01*
X142747Y67498D01*
X148402Y73153D01*
X150877Y73153D01*
X150877Y65023D01*
X142747Y65023D01*
G37*
%LPD*%
%LPC*%
G36*
X168147Y65023D02*
X168147Y65023D01*
X168147Y67498D01*
X173802Y73153D01*
X176277Y73153D01*
X176277Y65023D01*
X168147Y65023D01*
G37*
%LPD*%
%LPC*%
G36*
X168147Y39623D02*
X168147Y39623D01*
X168147Y42098D01*
X173802Y47753D01*
X176277Y47753D01*
X176277Y39623D01*
X168147Y39623D01*
G37*
%LPD*%
%LPC*%
G36*
X204723Y53847D02*
X204723Y53847D01*
X204723Y61977D01*
X212853Y61977D01*
X212853Y59502D01*
X207198Y53847D01*
X204723Y53847D01*
G37*
%LPD*%
%LPC*%
G36*
X179323Y28447D02*
X179323Y28447D01*
X179323Y36577D01*
X187453Y36577D01*
X187453Y34102D01*
X181798Y28447D01*
X179323Y28447D01*
G37*
%LPD*%
%LPC*%
G36*
X179323Y53847D02*
X179323Y53847D01*
X179323Y61977D01*
X187453Y61977D01*
X187453Y59502D01*
X181798Y53847D01*
X179323Y53847D01*
G37*
%LPD*%
%LPC*%
G36*
X204723Y28447D02*
X204723Y28447D01*
X204723Y36577D01*
X212853Y36577D01*
X212853Y34102D01*
X207198Y28447D01*
X204723Y28447D01*
G37*
%LPD*%
%LPC*%
G36*
X153923Y53847D02*
X153923Y53847D01*
X153923Y61977D01*
X162053Y61977D01*
X162053Y59502D01*
X156398Y53847D01*
X153923Y53847D01*
G37*
%LPD*%
%LPC*%
G36*
X153923Y28447D02*
X153923Y28447D01*
X153923Y36577D01*
X162053Y36577D01*
X162053Y34102D01*
X156398Y28447D01*
X153923Y28447D01*
G37*
%LPD*%
%LPC*%
G36*
X199202Y28447D02*
X199202Y28447D01*
X193547Y34102D01*
X193547Y36577D01*
X201677Y36577D01*
X201677Y28447D01*
X199202Y28447D01*
G37*
%LPD*%
%LPC*%
G36*
X173802Y53847D02*
X173802Y53847D01*
X168147Y59502D01*
X168147Y61977D01*
X176277Y61977D01*
X176277Y53847D01*
X173802Y53847D01*
G37*
%LPD*%
%LPC*%
G36*
X148402Y28447D02*
X148402Y28447D01*
X142747Y34102D01*
X142747Y36577D01*
X150877Y36577D01*
X150877Y28447D01*
X148402Y28447D01*
G37*
%LPD*%
%LPC*%
G36*
X199202Y53847D02*
X199202Y53847D01*
X193547Y59502D01*
X193547Y61977D01*
X201677Y61977D01*
X201677Y53847D01*
X199202Y53847D01*
G37*
%LPD*%
%LPC*%
G36*
X173802Y28447D02*
X173802Y28447D01*
X168147Y34102D01*
X168147Y36577D01*
X176277Y36577D01*
X176277Y28447D01*
X173802Y28447D01*
G37*
%LPD*%
%LPC*%
G36*
X148402Y53847D02*
X148402Y53847D01*
X142747Y59502D01*
X142747Y61977D01*
X150877Y61977D01*
X150877Y53847D01*
X148402Y53847D01*
G37*
%LPD*%
%LPC*%
G36*
X306323Y814323D02*
X306323Y814323D01*
X306323Y821945D01*
X308588Y821945D01*
X313945Y816588D01*
X313945Y814323D01*
X306323Y814323D01*
G37*
%LPD*%
%LPC*%
G36*
X26923Y763523D02*
X26923Y763523D01*
X26923Y771145D01*
X29188Y771145D01*
X34545Y765788D01*
X34545Y763523D01*
X26923Y763523D01*
G37*
%LPD*%
%LPC*%
G36*
X319023Y585723D02*
X319023Y585723D01*
X319023Y593345D01*
X321288Y593345D01*
X326645Y587988D01*
X326645Y585723D01*
X319023Y585723D01*
G37*
%LPD*%
%LPC*%
G36*
X26923Y344423D02*
X26923Y344423D01*
X26923Y352045D01*
X29188Y352045D01*
X34545Y346688D01*
X34545Y344423D01*
X26923Y344423D01*
G37*
%LPD*%
%LPC*%
G36*
X103123Y890523D02*
X103123Y890523D01*
X103123Y898145D01*
X105388Y898145D01*
X110745Y892788D01*
X110745Y890523D01*
X103123Y890523D01*
G37*
%LPD*%
%LPC*%
G36*
X26923Y369823D02*
X26923Y369823D01*
X26923Y377445D01*
X29188Y377445D01*
X34545Y372088D01*
X34545Y369823D01*
X26923Y369823D01*
G37*
%LPD*%
%LPC*%
G36*
X26923Y319023D02*
X26923Y319023D01*
X26923Y326645D01*
X29188Y326645D01*
X34545Y321288D01*
X34545Y319023D01*
X26923Y319023D01*
G37*
%LPD*%
%LPC*%
G36*
X306323Y268223D02*
X306323Y268223D01*
X306323Y275845D01*
X308588Y275845D01*
X313945Y270488D01*
X313945Y268223D01*
X306323Y268223D01*
G37*
%LPD*%
%LPC*%
G36*
X331723Y763523D02*
X331723Y763523D01*
X331723Y771145D01*
X333988Y771145D01*
X339345Y765788D01*
X339345Y763523D01*
X331723Y763523D01*
G37*
%LPD*%
%LPC*%
G36*
X26923Y687323D02*
X26923Y687323D01*
X26923Y694945D01*
X29188Y694945D01*
X34545Y689588D01*
X34545Y687323D01*
X26923Y687323D01*
G37*
%LPD*%
%LPC*%
G36*
X28955Y738123D02*
X28955Y738123D01*
X28955Y740388D01*
X34312Y745745D01*
X36577Y745745D01*
X36577Y738123D01*
X28955Y738123D01*
G37*
%LPD*%
%LPC*%
G36*
X295655Y814323D02*
X295655Y814323D01*
X295655Y816588D01*
X301012Y821945D01*
X303277Y821945D01*
X303277Y814323D01*
X295655Y814323D01*
G37*
%LPD*%
%LPC*%
G36*
X16255Y687323D02*
X16255Y687323D01*
X16255Y689588D01*
X21612Y694945D01*
X23877Y694945D01*
X23877Y687323D01*
X16255Y687323D01*
G37*
%LPD*%
%LPC*%
G36*
X16255Y763523D02*
X16255Y763523D01*
X16255Y765788D01*
X21612Y771145D01*
X23877Y771145D01*
X23877Y763523D01*
X16255Y763523D01*
G37*
%LPD*%
%LPC*%
G36*
X308355Y585723D02*
X308355Y585723D01*
X308355Y587988D01*
X313712Y593345D01*
X315977Y593345D01*
X315977Y585723D01*
X308355Y585723D01*
G37*
%LPD*%
%LPC*%
G36*
X16255Y344423D02*
X16255Y344423D01*
X16255Y346688D01*
X21612Y352045D01*
X23877Y352045D01*
X23877Y344423D01*
X16255Y344423D01*
G37*
%LPD*%
%LPC*%
G36*
X16255Y369823D02*
X16255Y369823D01*
X16255Y372088D01*
X21612Y377445D01*
X23877Y377445D01*
X23877Y369823D01*
X16255Y369823D01*
G37*
%LPD*%
%LPC*%
G36*
X16255Y319023D02*
X16255Y319023D01*
X16255Y321288D01*
X21612Y326645D01*
X23877Y326645D01*
X23877Y319023D01*
X16255Y319023D01*
G37*
%LPD*%
%LPC*%
G36*
X295655Y268223D02*
X295655Y268223D01*
X295655Y270488D01*
X301012Y275845D01*
X303277Y275845D01*
X303277Y268223D01*
X295655Y268223D01*
G37*
%LPD*%
%LPC*%
G36*
X321055Y763523D02*
X321055Y763523D01*
X321055Y765788D01*
X326412Y771145D01*
X328677Y771145D01*
X328677Y763523D01*
X321055Y763523D01*
G37*
%LPD*%
%LPC*%
G36*
X92455Y890523D02*
X92455Y890523D01*
X92455Y892788D01*
X97812Y898145D01*
X100077Y898145D01*
X100077Y890523D01*
X92455Y890523D01*
G37*
%LPD*%
%LPC*%
G36*
X28955Y585723D02*
X28955Y585723D01*
X28955Y587988D01*
X34312Y593345D01*
X36577Y593345D01*
X36577Y585723D01*
X28955Y585723D01*
G37*
%LPD*%
%LPC*%
G36*
X103123Y879855D02*
X103123Y879855D01*
X103123Y887477D01*
X110745Y887477D01*
X110745Y885212D01*
X105388Y879855D01*
X103123Y879855D01*
G37*
%LPD*%
%LPC*%
G36*
X331723Y752855D02*
X331723Y752855D01*
X331723Y760477D01*
X339345Y760477D01*
X339345Y758212D01*
X333988Y752855D01*
X331723Y752855D01*
G37*
%LPD*%
%LPC*%
G36*
X26923Y752855D02*
X26923Y752855D01*
X26923Y760477D01*
X34545Y760477D01*
X34545Y758212D01*
X29188Y752855D01*
X26923Y752855D01*
G37*
%LPD*%
%LPC*%
G36*
X306323Y257555D02*
X306323Y257555D01*
X306323Y265177D01*
X313945Y265177D01*
X313945Y262912D01*
X308588Y257555D01*
X306323Y257555D01*
G37*
%LPD*%
%LPC*%
G36*
X26923Y333755D02*
X26923Y333755D01*
X26923Y341377D01*
X34545Y341377D01*
X34545Y339112D01*
X29188Y333755D01*
X26923Y333755D01*
G37*
%LPD*%
%LPC*%
G36*
X319023Y575055D02*
X319023Y575055D01*
X319023Y582677D01*
X326645Y582677D01*
X326645Y580412D01*
X321288Y575055D01*
X319023Y575055D01*
G37*
%LPD*%
%LPC*%
G36*
X26923Y359155D02*
X26923Y359155D01*
X26923Y366777D01*
X34545Y366777D01*
X34545Y364512D01*
X29188Y359155D01*
X26923Y359155D01*
G37*
%LPD*%
%LPC*%
G36*
X306323Y803655D02*
X306323Y803655D01*
X306323Y811277D01*
X313945Y811277D01*
X313945Y809012D01*
X308588Y803655D01*
X306323Y803655D01*
G37*
%LPD*%
%LPC*%
G36*
X26923Y676655D02*
X26923Y676655D01*
X26923Y684277D01*
X34545Y684277D01*
X34545Y682012D01*
X29188Y676655D01*
X26923Y676655D01*
G37*
%LPD*%
%LPC*%
G36*
X26923Y308355D02*
X26923Y308355D01*
X26923Y315977D01*
X34545Y315977D01*
X34545Y313712D01*
X29188Y308355D01*
X26923Y308355D01*
G37*
%LPD*%
%LPC*%
G36*
X301012Y803655D02*
X301012Y803655D01*
X295655Y809012D01*
X295655Y811277D01*
X303277Y811277D01*
X303277Y803655D01*
X301012Y803655D01*
G37*
%LPD*%
%LPC*%
G36*
X21612Y333755D02*
X21612Y333755D01*
X16255Y339112D01*
X16255Y341377D01*
X23877Y341377D01*
X23877Y333755D01*
X21612Y333755D01*
G37*
%LPD*%
%LPC*%
G36*
X34312Y575055D02*
X34312Y575055D01*
X28955Y580412D01*
X28955Y582677D01*
X36577Y582677D01*
X36577Y575055D01*
X34312Y575055D01*
G37*
%LPD*%
%LPC*%
G36*
X313712Y575055D02*
X313712Y575055D01*
X308355Y580412D01*
X308355Y582677D01*
X315977Y582677D01*
X315977Y575055D01*
X313712Y575055D01*
G37*
%LPD*%
%LPC*%
G36*
X21612Y676655D02*
X21612Y676655D01*
X16255Y682012D01*
X16255Y684277D01*
X23877Y684277D01*
X23877Y676655D01*
X21612Y676655D01*
G37*
%LPD*%
%LPC*%
G36*
X34312Y727455D02*
X34312Y727455D01*
X28955Y732812D01*
X28955Y735077D01*
X36577Y735077D01*
X36577Y727455D01*
X34312Y727455D01*
G37*
%LPD*%
%LPC*%
G36*
X21612Y359155D02*
X21612Y359155D01*
X16255Y364512D01*
X16255Y366777D01*
X23877Y366777D01*
X23877Y359155D01*
X21612Y359155D01*
G37*
%LPD*%
%LPC*%
G36*
X301012Y257555D02*
X301012Y257555D01*
X295655Y262912D01*
X295655Y265177D01*
X303277Y265177D01*
X303277Y257555D01*
X301012Y257555D01*
G37*
%LPD*%
%LPC*%
G36*
X21612Y308355D02*
X21612Y308355D01*
X16255Y313712D01*
X16255Y315977D01*
X23877Y315977D01*
X23877Y308355D01*
X21612Y308355D01*
G37*
%LPD*%
%LPC*%
G36*
X326412Y752855D02*
X326412Y752855D01*
X321055Y758212D01*
X321055Y760477D01*
X328677Y760477D01*
X328677Y752855D01*
X326412Y752855D01*
G37*
%LPD*%
%LPC*%
G36*
X97812Y879855D02*
X97812Y879855D01*
X92455Y885212D01*
X92455Y887477D01*
X100077Y887477D01*
X100077Y879855D01*
X97812Y879855D01*
G37*
%LPD*%
%LPC*%
G36*
X21612Y752855D02*
X21612Y752855D01*
X16255Y758212D01*
X16255Y760477D01*
X23877Y760477D01*
X23877Y752855D01*
X21612Y752855D01*
G37*
%LPD*%
%LPC*%
G36*
X101599Y888999D02*
X101599Y888999D01*
X101599Y889001D01*
X101601Y889001D01*
X101601Y888999D01*
X101599Y888999D01*
G37*
%LPD*%
%LPC*%
G36*
X215899Y419099D02*
X215899Y419099D01*
X215899Y419101D01*
X215901Y419101D01*
X215901Y419099D01*
X215899Y419099D01*
G37*
%LPD*%
%LPC*%
G36*
X330199Y50799D02*
X330199Y50799D01*
X330199Y50801D01*
X330201Y50801D01*
X330201Y50799D01*
X330199Y50799D01*
G37*
%LPD*%
%LPC*%
G36*
X25399Y50799D02*
X25399Y50799D01*
X25399Y50801D01*
X25401Y50801D01*
X25401Y50799D01*
X25399Y50799D01*
G37*
%LPD*%
%LPC*%
G36*
X304799Y266699D02*
X304799Y266699D01*
X304799Y266701D01*
X304801Y266701D01*
X304801Y266699D01*
X304799Y266699D01*
G37*
%LPD*%
%LPC*%
G36*
X25399Y761999D02*
X25399Y761999D01*
X25399Y762001D01*
X25401Y762001D01*
X25401Y761999D01*
X25399Y761999D01*
G37*
%LPD*%
%LPC*%
G36*
X25399Y317499D02*
X25399Y317499D01*
X25399Y317501D01*
X25401Y317501D01*
X25401Y317499D01*
X25399Y317499D01*
G37*
%LPD*%
%LPC*%
G36*
X139699Y317499D02*
X139699Y317499D01*
X139699Y317501D01*
X139701Y317501D01*
X139701Y317499D01*
X139699Y317499D01*
G37*
%LPD*%
%LPC*%
G36*
X25399Y685799D02*
X25399Y685799D01*
X25399Y685801D01*
X25401Y685801D01*
X25401Y685799D01*
X25399Y685799D01*
G37*
%LPD*%
%LPC*%
G36*
X304799Y812799D02*
X304799Y812799D01*
X304799Y812801D01*
X304801Y812801D01*
X304801Y812799D01*
X304799Y812799D01*
G37*
%LPD*%
%LPC*%
G36*
X330199Y761999D02*
X330199Y761999D01*
X330199Y762001D01*
X330201Y762001D01*
X330201Y761999D01*
X330199Y761999D01*
G37*
%LPD*%
%LPC*%
G36*
X215899Y558799D02*
X215899Y558799D01*
X215899Y558801D01*
X215901Y558801D01*
X215901Y558799D01*
X215899Y558799D01*
G37*
%LPD*%
%LPC*%
G36*
X215899Y609599D02*
X215899Y609599D01*
X215899Y609601D01*
X215901Y609601D01*
X215901Y609599D01*
X215899Y609599D01*
G37*
%LPD*%
%LPC*%
G36*
X139699Y609599D02*
X139699Y609599D01*
X139699Y609601D01*
X139701Y609601D01*
X139701Y609599D01*
X139699Y609599D01*
G37*
%LPD*%
%LPC*%
G36*
X152399Y38099D02*
X152399Y38099D01*
X152399Y38101D01*
X152401Y38101D01*
X152401Y38099D01*
X152399Y38099D01*
G37*
%LPD*%
%LPC*%
G36*
X203199Y38099D02*
X203199Y38099D01*
X203199Y38101D01*
X203201Y38101D01*
X203201Y38099D01*
X203199Y38099D01*
G37*
%LPD*%
%LPC*%
G36*
X177799Y38099D02*
X177799Y38099D01*
X177799Y38101D01*
X177801Y38101D01*
X177801Y38099D01*
X177799Y38099D01*
G37*
%LPD*%
%LPC*%
G36*
X203199Y63499D02*
X203199Y63499D01*
X203199Y63501D01*
X203201Y63501D01*
X203201Y63499D01*
X203199Y63499D01*
G37*
%LPD*%
%LPC*%
G36*
X25399Y368299D02*
X25399Y368299D01*
X25399Y368301D01*
X25401Y368301D01*
X25401Y368299D01*
X25399Y368299D01*
G37*
%LPD*%
%LPC*%
G36*
X152399Y63499D02*
X152399Y63499D01*
X152399Y63501D01*
X152401Y63501D01*
X152401Y63499D01*
X152399Y63499D01*
G37*
%LPD*%
%LPC*%
G36*
X317499Y584199D02*
X317499Y584199D01*
X317499Y584201D01*
X317501Y584201D01*
X317501Y584199D01*
X317499Y584199D01*
G37*
%LPD*%
%LPC*%
G36*
X25399Y342899D02*
X25399Y342899D01*
X25399Y342901D01*
X25401Y342901D01*
X25401Y342899D01*
X25399Y342899D01*
G37*
%LPD*%
%LPC*%
G36*
X177799Y63499D02*
X177799Y63499D01*
X177799Y63501D01*
X177801Y63501D01*
X177801Y63499D01*
X177799Y63499D01*
G37*
%LPD*%
D10*
X266700Y368300D03*
X317500Y368300D03*
X266700Y342900D03*
X317500Y342900D03*
D11*
X304800Y266700D03*
X254000Y266700D03*
X317500Y584200D03*
X266700Y584200D03*
D10*
X38100Y736600D03*
X88900Y736600D03*
D11*
X304800Y812800D03*
X254000Y812800D03*
D12*
X304800Y50800D03*
D13*
X330200Y50800D03*
D12*
X25400Y50800D03*
D13*
X50800Y50800D03*
D10*
X38100Y584200D03*
X88900Y584200D03*
D14*
X101600Y863600D03*
D15*
X25400Y863600D03*
D14*
X25400Y711200D03*
D15*
X101600Y711200D03*
D16*
X209296Y266700D02*
X222504Y266700D01*
X222504Y292100D02*
X209296Y292100D01*
X209296Y317500D02*
X222504Y317500D01*
X222504Y342900D02*
X209296Y342900D01*
X209296Y368300D02*
X222504Y368300D01*
X222504Y393700D02*
X209296Y393700D01*
X209296Y419100D02*
X222504Y419100D01*
X222504Y444500D02*
X209296Y444500D01*
X146304Y444500D02*
X133096Y444500D01*
X133096Y419100D02*
X146304Y419100D01*
X146304Y393700D02*
X133096Y393700D01*
X133096Y368300D02*
X146304Y368300D01*
X146304Y342900D02*
X133096Y342900D01*
X133096Y317500D02*
X146304Y317500D01*
X146304Y292100D02*
X133096Y292100D01*
X133096Y266700D02*
X146304Y266700D01*
X209296Y508000D02*
X222504Y508000D01*
X222504Y533400D02*
X209296Y533400D01*
X209296Y660400D02*
X222504Y660400D01*
X146304Y660400D02*
X133096Y660400D01*
X209296Y558800D02*
X222504Y558800D01*
X222504Y584200D02*
X209296Y584200D01*
X209296Y635000D02*
X222504Y635000D01*
X222504Y609600D02*
X209296Y609600D01*
X146304Y635000D02*
X133096Y635000D01*
X133096Y609600D02*
X146304Y609600D01*
X146304Y584200D02*
X133096Y584200D01*
X133096Y558800D02*
X146304Y558800D01*
X146304Y533400D02*
X133096Y533400D01*
X133096Y508000D02*
X146304Y508000D01*
D17*
X209860Y736600D02*
X221940Y736600D01*
X221940Y762000D02*
X209860Y762000D01*
X209860Y787400D02*
X221940Y787400D01*
X221940Y812800D02*
X209860Y812800D01*
X145740Y812800D02*
X133660Y812800D01*
X133660Y787400D02*
X145740Y787400D01*
X145740Y762000D02*
X133660Y762000D01*
X133660Y736600D02*
X145740Y736600D01*
D18*
X127000Y38100D03*
X127000Y63500D03*
X152400Y38100D03*
X152400Y63500D03*
X177800Y38100D03*
X177800Y63500D03*
X203200Y38100D03*
X203200Y63500D03*
X228600Y38100D03*
X228600Y63500D03*
D10*
X254000Y393700D03*
X330200Y393700D03*
D11*
X330200Y533400D03*
X254000Y533400D03*
X330200Y558800D03*
X254000Y558800D03*
X101600Y317500D03*
X25400Y317500D03*
D10*
X25400Y635000D03*
X101600Y635000D03*
D11*
X101600Y368300D03*
X25400Y368300D03*
X330200Y635000D03*
X254000Y635000D03*
X330200Y660400D03*
X254000Y660400D03*
X101600Y342900D03*
X25400Y342900D03*
X330200Y762000D03*
X254000Y762000D03*
D10*
X25400Y838200D03*
X101600Y838200D03*
D11*
X101600Y889000D03*
X25400Y889000D03*
X101600Y812800D03*
X25400Y812800D03*
D10*
X25400Y762000D03*
X101600Y762000D03*
X25400Y685800D03*
X101600Y685800D03*
D11*
X101600Y787400D03*
X25400Y787400D03*
X101600Y660400D03*
X25400Y660400D03*
X101600Y419100D03*
X25400Y419100D03*
X330200Y736600D03*
X254000Y736600D03*
D19*
X322580Y965200D02*
X337820Y965200D01*
X337820Y939800D02*
X322580Y939800D01*
X322580Y914400D02*
X337820Y914400D01*
X337820Y889000D02*
X322580Y889000D01*
X322580Y863600D02*
X337820Y863600D01*
X33020Y158750D02*
X17780Y158750D01*
X17780Y184150D02*
X33020Y184150D01*
X33020Y209550D02*
X17780Y209550D01*
X17780Y234950D02*
X33020Y234950D01*
X33020Y260350D02*
X17780Y260350D01*
D20*
X88900Y736600D02*
X139700Y736600D01*
X127000Y50800D02*
X50800Y50800D01*
X127000Y50800D02*
X127000Y38100D01*
X127000Y50800D02*
X127000Y63500D01*
X127000Y88900D01*
X165100Y127000D01*
X165100Y393700D01*
X139700Y393700D01*
X165100Y393700D02*
X165100Y571500D01*
X165100Y736600D01*
X139700Y736600D01*
X165100Y736600D02*
X165100Y927100D01*
X203200Y965200D01*
X330200Y965200D01*
D21*
X165100Y571500D03*
D20*
X215900Y812800D02*
X254000Y812800D01*
X228600Y63500D02*
X228600Y50800D01*
X228600Y38100D01*
X228600Y50800D02*
X304800Y50800D01*
X215900Y812800D02*
X203200Y812800D01*
X190500Y800100D01*
X190500Y127000D02*
X228600Y88900D01*
X228600Y63500D01*
X190500Y596900D02*
X190500Y800100D01*
X190500Y596900D02*
X190500Y406400D01*
X190500Y127000D01*
D21*
X190500Y406400D03*
X190500Y596900D03*
D22*
X177800Y444500D02*
X177800Y234950D01*
D21*
X177800Y444500D03*
X177800Y234950D03*
D22*
X292100Y939800D02*
X330200Y939800D01*
X292100Y939800D02*
X273050Y920750D01*
X285750Y628650D02*
X254000Y596900D01*
X254000Y558800D01*
X285750Y628650D02*
X285750Y698500D01*
X273050Y711200D01*
X273050Y920750D01*
D21*
X76200Y660400D03*
D22*
X76200Y914400D01*
D21*
X76200Y914400D03*
D22*
X101600Y660400D02*
X139700Y660400D01*
X101600Y660400D02*
X101600Y635000D01*
X311150Y787400D02*
X330200Y806450D01*
X330200Y863600D01*
X273050Y654050D02*
X254000Y635000D01*
X273050Y654050D02*
X273050Y685800D01*
X311150Y685800D02*
X311150Y787400D01*
D21*
X273050Y685800D03*
X311150Y685800D03*
D22*
X25400Y419100D02*
X50800Y393700D01*
X50800Y330200D01*
D21*
X50800Y330200D03*
D22*
X25400Y419100D02*
X25400Y476250D01*
X177800Y476250D02*
X177800Y787400D01*
D21*
X177800Y476250D03*
X25400Y476250D03*
X177800Y787400D03*
D22*
X215900Y762000D02*
X254000Y762000D01*
X254000Y736600D02*
X215900Y736600D01*
X241300Y463550D02*
X241300Y247650D01*
X241300Y463550D02*
X234950Y469900D01*
X234950Y495300D01*
X241300Y501650D01*
X241300Y685800D01*
D21*
X241300Y247650D03*
D22*
X241300Y685800D02*
X254000Y698500D01*
X254000Y736600D01*
X101600Y317500D02*
X101600Y304800D01*
X114300Y292100D01*
X139700Y292100D01*
X285750Y292100D02*
X285750Y425450D01*
D21*
X285750Y292100D03*
X285750Y425450D03*
D22*
X139700Y342900D02*
X101600Y342900D01*
X311150Y641350D02*
X330200Y660400D01*
X311150Y641350D02*
X311150Y615950D01*
X298450Y603250D01*
X298450Y330200D01*
D21*
X298450Y330200D03*
D22*
X88900Y368300D02*
X76200Y381000D01*
X88900Y368300D02*
X101600Y368300D01*
X63500Y469900D02*
X63500Y615950D01*
X63500Y469900D02*
X76200Y457200D01*
X76200Y381000D01*
D21*
X63500Y615950D03*
D22*
X101600Y685800D02*
X101600Y711200D01*
X101600Y685800D02*
X88900Y673100D01*
X114300Y590550D02*
X114300Y355600D01*
X114300Y590550D02*
X88900Y615950D01*
X88900Y673100D01*
D21*
X114300Y355600D03*
D22*
X139700Y508000D02*
X139700Y533400D01*
X139700Y508000D02*
X139700Y444500D01*
X25400Y863600D02*
X25400Y889000D01*
X25400Y863600D02*
X25400Y838200D01*
X101600Y812800D02*
X139700Y812800D01*
X101600Y812800D02*
X101600Y838200D01*
X63500Y863600D02*
X63500Y666750D01*
X50800Y654050D01*
X50800Y463550D01*
X63500Y450850D01*
X63500Y171450D01*
X50800Y158750D01*
X25400Y158750D01*
D21*
X63500Y863600D03*
D22*
X133350Y762000D02*
X139700Y762000D01*
X133350Y762000D02*
X120650Y774700D01*
X120650Y800100D01*
D21*
X120650Y800100D03*
D22*
X50800Y800100D02*
X38100Y812800D01*
X25400Y812800D01*
X25400Y711200D02*
X38100Y711200D01*
X50800Y723900D01*
X50800Y800100D01*
D21*
X50800Y800100D03*
D22*
X101600Y787400D02*
X101600Y762000D01*
X285750Y876300D02*
X298450Y889000D01*
X330200Y889000D01*
X285750Y717550D02*
X298450Y704850D01*
X298450Y622300D02*
X285750Y609600D01*
X285750Y571500D01*
X285750Y717550D02*
X285750Y876300D01*
X298450Y704850D02*
X298450Y622300D01*
D21*
X285750Y571500D03*
M02*
