G04 EAGLE Gerber RS-274X export*
G75*
%MOMM*%
%FSLAX34Y34*%
%LPD*%
%INBoard Outline*%
%IPPOS*%
%AMOC8*
5,1,8,0,0,1.08239X$1,22.5*%
G01*
%ADD10C,0.000000*%
%ADD11C,0.254000*%


D10*
X0Y0D02*
X355600Y0D01*
X355600Y990600D01*
X0Y990500D01*
X0Y0D01*
X250698Y482600D02*
X250703Y482993D01*
X250717Y483385D01*
X250741Y483777D01*
X250775Y484168D01*
X250818Y484559D01*
X250871Y484948D01*
X250934Y485336D01*
X251005Y485722D01*
X251087Y486106D01*
X251178Y486488D01*
X251278Y486868D01*
X251387Y487245D01*
X251506Y487620D01*
X251633Y487991D01*
X251770Y488359D01*
X251916Y488724D01*
X252071Y489085D01*
X252234Y489442D01*
X252407Y489795D01*
X252587Y490143D01*
X252777Y490487D01*
X252975Y490827D01*
X253181Y491161D01*
X253395Y491490D01*
X253617Y491814D01*
X253847Y492132D01*
X254085Y492445D01*
X254330Y492752D01*
X254583Y493052D01*
X254843Y493346D01*
X255111Y493634D01*
X255385Y493915D01*
X255666Y494189D01*
X255954Y494457D01*
X256248Y494717D01*
X256548Y494970D01*
X256855Y495215D01*
X257168Y495453D01*
X257486Y495683D01*
X257810Y495905D01*
X258139Y496119D01*
X258473Y496325D01*
X258813Y496523D01*
X259157Y496713D01*
X259505Y496893D01*
X259858Y497066D01*
X260215Y497229D01*
X260576Y497384D01*
X260941Y497530D01*
X261309Y497667D01*
X261680Y497794D01*
X262055Y497913D01*
X262432Y498022D01*
X262812Y498122D01*
X263194Y498213D01*
X263578Y498295D01*
X263964Y498366D01*
X264352Y498429D01*
X264741Y498482D01*
X265132Y498525D01*
X265523Y498559D01*
X265915Y498583D01*
X266307Y498597D01*
X266700Y498602D01*
X267093Y498597D01*
X267485Y498583D01*
X267877Y498559D01*
X268268Y498525D01*
X268659Y498482D01*
X269048Y498429D01*
X269436Y498366D01*
X269822Y498295D01*
X270206Y498213D01*
X270588Y498122D01*
X270968Y498022D01*
X271345Y497913D01*
X271720Y497794D01*
X272091Y497667D01*
X272459Y497530D01*
X272824Y497384D01*
X273185Y497229D01*
X273542Y497066D01*
X273895Y496893D01*
X274243Y496713D01*
X274587Y496523D01*
X274927Y496325D01*
X275261Y496119D01*
X275590Y495905D01*
X275914Y495683D01*
X276232Y495453D01*
X276545Y495215D01*
X276852Y494970D01*
X277152Y494717D01*
X277446Y494457D01*
X277734Y494189D01*
X278015Y493915D01*
X278289Y493634D01*
X278557Y493346D01*
X278817Y493052D01*
X279070Y492752D01*
X279315Y492445D01*
X279553Y492132D01*
X279783Y491814D01*
X280005Y491490D01*
X280219Y491161D01*
X280425Y490827D01*
X280623Y490487D01*
X280813Y490143D01*
X280993Y489795D01*
X281166Y489442D01*
X281329Y489085D01*
X281484Y488724D01*
X281630Y488359D01*
X281767Y487991D01*
X281894Y487620D01*
X282013Y487245D01*
X282122Y486868D01*
X282222Y486488D01*
X282313Y486106D01*
X282395Y485722D01*
X282466Y485336D01*
X282529Y484948D01*
X282582Y484559D01*
X282625Y484168D01*
X282659Y483777D01*
X282683Y483385D01*
X282697Y482993D01*
X282702Y482600D01*
X282697Y482207D01*
X282683Y481815D01*
X282659Y481423D01*
X282625Y481032D01*
X282582Y480641D01*
X282529Y480252D01*
X282466Y479864D01*
X282395Y479478D01*
X282313Y479094D01*
X282222Y478712D01*
X282122Y478332D01*
X282013Y477955D01*
X281894Y477580D01*
X281767Y477209D01*
X281630Y476841D01*
X281484Y476476D01*
X281329Y476115D01*
X281166Y475758D01*
X280993Y475405D01*
X280813Y475057D01*
X280623Y474713D01*
X280425Y474373D01*
X280219Y474039D01*
X280005Y473710D01*
X279783Y473386D01*
X279553Y473068D01*
X279315Y472755D01*
X279070Y472448D01*
X278817Y472148D01*
X278557Y471854D01*
X278289Y471566D01*
X278015Y471285D01*
X277734Y471011D01*
X277446Y470743D01*
X277152Y470483D01*
X276852Y470230D01*
X276545Y469985D01*
X276232Y469747D01*
X275914Y469517D01*
X275590Y469295D01*
X275261Y469081D01*
X274927Y468875D01*
X274587Y468677D01*
X274243Y468487D01*
X273895Y468307D01*
X273542Y468134D01*
X273185Y467971D01*
X272824Y467816D01*
X272459Y467670D01*
X272091Y467533D01*
X271720Y467406D01*
X271345Y467287D01*
X270968Y467178D01*
X270588Y467078D01*
X270206Y466987D01*
X269822Y466905D01*
X269436Y466834D01*
X269048Y466771D01*
X268659Y466718D01*
X268268Y466675D01*
X267877Y466641D01*
X267485Y466617D01*
X267093Y466603D01*
X266700Y466598D01*
X266307Y466603D01*
X265915Y466617D01*
X265523Y466641D01*
X265132Y466675D01*
X264741Y466718D01*
X264352Y466771D01*
X263964Y466834D01*
X263578Y466905D01*
X263194Y466987D01*
X262812Y467078D01*
X262432Y467178D01*
X262055Y467287D01*
X261680Y467406D01*
X261309Y467533D01*
X260941Y467670D01*
X260576Y467816D01*
X260215Y467971D01*
X259858Y468134D01*
X259505Y468307D01*
X259157Y468487D01*
X258813Y468677D01*
X258473Y468875D01*
X258139Y469081D01*
X257810Y469295D01*
X257486Y469517D01*
X257168Y469747D01*
X256855Y469985D01*
X256548Y470230D01*
X256248Y470483D01*
X255954Y470743D01*
X255666Y471011D01*
X255385Y471285D01*
X255111Y471566D01*
X254843Y471854D01*
X254583Y472148D01*
X254330Y472448D01*
X254085Y472755D01*
X253847Y473068D01*
X253617Y473386D01*
X253395Y473710D01*
X253181Y474039D01*
X252975Y474373D01*
X252777Y474713D01*
X252587Y475057D01*
X252407Y475405D01*
X252234Y475758D01*
X252071Y476115D01*
X251916Y476476D01*
X251770Y476841D01*
X251633Y477209D01*
X251506Y477580D01*
X251387Y477955D01*
X251278Y478332D01*
X251178Y478712D01*
X251087Y479094D01*
X251005Y479478D01*
X250934Y479864D01*
X250871Y480252D01*
X250818Y480641D01*
X250775Y481032D01*
X250741Y481423D01*
X250717Y481815D01*
X250703Y482207D01*
X250698Y482600D01*
D11*
X0Y0D02*
X355600Y0D01*
X355600Y990600D01*
X0Y990500D01*
X0Y0D01*
X282702Y482076D02*
X282633Y481031D01*
X282497Y479992D01*
X282292Y478964D01*
X282021Y477952D01*
X281684Y476960D01*
X281283Y475992D01*
X280820Y475053D01*
X280296Y474145D01*
X279714Y473274D01*
X279076Y472443D01*
X278386Y471655D01*
X277645Y470914D01*
X276857Y470224D01*
X276026Y469586D01*
X275155Y469004D01*
X274247Y468480D01*
X273308Y468017D01*
X272340Y467616D01*
X271348Y467279D01*
X270336Y467008D01*
X269308Y466803D01*
X268269Y466667D01*
X267224Y466598D01*
X266176Y466598D01*
X265131Y466667D01*
X264092Y466803D01*
X263064Y467008D01*
X262052Y467279D01*
X261060Y467616D01*
X260092Y468017D01*
X259153Y468480D01*
X258245Y469004D01*
X257374Y469586D01*
X256543Y470224D01*
X255755Y470914D01*
X255014Y471655D01*
X254324Y472443D01*
X253686Y473274D01*
X253104Y474145D01*
X252580Y475053D01*
X252117Y475992D01*
X251716Y476960D01*
X251379Y477952D01*
X251108Y478964D01*
X250903Y479992D01*
X250767Y481031D01*
X250698Y482076D01*
X250698Y483124D01*
X250767Y484169D01*
X250903Y485208D01*
X251108Y486236D01*
X251379Y487248D01*
X251716Y488240D01*
X252117Y489208D01*
X252580Y490147D01*
X253104Y491055D01*
X253686Y491926D01*
X254324Y492757D01*
X255014Y493545D01*
X255755Y494286D01*
X256543Y494976D01*
X257374Y495614D01*
X258245Y496196D01*
X259153Y496720D01*
X260092Y497183D01*
X261060Y497584D01*
X262052Y497921D01*
X263064Y498192D01*
X264092Y498397D01*
X265131Y498533D01*
X266176Y498602D01*
X267224Y498602D01*
X268269Y498533D01*
X269308Y498397D01*
X270336Y498192D01*
X271348Y497921D01*
X272340Y497584D01*
X273308Y497183D01*
X274247Y496720D01*
X275155Y496196D01*
X276026Y495614D01*
X276857Y494976D01*
X277645Y494286D01*
X278386Y493545D01*
X279076Y492757D01*
X279714Y491926D01*
X280296Y491055D01*
X280820Y490147D01*
X281283Y489208D01*
X281684Y488240D01*
X282021Y487248D01*
X282292Y486236D01*
X282497Y485208D01*
X282633Y484169D01*
X282702Y483124D01*
X282702Y482076D01*
M02*
