M48
;GenerationSoftware,Autodesk,EAGLE,9.6.2*%
;CreationDate,2022-05-17T14:16:30Z*%
FMAT,2
ICI,OFF
METRIC,TZ,000.000
T6C0.350
T5C0.700
T4C0.813
T3C0.914
T2C1.016
T1C3.200
%
G90
M71
T1
X26670Y48260
T2
X2540Y26035
X2540Y23495
X2540Y20955
X2540Y18415
X2540Y15875
X33020Y86360
X33020Y88900
X33020Y91440
X33020Y93980
X33020Y96520
T3
X22860Y6350
X22860Y3810
X20320Y6350
X20320Y3810
X17780Y6350
X17780Y3810
X15240Y6350
X15240Y3810
X12700Y6350
X12700Y3810
T4
X13970Y60960
X13970Y63500
X25400Y73660
X26670Y36830
X31750Y36830
X26670Y34290
X31750Y34290
X30480Y26670
X25400Y26670
X31750Y58420
X26670Y58420
X3810Y73660
X8890Y73660
X30480Y81280
X25400Y81280
X30480Y5080
X33020Y5080
X2540Y5080
X5080Y5080
X3810Y58420
X8890Y58420
X10160Y86360
X2540Y86360
X2540Y71120
X10160Y71120
X21590Y26670
X21590Y29210
X21590Y31750
X21590Y34290
X21590Y36830
X21590Y39370
X21590Y41910
X21590Y44450
X13970Y44450
X13970Y41910
X13970Y39370
X13970Y36830
X13970Y34290
X13970Y31750
X13970Y29210
X13970Y26670
X21590Y50800
X21590Y53340
X21590Y66040
X13970Y66040
X21590Y55880
X21590Y58420
X21590Y63500
X21590Y60960
X10160Y81280
X33020Y73660
X13970Y58420
X13970Y55880
X13970Y53340
X13970Y50800
X2540Y88900
X10160Y88900
X10160Y83820
X2540Y83820
X25400Y76200
X33020Y76200
X2540Y41910
X2540Y34290
X10160Y41910
X2540Y66040
X10160Y66040
X2540Y78740
X10160Y78740
X10160Y68580
X2540Y68580
X10160Y76200
X2540Y76200
X2540Y81280
X25400Y39370
X33020Y39370
X33020Y53340
X25400Y53340
X33020Y55880
X25400Y55880
X10160Y31750
X2540Y31750
X2540Y63500
X10160Y63500
X10160Y36830
X2540Y36830
X33020Y63500
X25400Y63500
X33020Y66040
X25400Y66040
X10160Y34290
T5
X13970Y73660
X13970Y78740
X13970Y81280
X21590Y81280
X21590Y78740
X21590Y76200
X21590Y73660
X13970Y76200
T6
X17780Y47625
X2540Y47625
X17780Y78740
X24130Y24765
X28575Y29210
X28575Y42545
X29845Y33020
X6350Y61595
X11430Y35560
X6350Y86360
X28575Y57150
X5080Y80010
X12065Y80010
X5080Y33020
X31115Y68580
X27305Y68580
X7620Y91440
X7620Y66040
X17780Y23495
X17780Y44450
X19050Y59690
X19050Y40640
X16510Y57150
M30