G04 EAGLE Gerber RS-274X export*
G75*
%MOMM*%
%FSLAX34Y34*%
%LPD*%
%IN*%
%IPPOS*%
%AMOC8*
5,1,8,0,0,1.08239X$1,22.5*%
G01*
%ADD10C,0.254000*%


D10*
X0Y0D02*
X355600Y0D01*
X355600Y990600D01*
X0Y990500D01*
X0Y0D01*
X282702Y482076D02*
X282633Y481031D01*
X282497Y479992D01*
X282292Y478964D01*
X282021Y477952D01*
X281684Y476960D01*
X281283Y475992D01*
X280820Y475053D01*
X280296Y474145D01*
X279714Y473274D01*
X279076Y472443D01*
X278386Y471655D01*
X277645Y470914D01*
X276857Y470224D01*
X276026Y469586D01*
X275155Y469004D01*
X274247Y468480D01*
X273308Y468017D01*
X272340Y467616D01*
X271348Y467279D01*
X270336Y467008D01*
X269308Y466803D01*
X268269Y466667D01*
X267224Y466598D01*
X266176Y466598D01*
X265131Y466667D01*
X264092Y466803D01*
X263064Y467008D01*
X262052Y467279D01*
X261060Y467616D01*
X260092Y468017D01*
X259153Y468480D01*
X258245Y469004D01*
X257374Y469586D01*
X256543Y470224D01*
X255755Y470914D01*
X255014Y471655D01*
X254324Y472443D01*
X253686Y473274D01*
X253104Y474145D01*
X252580Y475053D01*
X252117Y475992D01*
X251716Y476960D01*
X251379Y477952D01*
X251108Y478964D01*
X250903Y479992D01*
X250767Y481031D01*
X250698Y482076D01*
X250698Y483124D01*
X250767Y484169D01*
X250903Y485208D01*
X251108Y486236D01*
X251379Y487248D01*
X251716Y488240D01*
X252117Y489208D01*
X252580Y490147D01*
X253104Y491055D01*
X253686Y491926D01*
X254324Y492757D01*
X255014Y493545D01*
X255755Y494286D01*
X256543Y494976D01*
X257374Y495614D01*
X258245Y496196D01*
X259153Y496720D01*
X260092Y497183D01*
X261060Y497584D01*
X262052Y497921D01*
X263064Y498192D01*
X264092Y498397D01*
X265131Y498533D01*
X266176Y498602D01*
X267224Y498602D01*
X268269Y498533D01*
X269308Y498397D01*
X270336Y498192D01*
X271348Y497921D01*
X272340Y497584D01*
X273308Y497183D01*
X274247Y496720D01*
X275155Y496196D01*
X276026Y495614D01*
X276857Y494976D01*
X277645Y494286D01*
X278386Y493545D01*
X279076Y492757D01*
X279714Y491926D01*
X280296Y491055D01*
X280820Y490147D01*
X281283Y489208D01*
X281684Y488240D01*
X282021Y487248D01*
X282292Y486236D01*
X282497Y485208D01*
X282633Y484169D01*
X282702Y483124D01*
X282702Y482076D01*
M02*
