M48
;GenerationSoftware,Autodesk,EAGLE,9.6.2*%
;CreationDate,2022-05-18T20:09:22Z*%
FMAT,2
ICI,OFF
METRIC,TZ,000.000
T6C0.813
T5C1.016
T4C1.100
T3C1.803
T2C2.100
T1C3.200
%
G90
M71
T1
X8890Y48260
T2
X33710Y39370
X24710Y39370
X33710Y92710
X24710Y92710
X33710Y57150
X24710Y74930
X33710Y74930
X24710Y57150
T3
X8890Y18161
X8890Y22860
X8890Y27559
T4
X8890Y52150
X26710Y67930
X29210Y67930
X31710Y67930
X8890Y60650
X8890Y63650
X8890Y79930
X8890Y71430
X8890Y68430
X19050Y1350
X19050Y9850
X19050Y12850
X8890Y86210
X31710Y50150
X30480Y1350
X30480Y9850
X30480Y12850
X29210Y50150
X26710Y50150
X8890Y89210
X8890Y97710
X31710Y85710
X8890Y32870
X8890Y35870
X8890Y44370
X29210Y85710
X26710Y85710
X31710Y32370
X29210Y32370
X26710Y32370
X7620Y12850
X7620Y9850
X7620Y1350
T5
X2540Y96520
X2540Y93980
X2540Y91440
X2540Y88900
X2540Y86360
X33020Y15875
X33020Y18415
X33020Y20955
X33020Y23495
X33020Y26035
T6
X16510Y78740
X16510Y71120
X33020Y64770
X33020Y82550
X19050Y39370
X19050Y46990
X16510Y35560
X16510Y43180
X20955Y31115
X13335Y31115
X15240Y17780
X22860Y17780
X19050Y78740
X19050Y71120
X20955Y67310
X13335Y67310
X20955Y96520
X20955Y88900
X17780Y22860
X20320Y22860
X2540Y20320
X2540Y25400
X14605Y27940
X19685Y27940
X20955Y85090
X13335Y85090
X18415Y96520
X18415Y88900
X33020Y46990
X25400Y46990
X25400Y29210
X33020Y29210
X25400Y64770
X25400Y82550
M30