G04 EAGLE Gerber RS-274X export*
G75*
%MOMM*%
%FSLAX34Y34*%
%LPD*%
%INBoard Outline*%
%IPPOS*%
%AMOC8*
5,1,8,0,0,1.08239X$1,22.5*%
G01*
%ADD10C,0.000000*%
%ADD11C,0.254000*%


D10*
X0Y0D02*
X361950Y0D01*
X361950Y990600D01*
X0Y990500D01*
X0Y0D01*
X72898Y482600D02*
X72903Y482993D01*
X72917Y483385D01*
X72941Y483777D01*
X72975Y484168D01*
X73018Y484559D01*
X73071Y484948D01*
X73134Y485336D01*
X73205Y485722D01*
X73287Y486106D01*
X73378Y486488D01*
X73478Y486868D01*
X73587Y487245D01*
X73706Y487620D01*
X73833Y487991D01*
X73970Y488359D01*
X74116Y488724D01*
X74271Y489085D01*
X74434Y489442D01*
X74607Y489795D01*
X74787Y490143D01*
X74977Y490487D01*
X75175Y490827D01*
X75381Y491161D01*
X75595Y491490D01*
X75817Y491814D01*
X76047Y492132D01*
X76285Y492445D01*
X76530Y492752D01*
X76783Y493052D01*
X77043Y493346D01*
X77311Y493634D01*
X77585Y493915D01*
X77866Y494189D01*
X78154Y494457D01*
X78448Y494717D01*
X78748Y494970D01*
X79055Y495215D01*
X79368Y495453D01*
X79686Y495683D01*
X80010Y495905D01*
X80339Y496119D01*
X80673Y496325D01*
X81013Y496523D01*
X81357Y496713D01*
X81705Y496893D01*
X82058Y497066D01*
X82415Y497229D01*
X82776Y497384D01*
X83141Y497530D01*
X83509Y497667D01*
X83880Y497794D01*
X84255Y497913D01*
X84632Y498022D01*
X85012Y498122D01*
X85394Y498213D01*
X85778Y498295D01*
X86164Y498366D01*
X86552Y498429D01*
X86941Y498482D01*
X87332Y498525D01*
X87723Y498559D01*
X88115Y498583D01*
X88507Y498597D01*
X88900Y498602D01*
X89293Y498597D01*
X89685Y498583D01*
X90077Y498559D01*
X90468Y498525D01*
X90859Y498482D01*
X91248Y498429D01*
X91636Y498366D01*
X92022Y498295D01*
X92406Y498213D01*
X92788Y498122D01*
X93168Y498022D01*
X93545Y497913D01*
X93920Y497794D01*
X94291Y497667D01*
X94659Y497530D01*
X95024Y497384D01*
X95385Y497229D01*
X95742Y497066D01*
X96095Y496893D01*
X96443Y496713D01*
X96787Y496523D01*
X97127Y496325D01*
X97461Y496119D01*
X97790Y495905D01*
X98114Y495683D01*
X98432Y495453D01*
X98745Y495215D01*
X99052Y494970D01*
X99352Y494717D01*
X99646Y494457D01*
X99934Y494189D01*
X100215Y493915D01*
X100489Y493634D01*
X100757Y493346D01*
X101017Y493052D01*
X101270Y492752D01*
X101515Y492445D01*
X101753Y492132D01*
X101983Y491814D01*
X102205Y491490D01*
X102419Y491161D01*
X102625Y490827D01*
X102823Y490487D01*
X103013Y490143D01*
X103193Y489795D01*
X103366Y489442D01*
X103529Y489085D01*
X103684Y488724D01*
X103830Y488359D01*
X103967Y487991D01*
X104094Y487620D01*
X104213Y487245D01*
X104322Y486868D01*
X104422Y486488D01*
X104513Y486106D01*
X104595Y485722D01*
X104666Y485336D01*
X104729Y484948D01*
X104782Y484559D01*
X104825Y484168D01*
X104859Y483777D01*
X104883Y483385D01*
X104897Y482993D01*
X104902Y482600D01*
X104897Y482207D01*
X104883Y481815D01*
X104859Y481423D01*
X104825Y481032D01*
X104782Y480641D01*
X104729Y480252D01*
X104666Y479864D01*
X104595Y479478D01*
X104513Y479094D01*
X104422Y478712D01*
X104322Y478332D01*
X104213Y477955D01*
X104094Y477580D01*
X103967Y477209D01*
X103830Y476841D01*
X103684Y476476D01*
X103529Y476115D01*
X103366Y475758D01*
X103193Y475405D01*
X103013Y475057D01*
X102823Y474713D01*
X102625Y474373D01*
X102419Y474039D01*
X102205Y473710D01*
X101983Y473386D01*
X101753Y473068D01*
X101515Y472755D01*
X101270Y472448D01*
X101017Y472148D01*
X100757Y471854D01*
X100489Y471566D01*
X100215Y471285D01*
X99934Y471011D01*
X99646Y470743D01*
X99352Y470483D01*
X99052Y470230D01*
X98745Y469985D01*
X98432Y469747D01*
X98114Y469517D01*
X97790Y469295D01*
X97461Y469081D01*
X97127Y468875D01*
X96787Y468677D01*
X96443Y468487D01*
X96095Y468307D01*
X95742Y468134D01*
X95385Y467971D01*
X95024Y467816D01*
X94659Y467670D01*
X94291Y467533D01*
X93920Y467406D01*
X93545Y467287D01*
X93168Y467178D01*
X92788Y467078D01*
X92406Y466987D01*
X92022Y466905D01*
X91636Y466834D01*
X91248Y466771D01*
X90859Y466718D01*
X90468Y466675D01*
X90077Y466641D01*
X89685Y466617D01*
X89293Y466603D01*
X88900Y466598D01*
X88507Y466603D01*
X88115Y466617D01*
X87723Y466641D01*
X87332Y466675D01*
X86941Y466718D01*
X86552Y466771D01*
X86164Y466834D01*
X85778Y466905D01*
X85394Y466987D01*
X85012Y467078D01*
X84632Y467178D01*
X84255Y467287D01*
X83880Y467406D01*
X83509Y467533D01*
X83141Y467670D01*
X82776Y467816D01*
X82415Y467971D01*
X82058Y468134D01*
X81705Y468307D01*
X81357Y468487D01*
X81013Y468677D01*
X80673Y468875D01*
X80339Y469081D01*
X80010Y469295D01*
X79686Y469517D01*
X79368Y469747D01*
X79055Y469985D01*
X78748Y470230D01*
X78448Y470483D01*
X78154Y470743D01*
X77866Y471011D01*
X77585Y471285D01*
X77311Y471566D01*
X77043Y471854D01*
X76783Y472148D01*
X76530Y472448D01*
X76285Y472755D01*
X76047Y473068D01*
X75817Y473386D01*
X75595Y473710D01*
X75381Y474039D01*
X75175Y474373D01*
X74977Y474713D01*
X74787Y475057D01*
X74607Y475405D01*
X74434Y475758D01*
X74271Y476115D01*
X74116Y476476D01*
X73970Y476841D01*
X73833Y477209D01*
X73706Y477580D01*
X73587Y477955D01*
X73478Y478332D01*
X73378Y478712D01*
X73287Y479094D01*
X73205Y479478D01*
X73134Y479864D01*
X73071Y480252D01*
X73018Y480641D01*
X72975Y481032D01*
X72941Y481423D01*
X72917Y481815D01*
X72903Y482207D01*
X72898Y482600D01*
D11*
X0Y0D02*
X361950Y0D01*
X361950Y990600D01*
X0Y990500D01*
X0Y0D01*
X104902Y482076D02*
X104833Y481031D01*
X104697Y479992D01*
X104492Y478964D01*
X104221Y477952D01*
X103884Y476960D01*
X103483Y475992D01*
X103020Y475053D01*
X102496Y474145D01*
X101914Y473274D01*
X101276Y472443D01*
X100586Y471655D01*
X99845Y470914D01*
X99057Y470224D01*
X98226Y469586D01*
X97355Y469004D01*
X96447Y468480D01*
X95508Y468017D01*
X94540Y467616D01*
X93548Y467279D01*
X92536Y467008D01*
X91508Y466803D01*
X90469Y466667D01*
X89424Y466598D01*
X88376Y466598D01*
X87331Y466667D01*
X86292Y466803D01*
X85264Y467008D01*
X84252Y467279D01*
X83260Y467616D01*
X82292Y468017D01*
X81353Y468480D01*
X80445Y469004D01*
X79574Y469586D01*
X78743Y470224D01*
X77955Y470914D01*
X77214Y471655D01*
X76524Y472443D01*
X75886Y473274D01*
X75304Y474145D01*
X74780Y475053D01*
X74317Y475992D01*
X73916Y476960D01*
X73579Y477952D01*
X73308Y478964D01*
X73103Y479992D01*
X72967Y481031D01*
X72898Y482076D01*
X72898Y483124D01*
X72967Y484169D01*
X73103Y485208D01*
X73308Y486236D01*
X73579Y487248D01*
X73916Y488240D01*
X74317Y489208D01*
X74780Y490147D01*
X75304Y491055D01*
X75886Y491926D01*
X76524Y492757D01*
X77214Y493545D01*
X77955Y494286D01*
X78743Y494976D01*
X79574Y495614D01*
X80445Y496196D01*
X81353Y496720D01*
X82292Y497183D01*
X83260Y497584D01*
X84252Y497921D01*
X85264Y498192D01*
X86292Y498397D01*
X87331Y498533D01*
X88376Y498602D01*
X89424Y498602D01*
X90469Y498533D01*
X91508Y498397D01*
X92536Y498192D01*
X93548Y497921D01*
X94540Y497584D01*
X95508Y497183D01*
X96447Y496720D01*
X97355Y496196D01*
X98226Y495614D01*
X99057Y494976D01*
X99845Y494286D01*
X100586Y493545D01*
X101276Y492757D01*
X101914Y491926D01*
X102496Y491055D01*
X103020Y490147D01*
X103483Y489208D01*
X103884Y488240D01*
X104221Y487248D01*
X104492Y486236D01*
X104697Y485208D01*
X104833Y484169D01*
X104902Y483124D01*
X104902Y482076D01*
M02*
